<?xml version="1.0" encoding="utf-8" standalone="no"?>
<!DOCTYPE svg PUBLIC "-//W3C//DTD SVG 1.1//EN"
  "http://www.w3.org/Graphics/SVG/1.1/DTD/svg11.dtd">
<svg xmlns:xlink="http://www.w3.org/1999/xlink" width="596.49375pt" height="281.4865pt" viewBox="0 0 596.49375 281.4865" xmlns="http://www.w3.org/2000/svg" version="1.1">
 <metadata>
  <rdf:RDF xmlns:dc="http://purl.org/dc/elements/1.1/" xmlns:cc="http://creativecommons.org/ns#" xmlns:rdf="http://www.w3.org/1999/02/22-rdf-syntax-ns#">
   <cc:Work>
    <dc:type rdf:resource="http://purl.org/dc/dcmitype/StillImage"/>
    <dc:date>2026-05-31T23:21:23.651664</dc:date>
    <dc:format>image/svg+xml</dc:format>
    <dc:creator>
     <cc:Agent>
      <dc:title>Matplotlib v3.10.9, https://matplotlib.org/</dc:title>
     </cc:Agent>
    </dc:creator>
   </cc:Work>
  </rdf:RDF>
 </metadata>
 <defs>
  <style type="text/css">*{stroke-linejoin: round; stroke-linecap: butt}</style>
 </defs>
 <g id="figure_1">
  <g id="patch_1">
   <path d="M 0 281.4865 
L 596.49375 281.4865 
L 596.49375 0 
L 0 0 
z
" style="fill: #ffffff"/>
  </g>
  <g id="axes_1">
   <g id="patch_2">
    <path d="M 45.735 263.044 
L 312.114375 263.044 
L 312.114375 74.544 
L 45.735 74.544 
z
" style="fill: #efefef"/>
   </g>
   <g id="matplotlib.axis_1">
    <g id="xtick_1">
     <g id="line2d_1">
      <path d="M 70.261772 263.044 
L 70.261772 74.544 
" clip-path="url(#p9b9dbabbae)" style="fill: none; stroke: #cccccc; stroke-width: 0.8; stroke-linecap: round"/>
     </g>
     <g id="line2d_2"/>
     <g id="text_1">
      <!-- N=1 -->
      <g style="fill: #262626" transform="translate(61.372397 272.62275) scale(0.08 -0.08)">
       <defs>
        <path id="DejaVuSans-4e" d="M 628 4666 
L 1478 4666 
L 3547 763 
L 3547 4666 
L 4159 4666 
L 4159 0 
L 3309 0 
L 1241 3903 
L 1241 0 
L 628 0 
L 628 4666 
z
" transform="scale(0.015625)"/>
        <path id="DejaVuSans-3d" d="M 678 2906 
L 4684 2906 
L 4684 2381 
L 678 2381 
L 678 2906 
z
M 678 1631 
L 4684 1631 
L 4684 1100 
L 678 1100 
L 678 1631 
z
" transform="scale(0.015625)"/>
        <path id="DejaVuSans-31" d="M 794 531 
L 1825 531 
L 1825 4091 
L 703 3866 
L 703 4441 
L 1819 4666 
L 2450 4666 
L 2450 531 
L 3481 531 
L 3481 0 
L 794 0 
L 794 531 
z
" transform="scale(0.015625)"/>
       </defs>
       <use xlink:href="#DejaVuSans-4e"/>
       <use xlink:href="#DejaVuSans-3d" transform="translate(74.804688 0)"/>
       <use xlink:href="#DejaVuSans-31" transform="translate(158.59375 0)"/>
      </g>
     </g>
    </g>
    <g id="xtick_2">
     <g id="line2d_3">
      <path d="M 101.308319 263.044 
L 101.308319 74.544 
" clip-path="url(#p9b9dbabbae)" style="fill: none; stroke: #cccccc; stroke-width: 0.8; stroke-linecap: round"/>
     </g>
     <g id="line2d_4"/>
     <g id="text_2">
      <!-- N=4 -->
      <g style="fill: #262626" transform="translate(92.418944 272.62275) scale(0.08 -0.08)">
       <defs>
        <path id="DejaVuSans-34" d="M 2419 4116 
L 825 1625 
L 2419 1625 
L 2419 4116 
z
M 2253 4666 
L 3047 4666 
L 3047 1625 
L 3713 1625 
L 3713 1100 
L 3047 1100 
L 3047 0 
L 2419 0 
L 2419 1100 
L 313 1100 
L 313 1709 
L 2253 4666 
z
" transform="scale(0.015625)"/>
       </defs>
       <use xlink:href="#DejaVuSans-4e"/>
       <use xlink:href="#DejaVuSans-3d" transform="translate(74.804688 0)"/>
       <use xlink:href="#DejaVuSans-34" transform="translate(158.59375 0)"/>
      </g>
     </g>
    </g>
    <g id="xtick_3">
     <g id="line2d_5">
      <path d="M 132.354867 263.044 
L 132.354867 74.544 
" clip-path="url(#p9b9dbabbae)" style="fill: none; stroke: #cccccc; stroke-width: 0.8; stroke-linecap: round"/>
     </g>
     <g id="line2d_6"/>
     <g id="text_3">
      <!-- N=6 -->
      <g style="fill: #262626" transform="translate(123.465492 272.62275) scale(0.08 -0.08)">
       <defs>
        <path id="DejaVuSans-36" d="M 2113 2584 
Q 1688 2584 1439 2293 
Q 1191 2003 1191 1497 
Q 1191 994 1439 701 
Q 1688 409 2113 409 
Q 2538 409 2786 701 
Q 3034 994 3034 1497 
Q 3034 2003 2786 2293 
Q 2538 2584 2113 2584 
z
M 3366 4563 
L 3366 3988 
Q 3128 4100 2886 4159 
Q 2644 4219 2406 4219 
Q 1781 4219 1451 3797 
Q 1122 3375 1075 2522 
Q 1259 2794 1537 2939 
Q 1816 3084 2150 3084 
Q 2853 3084 3261 2657 
Q 3669 2231 3669 1497 
Q 3669 778 3244 343 
Q 2819 -91 2113 -91 
Q 1303 -91 875 529 
Q 447 1150 447 2328 
Q 447 3434 972 4092 
Q 1497 4750 2381 4750 
Q 2619 4750 2861 4703 
Q 3103 4656 3366 4563 
z
" transform="scale(0.015625)"/>
       </defs>
       <use xlink:href="#DejaVuSans-4e"/>
       <use xlink:href="#DejaVuSans-3d" transform="translate(74.804688 0)"/>
       <use xlink:href="#DejaVuSans-36" transform="translate(158.59375 0)"/>
      </g>
     </g>
    </g>
    <g id="xtick_4">
     <g id="line2d_7">
      <path d="M 163.401414 263.044 
L 163.401414 74.544 
" clip-path="url(#p9b9dbabbae)" style="fill: none; stroke: #cccccc; stroke-width: 0.8; stroke-linecap: round"/>
     </g>
     <g id="line2d_8"/>
     <g id="text_4">
      <!-- N=16 -->
      <g style="fill: #262626" transform="translate(151.967039 272.62275) scale(0.08 -0.08)">
       <use xlink:href="#DejaVuSans-4e"/>
       <use xlink:href="#DejaVuSans-3d" transform="translate(74.804688 0)"/>
       <use xlink:href="#DejaVuSans-31" transform="translate(158.59375 0)"/>
       <use xlink:href="#DejaVuSans-36" transform="translate(222.216797 0)"/>
      </g>
     </g>
    </g>
    <g id="xtick_5">
     <g id="line2d_9">
      <path d="M 194.447961 263.044 
L 194.447961 74.544 
" clip-path="url(#p9b9dbabbae)" style="fill: none; stroke: #cccccc; stroke-width: 0.8; stroke-linecap: round"/>
     </g>
     <g id="line2d_10"/>
     <g id="text_5">
      <!-- N=32 -->
      <g style="fill: #262626" transform="translate(183.013586 272.62275) scale(0.08 -0.08)">
       <defs>
        <path id="DejaVuSans-33" d="M 2597 2516 
Q 3050 2419 3304 2112 
Q 3559 1806 3559 1356 
Q 3559 666 3084 287 
Q 2609 -91 1734 -91 
Q 1441 -91 1130 -33 
Q 819 25 488 141 
L 488 750 
Q 750 597 1062 519 
Q 1375 441 1716 441 
Q 2309 441 2620 675 
Q 2931 909 2931 1356 
Q 2931 1769 2642 2001 
Q 2353 2234 1838 2234 
L 1294 2234 
L 1294 2753 
L 1863 2753 
Q 2328 2753 2575 2939 
Q 2822 3125 2822 3475 
Q 2822 3834 2567 4026 
Q 2313 4219 1838 4219 
Q 1578 4219 1281 4162 
Q 984 4106 628 3988 
L 628 4550 
Q 988 4650 1302 4700 
Q 1616 4750 1894 4750 
Q 2613 4750 3031 4423 
Q 3450 4097 3450 3541 
Q 3450 3153 3228 2886 
Q 3006 2619 2597 2516 
z
" transform="scale(0.015625)"/>
        <path id="DejaVuSans-32" d="M 1228 531 
L 3431 531 
L 3431 0 
L 469 0 
L 469 531 
Q 828 903 1448 1529 
Q 2069 2156 2228 2338 
Q 2531 2678 2651 2914 
Q 2772 3150 2772 3378 
Q 2772 3750 2511 3984 
Q 2250 4219 1831 4219 
Q 1534 4219 1204 4116 
Q 875 4013 500 3803 
L 500 4441 
Q 881 4594 1212 4672 
Q 1544 4750 1819 4750 
Q 2544 4750 2975 4387 
Q 3406 4025 3406 3419 
Q 3406 3131 3298 2873 
Q 3191 2616 2906 2266 
Q 2828 2175 2409 1742 
Q 1991 1309 1228 531 
z
" transform="scale(0.015625)"/>
       </defs>
       <use xlink:href="#DejaVuSans-4e"/>
       <use xlink:href="#DejaVuSans-3d" transform="translate(74.804688 0)"/>
       <use xlink:href="#DejaVuSans-33" transform="translate(158.59375 0)"/>
       <use xlink:href="#DejaVuSans-32" transform="translate(222.216797 0)"/>
      </g>
     </g>
    </g>
    <g id="xtick_6">
     <g id="line2d_11">
      <path d="M 225.494508 263.044 
L 225.494508 74.544 
" clip-path="url(#p9b9dbabbae)" style="fill: none; stroke: #cccccc; stroke-width: 0.8; stroke-linecap: round"/>
     </g>
     <g id="line2d_12"/>
     <g id="text_6">
      <!-- N=48 -->
      <g style="fill: #262626" transform="translate(214.060133 272.62275) scale(0.08 -0.08)">
       <defs>
        <path id="DejaVuSans-38" d="M 2034 2216 
Q 1584 2216 1326 1975 
Q 1069 1734 1069 1313 
Q 1069 891 1326 650 
Q 1584 409 2034 409 
Q 2484 409 2743 651 
Q 3003 894 3003 1313 
Q 3003 1734 2745 1975 
Q 2488 2216 2034 2216 
z
M 1403 2484 
Q 997 2584 770 2862 
Q 544 3141 544 3541 
Q 544 4100 942 4425 
Q 1341 4750 2034 4750 
Q 2731 4750 3128 4425 
Q 3525 4100 3525 3541 
Q 3525 3141 3298 2862 
Q 3072 2584 2669 2484 
Q 3125 2378 3379 2068 
Q 3634 1759 3634 1313 
Q 3634 634 3220 271 
Q 2806 -91 2034 -91 
Q 1263 -91 848 271 
Q 434 634 434 1313 
Q 434 1759 690 2068 
Q 947 2378 1403 2484 
z
M 1172 3481 
Q 1172 3119 1398 2916 
Q 1625 2713 2034 2713 
Q 2441 2713 2670 2916 
Q 2900 3119 2900 3481 
Q 2900 3844 2670 4047 
Q 2441 4250 2034 4250 
Q 1625 4250 1398 4047 
Q 1172 3844 1172 3481 
z
" transform="scale(0.015625)"/>
       </defs>
       <use xlink:href="#DejaVuSans-4e"/>
       <use xlink:href="#DejaVuSans-3d" transform="translate(74.804688 0)"/>
       <use xlink:href="#DejaVuSans-34" transform="translate(158.59375 0)"/>
       <use xlink:href="#DejaVuSans-38" transform="translate(222.216797 0)"/>
      </g>
     </g>
    </g>
    <g id="xtick_7">
     <g id="line2d_13">
      <path d="M 256.541056 263.044 
L 256.541056 74.544 
" clip-path="url(#p9b9dbabbae)" style="fill: none; stroke: #cccccc; stroke-width: 0.8; stroke-linecap: round"/>
     </g>
     <g id="line2d_14"/>
     <g id="text_7">
      <!-- N=56 -->
      <g style="fill: #262626" transform="translate(245.106681 272.62275) scale(0.08 -0.08)">
       <defs>
        <path id="DejaVuSans-35" d="M 691 4666 
L 3169 4666 
L 3169 4134 
L 1269 4134 
L 1269 2991 
Q 1406 3038 1543 3061 
Q 1681 3084 1819 3084 
Q 2600 3084 3056 2656 
Q 3513 2228 3513 1497 
Q 3513 744 3044 326 
Q 2575 -91 1722 -91 
Q 1428 -91 1123 -41 
Q 819 9 494 109 
L 494 744 
Q 775 591 1075 516 
Q 1375 441 1709 441 
Q 2250 441 2565 725 
Q 2881 1009 2881 1497 
Q 2881 1984 2565 2268 
Q 2250 2553 1709 2553 
Q 1456 2553 1204 2497 
Q 953 2441 691 2322 
L 691 4666 
z
" transform="scale(0.015625)"/>
       </defs>
       <use xlink:href="#DejaVuSans-4e"/>
       <use xlink:href="#DejaVuSans-3d" transform="translate(74.804688 0)"/>
       <use xlink:href="#DejaVuSans-35" transform="translate(158.59375 0)"/>
       <use xlink:href="#DejaVuSans-36" transform="translate(222.216797 0)"/>
      </g>
     </g>
    </g>
    <g id="xtick_8">
     <g id="line2d_15">
      <path d="M 287.587603 263.044 
L 287.587603 74.544 
" clip-path="url(#p9b9dbabbae)" style="fill: none; stroke: #cccccc; stroke-width: 0.8; stroke-linecap: round"/>
     </g>
     <g id="line2d_16"/>
     <g id="text_8">
      <!-- N=64 -->
      <g style="fill: #262626" transform="translate(276.153228 272.62275) scale(0.08 -0.08)">
       <use xlink:href="#DejaVuSans-4e"/>
       <use xlink:href="#DejaVuSans-3d" transform="translate(74.804688 0)"/>
       <use xlink:href="#DejaVuSans-36" transform="translate(158.59375 0)"/>
       <use xlink:href="#DejaVuSans-34" transform="translate(222.216797 0)"/>
      </g>
     </g>
    </g>
   </g>
   <g id="matplotlib.axis_2">
    <g id="ytick_1">
     <g id="line2d_17">
      <path d="M 45.735 263.044 
L 312.114375 263.044 
" clip-path="url(#p9b9dbabbae)" style="fill: none; stroke: #ffffff; stroke-width: 0.6; stroke-linecap: round"/>
     </g>
     <g id="line2d_18"/>
     <g id="text_9">
      <!-- 0 -->
      <g style="fill: #262626" transform="translate(35.8725 266.843219) scale(0.1 -0.1)">
       <defs>
        <path id="DejaVuSans-30" d="M 2034 4250 
Q 1547 4250 1301 3770 
Q 1056 3291 1056 2328 
Q 1056 1369 1301 889 
Q 1547 409 2034 409 
Q 2525 409 2770 889 
Q 3016 1369 3016 2328 
Q 3016 3291 2770 3770 
Q 2525 4250 2034 4250 
z
M 2034 4750 
Q 2819 4750 3233 4129 
Q 3647 3509 3647 2328 
Q 3647 1150 3233 529 
Q 2819 -91 2034 -91 
Q 1250 -91 836 529 
Q 422 1150 422 2328 
Q 422 3509 836 4129 
Q 1250 4750 2034 4750 
z
" transform="scale(0.015625)"/>
       </defs>
       <use xlink:href="#DejaVuSans-30"/>
      </g>
     </g>
    </g>
    <g id="ytick_2">
     <g id="line2d_19">
      <path d="M 45.735 227.139238 
L 312.114375 227.139238 
" clip-path="url(#p9b9dbabbae)" style="fill: none; stroke: #ffffff; stroke-width: 0.6; stroke-linecap: round"/>
     </g>
     <g id="line2d_20"/>
     <g id="text_10">
      <!-- 20 -->
      <g style="fill: #262626" transform="translate(29.51 230.938457) scale(0.1 -0.1)">
       <use xlink:href="#DejaVuSans-32"/>
       <use xlink:href="#DejaVuSans-30" transform="translate(63.623047 0)"/>
      </g>
     </g>
    </g>
    <g id="ytick_3">
     <g id="line2d_21">
      <path d="M 45.735 191.234476 
L 312.114375 191.234476 
" clip-path="url(#p9b9dbabbae)" style="fill: none; stroke: #ffffff; stroke-width: 0.6; stroke-linecap: round"/>
     </g>
     <g id="line2d_22"/>
     <g id="text_11">
      <!-- 40 -->
      <g style="fill: #262626" transform="translate(29.51 195.033695) scale(0.1 -0.1)">
       <use xlink:href="#DejaVuSans-34"/>
       <use xlink:href="#DejaVuSans-30" transform="translate(63.623047 0)"/>
      </g>
     </g>
    </g>
    <g id="ytick_4">
     <g id="line2d_23">
      <path d="M 45.735 155.329714 
L 312.114375 155.329714 
" clip-path="url(#p9b9dbabbae)" style="fill: none; stroke: #ffffff; stroke-width: 0.6; stroke-linecap: round"/>
     </g>
     <g id="line2d_24"/>
     <g id="text_12">
      <!-- 60 -->
      <g style="fill: #262626" transform="translate(29.51 159.128933) scale(0.1 -0.1)">
       <use xlink:href="#DejaVuSans-36"/>
       <use xlink:href="#DejaVuSans-30" transform="translate(63.623047 0)"/>
      </g>
     </g>
    </g>
    <g id="ytick_5">
     <g id="line2d_25">
      <path d="M 45.735 119.424952 
L 312.114375 119.424952 
" clip-path="url(#p9b9dbabbae)" style="fill: none; stroke: #ffffff; stroke-width: 0.6; stroke-linecap: round"/>
     </g>
     <g id="line2d_26"/>
     <g id="text_13">
      <!-- 80 -->
      <g style="fill: #262626" transform="translate(29.51 123.224171) scale(0.1 -0.1)">
       <use xlink:href="#DejaVuSans-38"/>
       <use xlink:href="#DejaVuSans-30" transform="translate(63.623047 0)"/>
      </g>
     </g>
    </g>
    <g id="ytick_6">
     <g id="line2d_27">
      <path d="M 45.735 83.52019 
L 312.114375 83.52019 
" clip-path="url(#p9b9dbabbae)" style="fill: none; stroke: #ffffff; stroke-width: 0.6; stroke-linecap: round"/>
     </g>
     <g id="line2d_28"/>
     <g id="text_14">
      <!-- 100 -->
      <g style="fill: #262626" transform="translate(23.1475 87.319409) scale(0.1 -0.1)">
       <use xlink:href="#DejaVuSans-31"/>
       <use xlink:href="#DejaVuSans-30" transform="translate(63.623047 0)"/>
       <use xlink:href="#DejaVuSans-30" transform="translate(127.246094 0)"/>
      </g>
     </g>
    </g>
    <g id="text_15">
     <!-- % of flops_pmc -->
     <g style="fill: #262626" transform="translate(16.318125 214.429625) rotate(-90) scale(0.12 -0.12)">
      <defs>
       <path id="DejaVuSans-25" d="M 4653 2053 
Q 4381 2053 4226 1822 
Q 4072 1591 4072 1178 
Q 4072 772 4226 539 
Q 4381 306 4653 306 
Q 4919 306 5073 539 
Q 5228 772 5228 1178 
Q 5228 1588 5073 1820 
Q 4919 2053 4653 2053 
z
M 4653 2450 
Q 5147 2450 5437 2106 
Q 5728 1763 5728 1178 
Q 5728 594 5436 251 
Q 5144 -91 4653 -91 
Q 4153 -91 3862 251 
Q 3572 594 3572 1178 
Q 3572 1766 3864 2108 
Q 4156 2450 4653 2450 
z
M 1428 4353 
Q 1159 4353 1004 4120 
Q 850 3888 850 3481 
Q 850 3069 1003 2837 
Q 1156 2606 1428 2606 
Q 1700 2606 1854 2837 
Q 2009 3069 2009 3481 
Q 2009 3884 1853 4118 
Q 1697 4353 1428 4353 
z
M 4250 4750 
L 4750 4750 
L 1831 -91 
L 1331 -91 
L 4250 4750 
z
M 1428 4750 
Q 1922 4750 2215 4408 
Q 2509 4066 2509 3481 
Q 2509 2891 2217 2550 
Q 1925 2209 1428 2209 
Q 931 2209 642 2551 
Q 353 2894 353 3481 
Q 353 4063 643 4406 
Q 934 4750 1428 4750 
z
" transform="scale(0.015625)"/>
       <path id="DejaVuSans-20" transform="scale(0.015625)"/>
       <path id="DejaVuSans-6f" d="M 1959 3097 
Q 1497 3097 1228 2736 
Q 959 2375 959 1747 
Q 959 1119 1226 758 
Q 1494 397 1959 397 
Q 2419 397 2687 759 
Q 2956 1122 2956 1747 
Q 2956 2369 2687 2733 
Q 2419 3097 1959 3097 
z
M 1959 3584 
Q 2709 3584 3137 3096 
Q 3566 2609 3566 1747 
Q 3566 888 3137 398 
Q 2709 -91 1959 -91 
Q 1206 -91 779 398 
Q 353 888 353 1747 
Q 353 2609 779 3096 
Q 1206 3584 1959 3584 
z
" transform="scale(0.015625)"/>
       <path id="DejaVuSans-66" d="M 2375 4863 
L 2375 4384 
L 1825 4384 
Q 1516 4384 1395 4259 
Q 1275 4134 1275 3809 
L 1275 3500 
L 2222 3500 
L 2222 3053 
L 1275 3053 
L 1275 0 
L 697 0 
L 697 3053 
L 147 3053 
L 147 3500 
L 697 3500 
L 697 3744 
Q 697 4328 969 4595 
Q 1241 4863 1831 4863 
L 2375 4863 
z
" transform="scale(0.015625)"/>
       <path id="DejaVuSans-6c" d="M 603 4863 
L 1178 4863 
L 1178 0 
L 603 0 
L 603 4863 
z
" transform="scale(0.015625)"/>
       <path id="DejaVuSans-70" d="M 1159 525 
L 1159 -1331 
L 581 -1331 
L 581 3500 
L 1159 3500 
L 1159 2969 
Q 1341 3281 1617 3432 
Q 1894 3584 2278 3584 
Q 2916 3584 3314 3078 
Q 3713 2572 3713 1747 
Q 3713 922 3314 415 
Q 2916 -91 2278 -91 
Q 1894 -91 1617 61 
Q 1341 213 1159 525 
z
M 3116 1747 
Q 3116 2381 2855 2742 
Q 2594 3103 2138 3103 
Q 1681 3103 1420 2742 
Q 1159 2381 1159 1747 
Q 1159 1113 1420 752 
Q 1681 391 2138 391 
Q 2594 391 2855 752 
Q 3116 1113 3116 1747 
z
" transform="scale(0.015625)"/>
       <path id="DejaVuSans-73" d="M 2834 3397 
L 2834 2853 
Q 2591 2978 2328 3040 
Q 2066 3103 1784 3103 
Q 1356 3103 1142 2972 
Q 928 2841 928 2578 
Q 928 2378 1081 2264 
Q 1234 2150 1697 2047 
L 1894 2003 
Q 2506 1872 2764 1633 
Q 3022 1394 3022 966 
Q 3022 478 2636 193 
Q 2250 -91 1575 -91 
Q 1294 -91 989 -36 
Q 684 19 347 128 
L 347 722 
Q 666 556 975 473 
Q 1284 391 1588 391 
Q 1994 391 2212 530 
Q 2431 669 2431 922 
Q 2431 1156 2273 1281 
Q 2116 1406 1581 1522 
L 1381 1569 
Q 847 1681 609 1914 
Q 372 2147 372 2553 
Q 372 3047 722 3315 
Q 1072 3584 1716 3584 
Q 2034 3584 2315 3537 
Q 2597 3491 2834 3397 
z
" transform="scale(0.015625)"/>
       <path id="DejaVuSans-5f" d="M 3263 -1063 
L 3263 -1509 
L -63 -1509 
L -63 -1063 
L 3263 -1063 
z
" transform="scale(0.015625)"/>
       <path id="DejaVuSans-6d" d="M 3328 2828 
Q 3544 3216 3844 3400 
Q 4144 3584 4550 3584 
Q 5097 3584 5394 3201 
Q 5691 2819 5691 2113 
L 5691 0 
L 5113 0 
L 5113 2094 
Q 5113 2597 4934 2840 
Q 4756 3084 4391 3084 
Q 3944 3084 3684 2787 
Q 3425 2491 3425 1978 
L 3425 0 
L 2847 0 
L 2847 2094 
Q 2847 2600 2669 2842 
Q 2491 3084 2119 3084 
Q 1678 3084 1418 2786 
Q 1159 2488 1159 1978 
L 1159 0 
L 581 0 
L 581 3500 
L 1159 3500 
L 1159 2956 
Q 1356 3278 1631 3431 
Q 1906 3584 2284 3584 
Q 2666 3584 2933 3390 
Q 3200 3197 3328 2828 
z
" transform="scale(0.015625)"/>
       <path id="DejaVuSans-63" d="M 3122 3366 
L 3122 2828 
Q 2878 2963 2633 3030 
Q 2388 3097 2138 3097 
Q 1578 3097 1268 2742 
Q 959 2388 959 1747 
Q 959 1106 1268 751 
Q 1578 397 2138 397 
Q 2388 397 2633 464 
Q 2878 531 3122 666 
L 3122 134 
Q 2881 22 2623 -34 
Q 2366 -91 2075 -91 
Q 1284 -91 818 406 
Q 353 903 353 1747 
Q 353 2603 823 3093 
Q 1294 3584 2113 3584 
Q 2378 3584 2631 3529 
Q 2884 3475 3122 3366 
z
" transform="scale(0.015625)"/>
      </defs>
      <use xlink:href="#DejaVuSans-25"/>
      <use xlink:href="#DejaVuSans-20" transform="translate(95.019531 0)"/>
      <use xlink:href="#DejaVuSans-6f" transform="translate(126.806641 0)"/>
      <use xlink:href="#DejaVuSans-66" transform="translate(187.988281 0)"/>
      <use xlink:href="#DejaVuSans-20" transform="translate(223.193359 0)"/>
      <use xlink:href="#DejaVuSans-66" transform="translate(254.980469 0)"/>
      <use xlink:href="#DejaVuSans-6c" transform="translate(290.185547 0)"/>
      <use xlink:href="#DejaVuSans-6f" transform="translate(317.96875 0)"/>
      <use xlink:href="#DejaVuSans-70" transform="translate(379.150391 0)"/>
      <use xlink:href="#DejaVuSans-73" transform="translate(442.626953 0)"/>
      <use xlink:href="#DejaVuSans-5f" transform="translate(494.726562 0)"/>
      <use xlink:href="#DejaVuSans-70" transform="translate(544.726562 0)"/>
      <use xlink:href="#DejaVuSans-6d" transform="translate(608.203125 0)"/>
      <use xlink:href="#DejaVuSans-63" transform="translate(705.615234 0)"/>
     </g>
    </g>
   </g>
   <g id="patch_3">
    <path d="M 45.735 263.044 
L 45.735 74.544 
" style="fill: none; stroke: #cccccc; stroke-linejoin: miter; stroke-linecap: square"/>
   </g>
   <g id="patch_4">
    <path d="M 45.735 263.044 
L 312.114375 263.044 
" style="fill: none; stroke: #cccccc; stroke-linejoin: miter; stroke-linecap: square"/>
   </g>
   <g id="patch_5">
    <path d="M 57.843153 263.044 
L 82.680391 263.044 
L 82.680391 83.546826 
L 57.843153 83.546826 
z
" clip-path="url(#p9b9dbabbae)" style="fill: #2563eb; stroke: #ffffff; stroke-width: 0.5; stroke-linejoin: miter"/>
   </g>
   <g id="patch_6">
    <path d="M 88.889701 263.044 
L 113.726938 263.044 
L 113.726938 83.548064 
L 88.889701 83.548064 
z
" clip-path="url(#p9b9dbabbae)" style="fill: #2563eb; stroke: #ffffff; stroke-width: 0.5; stroke-linejoin: miter"/>
   </g>
   <g id="patch_7">
    <path d="M 119.936248 263.044 
L 144.773486 263.044 
L 144.773486 83.546338 
L 119.936248 83.546338 
z
" clip-path="url(#p9b9dbabbae)" style="fill: #2563eb; stroke: #ffffff; stroke-width: 0.5; stroke-linejoin: miter"/>
   </g>
   <g id="patch_8">
    <path d="M 150.982795 263.044 
L 175.820033 263.044 
L 175.820033 83.543133 
L 150.982795 83.543133 
z
" clip-path="url(#p9b9dbabbae)" style="fill: #2563eb; stroke: #ffffff; stroke-width: 0.5; stroke-linejoin: miter"/>
   </g>
   <g id="patch_9">
    <path d="M 182.029342 263.044 
L 206.86658 263.044 
L 206.86658 83.542716 
L 182.029342 83.542716 
z
" clip-path="url(#p9b9dbabbae)" style="fill: #2563eb; stroke: #ffffff; stroke-width: 0.5; stroke-linejoin: miter"/>
   </g>
   <g id="patch_10">
    <path d="M 213.075889 263.044 
L 237.913127 263.044 
L 237.913127 83.541034 
L 213.075889 83.541034 
z
" clip-path="url(#p9b9dbabbae)" style="fill: #2563eb; stroke: #ffffff; stroke-width: 0.5; stroke-linejoin: miter"/>
   </g>
   <g id="patch_11">
    <path d="M 244.122437 263.044 
L 268.959674 263.044 
L 268.959674 83.53938 
L 244.122437 83.53938 
z
" clip-path="url(#p9b9dbabbae)" style="fill: #2563eb; stroke: #ffffff; stroke-width: 0.5; stroke-linejoin: miter"/>
   </g>
   <g id="patch_12">
    <path d="M 275.168984 263.044 
L 300.006222 263.044 
L 300.006222 83.539614 
L 275.168984 83.539614 
z
" clip-path="url(#p9b9dbabbae)" style="fill: #2563eb; stroke: #ffffff; stroke-width: 0.5; stroke-linejoin: miter"/>
   </g>
   <g id="patch_13">
    <path d="M 57.843153 83.546826 
L 82.680391 83.546826 
L 82.680391 83.546826 
L 57.843153 83.546826 
z
" clip-path="url(#p9b9dbabbae)" style="fill: #16a34a; stroke: #ffffff; stroke-width: 0.5; stroke-linejoin: miter"/>
   </g>
   <g id="patch_14">
    <path d="M 88.889701 83.548064 
L 113.726938 83.548064 
L 113.726938 83.548064 
L 88.889701 83.548064 
z
" clip-path="url(#p9b9dbabbae)" style="fill: #16a34a; stroke: #ffffff; stroke-width: 0.5; stroke-linejoin: miter"/>
   </g>
   <g id="patch_15">
    <path d="M 119.936248 83.546338 
L 144.773486 83.546338 
L 144.773486 83.546338 
L 119.936248 83.546338 
z
" clip-path="url(#p9b9dbabbae)" style="fill: #16a34a; stroke: #ffffff; stroke-width: 0.5; stroke-linejoin: miter"/>
   </g>
   <g id="patch_16">
    <path d="M 150.982795 83.543133 
L 175.820033 83.543133 
L 175.820033 83.543133 
L 150.982795 83.543133 
z
" clip-path="url(#p9b9dbabbae)" style="fill: #16a34a; stroke: #ffffff; stroke-width: 0.5; stroke-linejoin: miter"/>
   </g>
   <g id="patch_17">
    <path d="M 182.029342 83.542716 
L 206.86658 83.542716 
L 206.86658 83.542716 
L 182.029342 83.542716 
z
" clip-path="url(#p9b9dbabbae)" style="fill: #16a34a; stroke: #ffffff; stroke-width: 0.5; stroke-linejoin: miter"/>
   </g>
   <g id="patch_18">
    <path d="M 213.075889 83.541034 
L 237.913127 83.541034 
L 237.913127 83.541034 
L 213.075889 83.541034 
z
" clip-path="url(#p9b9dbabbae)" style="fill: #16a34a; stroke: #ffffff; stroke-width: 0.5; stroke-linejoin: miter"/>
   </g>
   <g id="patch_19">
    <path d="M 244.122437 83.53938 
L 268.959674 83.53938 
L 268.959674 83.53938 
L 244.122437 83.53938 
z
" clip-path="url(#p9b9dbabbae)" style="fill: #16a34a; stroke: #ffffff; stroke-width: 0.5; stroke-linejoin: miter"/>
   </g>
   <g id="patch_20">
    <path d="M 275.168984 83.539614 
L 300.006222 83.539614 
L 300.006222 83.539614 
L 275.168984 83.539614 
z
" clip-path="url(#p9b9dbabbae)" style="fill: #16a34a; stroke: #ffffff; stroke-width: 0.5; stroke-linejoin: miter"/>
   </g>
   <g id="patch_21">
    <path d="M 57.843153 83.546826 
L 82.680391 83.546826 
L 82.680391 83.52019 
L 57.843153 83.52019 
z
" clip-path="url(#p9b9dbabbae)" style="fill: #ea580c; stroke: #ffffff; stroke-width: 0.5; stroke-linejoin: miter"/>
   </g>
   <g id="patch_22">
    <path d="M 88.889701 83.548064 
L 113.726938 83.548064 
L 113.726938 83.52019 
L 88.889701 83.52019 
z
" clip-path="url(#p9b9dbabbae)" style="fill: #ea580c; stroke: #ffffff; stroke-width: 0.5; stroke-linejoin: miter"/>
   </g>
   <g id="patch_23">
    <path d="M 119.936248 83.546338 
L 144.773486 83.546338 
L 144.773486 83.52019 
L 119.936248 83.52019 
z
" clip-path="url(#p9b9dbabbae)" style="fill: #ea580c; stroke: #ffffff; stroke-width: 0.5; stroke-linejoin: miter"/>
   </g>
   <g id="patch_24">
    <path d="M 150.982795 83.543133 
L 175.820033 83.543133 
L 175.820033 83.52019 
L 150.982795 83.52019 
z
" clip-path="url(#p9b9dbabbae)" style="fill: #ea580c; stroke: #ffffff; stroke-width: 0.5; stroke-linejoin: miter"/>
   </g>
   <g id="patch_25">
    <path d="M 182.029342 83.542716 
L 206.86658 83.542716 
L 206.86658 83.52019 
L 182.029342 83.52019 
z
" clip-path="url(#p9b9dbabbae)" style="fill: #ea580c; stroke: #ffffff; stroke-width: 0.5; stroke-linejoin: miter"/>
   </g>
   <g id="patch_26">
    <path d="M 213.075889 83.541034 
L 237.913127 83.541034 
L 237.913127 83.52019 
L 213.075889 83.52019 
z
" clip-path="url(#p9b9dbabbae)" style="fill: #ea580c; stroke: #ffffff; stroke-width: 0.5; stroke-linejoin: miter"/>
   </g>
   <g id="patch_27">
    <path d="M 244.122437 83.53938 
L 268.959674 83.53938 
L 268.959674 83.52019 
L 244.122437 83.52019 
z
" clip-path="url(#p9b9dbabbae)" style="fill: #ea580c; stroke: #ffffff; stroke-width: 0.5; stroke-linejoin: miter"/>
   </g>
   <g id="patch_28">
    <path d="M 275.168984 83.539614 
L 300.006222 83.539614 
L 300.006222 83.52019 
L 275.168984 83.52019 
z
" clip-path="url(#p9b9dbabbae)" style="fill: #ea580c; stroke: #ffffff; stroke-width: 0.5; stroke-linejoin: miter"/>
   </g>
   <g id="text_16">
    <!-- baseline -->
    <g style="fill: #ca8a04" transform="translate(152.855547 68.544) scale(0.11 -0.11)">
     <defs>
      <path id="DejaVuSans-Bold-62" d="M 2400 722 
Q 2759 722 2948 984 
Q 3138 1247 3138 1747 
Q 3138 2247 2948 2509 
Q 2759 2772 2400 2772 
Q 2041 2772 1848 2508 
Q 1656 2244 1656 1747 
Q 1656 1250 1848 986 
Q 2041 722 2400 722 
z
M 1656 2988 
Q 1888 3294 2169 3439 
Q 2450 3584 2816 3584 
Q 3463 3584 3878 3070 
Q 4294 2556 4294 1747 
Q 4294 938 3878 423 
Q 3463 -91 2816 -91 
Q 2450 -91 2169 54 
Q 1888 200 1656 506 
L 1656 0 
L 538 0 
L 538 4863 
L 1656 4863 
L 1656 2988 
z
" transform="scale(0.015625)"/>
      <path id="DejaVuSans-Bold-61" d="M 2106 1575 
Q 1756 1575 1579 1456 
Q 1403 1338 1403 1106 
Q 1403 894 1545 773 
Q 1688 653 1941 653 
Q 2256 653 2472 879 
Q 2688 1106 2688 1447 
L 2688 1575 
L 2106 1575 
z
M 3816 1997 
L 3816 0 
L 2688 0 
L 2688 519 
Q 2463 200 2181 54 
Q 1900 -91 1497 -91 
Q 953 -91 614 226 
Q 275 544 275 1050 
Q 275 1666 698 1953 
Q 1122 2241 2028 2241 
L 2688 2241 
L 2688 2328 
Q 2688 2594 2478 2717 
Q 2269 2841 1825 2841 
Q 1466 2841 1156 2769 
Q 847 2697 581 2553 
L 581 3406 
Q 941 3494 1303 3539 
Q 1666 3584 2028 3584 
Q 2975 3584 3395 3211 
Q 3816 2838 3816 1997 
z
" transform="scale(0.015625)"/>
      <path id="DejaVuSans-Bold-73" d="M 3272 3391 
L 3272 2541 
Q 2913 2691 2578 2766 
Q 2244 2841 1947 2841 
Q 1628 2841 1473 2761 
Q 1319 2681 1319 2516 
Q 1319 2381 1436 2309 
Q 1553 2238 1856 2203 
L 2053 2175 
Q 2913 2066 3209 1816 
Q 3506 1566 3506 1031 
Q 3506 472 3093 190 
Q 2681 -91 1863 -91 
Q 1516 -91 1145 -36 
Q 775 19 384 128 
L 384 978 
Q 719 816 1070 734 
Q 1422 653 1784 653 
Q 2113 653 2278 743 
Q 2444 834 2444 1013 
Q 2444 1163 2330 1236 
Q 2216 1309 1875 1350 
L 1678 1375 
Q 931 1469 631 1722 
Q 331 1975 331 2491 
Q 331 3047 712 3315 
Q 1094 3584 1881 3584 
Q 2191 3584 2531 3537 
Q 2872 3491 3272 3391 
z
" transform="scale(0.015625)"/>
      <path id="DejaVuSans-Bold-65" d="M 4031 1759 
L 4031 1441 
L 1416 1441 
Q 1456 1047 1700 850 
Q 1944 653 2381 653 
Q 2734 653 3104 758 
Q 3475 863 3866 1075 
L 3866 213 
Q 3469 63 3072 -14 
Q 2675 -91 2278 -91 
Q 1328 -91 801 392 
Q 275 875 275 1747 
Q 275 2603 792 3093 
Q 1309 3584 2216 3584 
Q 3041 3584 3536 3087 
Q 4031 2591 4031 1759 
z
M 2881 2131 
Q 2881 2450 2695 2645 
Q 2509 2841 2209 2841 
Q 1884 2841 1681 2658 
Q 1478 2475 1428 2131 
L 2881 2131 
z
" transform="scale(0.015625)"/>
      <path id="DejaVuSans-Bold-6c" d="M 538 4863 
L 1656 4863 
L 1656 0 
L 538 0 
L 538 4863 
z
" transform="scale(0.015625)"/>
      <path id="DejaVuSans-Bold-69" d="M 538 3500 
L 1656 3500 
L 1656 0 
L 538 0 
L 538 3500 
z
M 538 4863 
L 1656 4863 
L 1656 3950 
L 538 3950 
L 538 4863 
z
" transform="scale(0.015625)"/>
      <path id="DejaVuSans-Bold-6e" d="M 4056 2131 
L 4056 0 
L 2931 0 
L 2931 347 
L 2931 1631 
Q 2931 2084 2911 2256 
Q 2891 2428 2841 2509 
Q 2775 2619 2662 2680 
Q 2550 2741 2406 2741 
Q 2056 2741 1856 2470 
Q 1656 2200 1656 1722 
L 1656 0 
L 538 0 
L 538 3500 
L 1656 3500 
L 1656 2988 
Q 1909 3294 2193 3439 
Q 2478 3584 2822 3584 
Q 3428 3584 3742 3212 
Q 4056 2841 4056 2131 
z
" transform="scale(0.015625)"/>
     </defs>
     <use xlink:href="#DejaVuSans-Bold-62"/>
     <use xlink:href="#DejaVuSans-Bold-61" transform="translate(71.582031 0)"/>
     <use xlink:href="#DejaVuSans-Bold-73" transform="translate(139.0625 0)"/>
     <use xlink:href="#DejaVuSans-Bold-65" transform="translate(198.583984 0)"/>
     <use xlink:href="#DejaVuSans-Bold-6c" transform="translate(266.40625 0)"/>
     <use xlink:href="#DejaVuSans-Bold-69" transform="translate(300.683594 0)"/>
     <use xlink:href="#DejaVuSans-Bold-6e" transform="translate(334.960938 0)"/>
     <use xlink:href="#DejaVuSans-Bold-65" transform="translate(406.152344 0)"/>
    </g>
   </g>
  </g>
  <g id="axes_2">
   <g id="patch_29">
    <path d="M 322.914375 263.044 
L 589.29375 263.044 
L 589.29375 74.544 
L 322.914375 74.544 
z
" style="fill: #efefef"/>
   </g>
   <g id="matplotlib.axis_3">
    <g id="xtick_9">
     <g id="line2d_29">
      <path d="M 347.441147 263.044 
L 347.441147 74.544 
" clip-path="url(#p2790a6ecff)" style="fill: none; stroke: #cccccc; stroke-width: 0.8; stroke-linecap: round"/>
     </g>
     <g id="line2d_30"/>
     <g id="text_17">
      <!-- N=1 -->
      <g style="fill: #262626" transform="translate(338.551772 272.62275) scale(0.08 -0.08)">
       <use xlink:href="#DejaVuSans-4e"/>
       <use xlink:href="#DejaVuSans-3d" transform="translate(74.804688 0)"/>
       <use xlink:href="#DejaVuSans-31" transform="translate(158.59375 0)"/>
      </g>
     </g>
    </g>
    <g id="xtick_10">
     <g id="line2d_31">
      <path d="M 378.487694 263.044 
L 378.487694 74.544 
" clip-path="url(#p2790a6ecff)" style="fill: none; stroke: #cccccc; stroke-width: 0.8; stroke-linecap: round"/>
     </g>
     <g id="line2d_32"/>
     <g id="text_18">
      <!-- N=4 -->
      <g style="fill: #262626" transform="translate(369.598319 272.62275) scale(0.08 -0.08)">
       <use xlink:href="#DejaVuSans-4e"/>
       <use xlink:href="#DejaVuSans-3d" transform="translate(74.804688 0)"/>
       <use xlink:href="#DejaVuSans-34" transform="translate(158.59375 0)"/>
      </g>
     </g>
    </g>
    <g id="xtick_11">
     <g id="line2d_33">
      <path d="M 409.534242 263.044 
L 409.534242 74.544 
" clip-path="url(#p2790a6ecff)" style="fill: none; stroke: #cccccc; stroke-width: 0.8; stroke-linecap: round"/>
     </g>
     <g id="line2d_34"/>
     <g id="text_19">
      <!-- N=6 -->
      <g style="fill: #262626" transform="translate(400.644867 272.62275) scale(0.08 -0.08)">
       <use xlink:href="#DejaVuSans-4e"/>
       <use xlink:href="#DejaVuSans-3d" transform="translate(74.804688 0)"/>
       <use xlink:href="#DejaVuSans-36" transform="translate(158.59375 0)"/>
      </g>
     </g>
    </g>
    <g id="xtick_12">
     <g id="line2d_35">
      <path d="M 440.580789 263.044 
L 440.580789 74.544 
" clip-path="url(#p2790a6ecff)" style="fill: none; stroke: #cccccc; stroke-width: 0.8; stroke-linecap: round"/>
     </g>
     <g id="line2d_36"/>
     <g id="text_20">
      <!-- N=16 -->
      <g style="fill: #262626" transform="translate(429.146414 272.62275) scale(0.08 -0.08)">
       <use xlink:href="#DejaVuSans-4e"/>
       <use xlink:href="#DejaVuSans-3d" transform="translate(74.804688 0)"/>
       <use xlink:href="#DejaVuSans-31" transform="translate(158.59375 0)"/>
       <use xlink:href="#DejaVuSans-36" transform="translate(222.216797 0)"/>
      </g>
     </g>
    </g>
    <g id="xtick_13">
     <g id="line2d_37">
      <path d="M 471.627336 263.044 
L 471.627336 74.544 
" clip-path="url(#p2790a6ecff)" style="fill: none; stroke: #cccccc; stroke-width: 0.8; stroke-linecap: round"/>
     </g>
     <g id="line2d_38"/>
     <g id="text_21">
      <!-- N=32 -->
      <g style="fill: #262626" transform="translate(460.192961 272.62275) scale(0.08 -0.08)">
       <use xlink:href="#DejaVuSans-4e"/>
       <use xlink:href="#DejaVuSans-3d" transform="translate(74.804688 0)"/>
       <use xlink:href="#DejaVuSans-33" transform="translate(158.59375 0)"/>
       <use xlink:href="#DejaVuSans-32" transform="translate(222.216797 0)"/>
      </g>
     </g>
    </g>
    <g id="xtick_14">
     <g id="line2d_39">
      <path d="M 502.673883 263.044 
L 502.673883 74.544 
" clip-path="url(#p2790a6ecff)" style="fill: none; stroke: #cccccc; stroke-width: 0.8; stroke-linecap: round"/>
     </g>
     <g id="line2d_40"/>
     <g id="text_22">
      <!-- N=48 -->
      <g style="fill: #262626" transform="translate(491.239508 272.62275) scale(0.08 -0.08)">
       <use xlink:href="#DejaVuSans-4e"/>
       <use xlink:href="#DejaVuSans-3d" transform="translate(74.804688 0)"/>
       <use xlink:href="#DejaVuSans-34" transform="translate(158.59375 0)"/>
       <use xlink:href="#DejaVuSans-38" transform="translate(222.216797 0)"/>
      </g>
     </g>
    </g>
    <g id="xtick_15">
     <g id="line2d_41">
      <path d="M 533.720431 263.044 
L 533.720431 74.544 
" clip-path="url(#p2790a6ecff)" style="fill: none; stroke: #cccccc; stroke-width: 0.8; stroke-linecap: round"/>
     </g>
     <g id="line2d_42"/>
     <g id="text_23">
      <!-- N=56 -->
      <g style="fill: #262626" transform="translate(522.286056 272.62275) scale(0.08 -0.08)">
       <use xlink:href="#DejaVuSans-4e"/>
       <use xlink:href="#DejaVuSans-3d" transform="translate(74.804688 0)"/>
       <use xlink:href="#DejaVuSans-35" transform="translate(158.59375 0)"/>
       <use xlink:href="#DejaVuSans-36" transform="translate(222.216797 0)"/>
      </g>
     </g>
    </g>
    <g id="xtick_16">
     <g id="line2d_43">
      <path d="M 564.766978 263.044 
L 564.766978 74.544 
" clip-path="url(#p2790a6ecff)" style="fill: none; stroke: #cccccc; stroke-width: 0.8; stroke-linecap: round"/>
     </g>
     <g id="line2d_44"/>
     <g id="text_24">
      <!-- N=64 -->
      <g style="fill: #262626" transform="translate(553.332603 272.62275) scale(0.08 -0.08)">
       <use xlink:href="#DejaVuSans-4e"/>
       <use xlink:href="#DejaVuSans-3d" transform="translate(74.804688 0)"/>
       <use xlink:href="#DejaVuSans-36" transform="translate(158.59375 0)"/>
       <use xlink:href="#DejaVuSans-34" transform="translate(222.216797 0)"/>
      </g>
     </g>
    </g>
   </g>
   <g id="matplotlib.axis_4">
    <g id="ytick_7">
     <g id="line2d_45">
      <path d="M 322.914375 263.044 
L 589.29375 263.044 
" clip-path="url(#p2790a6ecff)" style="fill: none; stroke: #ffffff; stroke-width: 0.6; stroke-linecap: round"/>
     </g>
     <g id="line2d_46"/>
    </g>
    <g id="ytick_8">
     <g id="line2d_47">
      <path d="M 322.914375 227.139238 
L 589.29375 227.139238 
" clip-path="url(#p2790a6ecff)" style="fill: none; stroke: #ffffff; stroke-width: 0.6; stroke-linecap: round"/>
     </g>
     <g id="line2d_48"/>
    </g>
    <g id="ytick_9">
     <g id="line2d_49">
      <path d="M 322.914375 191.234476 
L 589.29375 191.234476 
" clip-path="url(#p2790a6ecff)" style="fill: none; stroke: #ffffff; stroke-width: 0.6; stroke-linecap: round"/>
     </g>
     <g id="line2d_50"/>
    </g>
    <g id="ytick_10">
     <g id="line2d_51">
      <path d="M 322.914375 155.329714 
L 589.29375 155.329714 
" clip-path="url(#p2790a6ecff)" style="fill: none; stroke: #ffffff; stroke-width: 0.6; stroke-linecap: round"/>
     </g>
     <g id="line2d_52"/>
    </g>
    <g id="ytick_11">
     <g id="line2d_53">
      <path d="M 322.914375 119.424952 
L 589.29375 119.424952 
" clip-path="url(#p2790a6ecff)" style="fill: none; stroke: #ffffff; stroke-width: 0.6; stroke-linecap: round"/>
     </g>
     <g id="line2d_54"/>
    </g>
    <g id="ytick_12">
     <g id="line2d_55">
      <path d="M 322.914375 83.52019 
L 589.29375 83.52019 
" clip-path="url(#p2790a6ecff)" style="fill: none; stroke: #ffffff; stroke-width: 0.6; stroke-linecap: round"/>
     </g>
     <g id="line2d_56"/>
    </g>
   </g>
   <g id="patch_30">
    <path d="M 322.914375 263.044 
L 322.914375 74.544 
" style="fill: none; stroke: #cccccc; stroke-linejoin: miter; stroke-linecap: square"/>
   </g>
   <g id="patch_31">
    <path d="M 322.914375 263.044 
L 589.29375 263.044 
" style="fill: none; stroke: #cccccc; stroke-linejoin: miter; stroke-linecap: square"/>
   </g>
   <g id="patch_32">
    <path d="M 335.022528 263.044 
L 359.859766 263.044 
L 359.859766 262.458403 
L 335.022528 262.458403 
z
" clip-path="url(#p2790a6ecff)" style="fill: #2563eb; stroke: #ffffff; stroke-width: 0.5; stroke-linejoin: miter"/>
   </g>
   <g id="patch_33">
    <path d="M 366.069076 263.044 
L 390.906313 263.044 
L 390.906313 262.435169 
L 366.069076 262.435169 
z
" clip-path="url(#p2790a6ecff)" style="fill: #2563eb; stroke: #ffffff; stroke-width: 0.5; stroke-linejoin: miter"/>
   </g>
   <g id="patch_34">
    <path d="M 397.115623 263.044 
L 421.952861 263.044 
L 421.952861 262.451202 
L 397.115623 262.451202 
z
" clip-path="url(#p2790a6ecff)" style="fill: #2563eb; stroke: #ffffff; stroke-width: 0.5; stroke-linejoin: miter"/>
   </g>
   <g id="patch_35">
    <path d="M 428.16217 263.044 
L 452.999408 263.044 
L 452.999408 262.526446 
L 428.16217 262.526446 
z
" clip-path="url(#p2790a6ecff)" style="fill: #2563eb; stroke: #ffffff; stroke-width: 0.5; stroke-linejoin: miter"/>
   </g>
   <g id="patch_36">
    <path d="M 459.208717 263.044 
L 484.045955 263.044 
L 484.045955 262.637234 
L 459.208717 262.637234 
z
" clip-path="url(#p2790a6ecff)" style="fill: #2563eb; stroke: #ffffff; stroke-width: 0.5; stroke-linejoin: miter"/>
   </g>
   <g id="patch_37">
    <path d="M 490.255264 263.044 
L 515.092502 263.044 
L 515.092502 262.698248 
L 490.255264 262.698248 
z
" clip-path="url(#p2790a6ecff)" style="fill: #2563eb; stroke: #ffffff; stroke-width: 0.5; stroke-linejoin: miter"/>
   </g>
   <g id="patch_38">
    <path d="M 521.301812 263.044 
L 546.139049 263.044 
L 546.139049 262.725251 
L 521.301812 262.725251 
z
" clip-path="url(#p2790a6ecff)" style="fill: #2563eb; stroke: #ffffff; stroke-width: 0.5; stroke-linejoin: miter"/>
   </g>
   <g id="patch_39">
    <path d="M 552.348359 263.044 
L 577.185597 263.044 
L 577.185597 262.746549 
L 552.348359 262.746549 
z
" clip-path="url(#p2790a6ecff)" style="fill: #2563eb; stroke: #ffffff; stroke-width: 0.5; stroke-linejoin: miter"/>
   </g>
   <g id="patch_40">
    <path d="M 335.022528 262.458403 
L 359.859766 262.458403 
L 359.859766 262.458403 
L 335.022528 262.458403 
z
" clip-path="url(#p2790a6ecff)" style="fill: #16a34a; stroke: #ffffff; stroke-width: 0.5; stroke-linejoin: miter"/>
   </g>
   <g id="patch_41">
    <path d="M 366.069076 262.435169 
L 390.906313 262.435169 
L 390.906313 262.435169 
L 366.069076 262.435169 
z
" clip-path="url(#p2790a6ecff)" style="fill: #16a34a; stroke: #ffffff; stroke-width: 0.5; stroke-linejoin: miter"/>
   </g>
   <g id="patch_42">
    <path d="M 397.115623 262.451202 
L 421.952861 262.451202 
L 421.952861 262.451202 
L 397.115623 262.451202 
z
" clip-path="url(#p2790a6ecff)" style="fill: #16a34a; stroke: #ffffff; stroke-width: 0.5; stroke-linejoin: miter"/>
   </g>
   <g id="patch_43">
    <path d="M 428.16217 262.526446 
L 452.999408 262.526446 
L 452.999408 262.526446 
L 428.16217 262.526446 
z
" clip-path="url(#p2790a6ecff)" style="fill: #16a34a; stroke: #ffffff; stroke-width: 0.5; stroke-linejoin: miter"/>
   </g>
   <g id="patch_44">
    <path d="M 459.208717 262.637234 
L 484.045955 262.637234 
L 484.045955 262.637234 
L 459.208717 262.637234 
z
" clip-path="url(#p2790a6ecff)" style="fill: #16a34a; stroke: #ffffff; stroke-width: 0.5; stroke-linejoin: miter"/>
   </g>
   <g id="patch_45">
    <path d="M 490.255264 262.698248 
L 515.092502 262.698248 
L 515.092502 262.698248 
L 490.255264 262.698248 
z
" clip-path="url(#p2790a6ecff)" style="fill: #16a34a; stroke: #ffffff; stroke-width: 0.5; stroke-linejoin: miter"/>
   </g>
   <g id="patch_46">
    <path d="M 521.301812 262.725251 
L 546.139049 262.725251 
L 546.139049 262.725251 
L 521.301812 262.725251 
z
" clip-path="url(#p2790a6ecff)" style="fill: #16a34a; stroke: #ffffff; stroke-width: 0.5; stroke-linejoin: miter"/>
   </g>
   <g id="patch_47">
    <path d="M 552.348359 262.746549 
L 577.185597 262.746549 
L 577.185597 262.746549 
L 552.348359 262.746549 
z
" clip-path="url(#p2790a6ecff)" style="fill: #16a34a; stroke: #ffffff; stroke-width: 0.5; stroke-linejoin: miter"/>
   </g>
   <g id="patch_48">
    <path d="M 335.022528 262.458403 
L 359.859766 262.458403 
L 359.859766 83.52019 
L 335.022528 83.52019 
z
" clip-path="url(#p2790a6ecff)" style="fill: #ea580c; stroke: #ffffff; stroke-width: 0.5; stroke-linejoin: miter"/>
   </g>
   <g id="patch_49">
    <path d="M 366.069076 262.435169 
L 390.906313 262.435169 
L 390.906313 83.52019 
L 366.069076 83.52019 
z
" clip-path="url(#p2790a6ecff)" style="fill: #ea580c; stroke: #ffffff; stroke-width: 0.5; stroke-linejoin: miter"/>
   </g>
   <g id="patch_50">
    <path d="M 397.115623 262.451202 
L 421.952861 262.451202 
L 421.952861 83.52019 
L 397.115623 83.52019 
z
" clip-path="url(#p2790a6ecff)" style="fill: #ea580c; stroke: #ffffff; stroke-width: 0.5; stroke-linejoin: miter"/>
   </g>
   <g id="patch_51">
    <path d="M 428.16217 262.526446 
L 452.999408 262.526446 
L 452.999408 83.52019 
L 428.16217 83.52019 
z
" clip-path="url(#p2790a6ecff)" style="fill: #ea580c; stroke: #ffffff; stroke-width: 0.5; stroke-linejoin: miter"/>
   </g>
   <g id="patch_52">
    <path d="M 459.208717 262.637234 
L 484.045955 262.637234 
L 484.045955 83.52019 
L 459.208717 83.52019 
z
" clip-path="url(#p2790a6ecff)" style="fill: #ea580c; stroke: #ffffff; stroke-width: 0.5; stroke-linejoin: miter"/>
   </g>
   <g id="patch_53">
    <path d="M 490.255264 262.698248 
L 515.092502 262.698248 
L 515.092502 83.52019 
L 490.255264 83.52019 
z
" clip-path="url(#p2790a6ecff)" style="fill: #ea580c; stroke: #ffffff; stroke-width: 0.5; stroke-linejoin: miter"/>
   </g>
   <g id="patch_54">
    <path d="M 521.301812 262.725251 
L 546.139049 262.725251 
L 546.139049 83.52019 
L 521.301812 83.52019 
z
" clip-path="url(#p2790a6ecff)" style="fill: #ea580c; stroke: #ffffff; stroke-width: 0.5; stroke-linejoin: miter"/>
   </g>
   <g id="patch_55">
    <path d="M 552.348359 262.746549 
L 577.185597 262.746549 
L 577.185597 83.52019 
L 552.348359 83.52019 
z
" clip-path="url(#p2790a6ecff)" style="fill: #ea580c; stroke: #ffffff; stroke-width: 0.5; stroke-linejoin: miter"/>
   </g>
   <g id="text_25">
    <!-- ezgatr -->
    <g style="fill: #8b0000" transform="translate(436.182891 68.544) scale(0.11 -0.11)">
     <defs>
      <path id="DejaVuSans-Bold-7a" d="M 366 3500 
L 3419 3500 
L 3419 2719 
L 1575 800 
L 3419 800 
L 3419 0 
L 288 0 
L 288 781 
L 2131 2700 
L 366 2700 
L 366 3500 
z
" transform="scale(0.015625)"/>
      <path id="DejaVuSans-Bold-67" d="M 2919 594 
Q 2688 288 2409 144 
Q 2131 0 1766 0 
Q 1125 0 706 504 
Q 288 1009 288 1791 
Q 288 2575 706 3076 
Q 1125 3578 1766 3578 
Q 2131 3578 2409 3434 
Q 2688 3291 2919 2981 
L 2919 3500 
L 4044 3500 
L 4044 353 
Q 4044 -491 3511 -936 
Q 2978 -1381 1966 -1381 
Q 1638 -1381 1331 -1331 
Q 1025 -1281 716 -1178 
L 716 -306 
Q 1009 -475 1290 -558 
Q 1572 -641 1856 -641 
Q 2406 -641 2662 -400 
Q 2919 -159 2919 353 
L 2919 594 
z
M 2181 2772 
Q 1834 2772 1640 2515 
Q 1447 2259 1447 1791 
Q 1447 1309 1634 1061 
Q 1822 813 2181 813 
Q 2531 813 2725 1069 
Q 2919 1325 2919 1791 
Q 2919 2259 2725 2515 
Q 2531 2772 2181 2772 
z
" transform="scale(0.015625)"/>
      <path id="DejaVuSans-Bold-74" d="M 1759 4494 
L 1759 3500 
L 2913 3500 
L 2913 2700 
L 1759 2700 
L 1759 1216 
Q 1759 972 1856 886 
Q 1953 800 2241 800 
L 2816 800 
L 2816 0 
L 1856 0 
Q 1194 0 917 276 
Q 641 553 641 1216 
L 641 2700 
L 84 2700 
L 84 3500 
L 641 3500 
L 641 4494 
L 1759 4494 
z
" transform="scale(0.015625)"/>
      <path id="DejaVuSans-Bold-72" d="M 3138 2547 
Q 2991 2616 2845 2648 
Q 2700 2681 2553 2681 
Q 2122 2681 1889 2404 
Q 1656 2128 1656 1613 
L 1656 0 
L 538 0 
L 538 3500 
L 1656 3500 
L 1656 2925 
Q 1872 3269 2151 3426 
Q 2431 3584 2822 3584 
Q 2878 3584 2943 3579 
Q 3009 3575 3134 3559 
L 3138 2547 
z
" transform="scale(0.015625)"/>
     </defs>
     <use xlink:href="#DejaVuSans-Bold-65"/>
     <use xlink:href="#DejaVuSans-Bold-7a" transform="translate(67.822266 0)"/>
     <use xlink:href="#DejaVuSans-Bold-67" transform="translate(126.025391 0)"/>
     <use xlink:href="#DejaVuSans-Bold-61" transform="translate(197.607422 0)"/>
     <use xlink:href="#DejaVuSans-Bold-74" transform="translate(265.087891 0)"/>
     <use xlink:href="#DejaVuSans-Bold-72" transform="translate(312.890625 0)"/>
    </g>
   </g>
  </g>
  <g id="text_26">
   <!-- FLOP source breakdown - Intel Core 7 240H (P-core, 2.5GHz) -->
   <g style="fill: #262626" transform="translate(92.96625 16.318125) scale(0.12 -0.12)">
    <defs>
     <path id="DejaVuSans-Bold-46" d="M 588 4666 
L 3834 4666 
L 3834 3756 
L 1791 3756 
L 1791 2888 
L 3713 2888 
L 3713 1978 
L 1791 1978 
L 1791 0 
L 588 0 
L 588 4666 
z
" transform="scale(0.015625)"/>
     <path id="DejaVuSans-Bold-4c" d="M 588 4666 
L 1791 4666 
L 1791 909 
L 3903 909 
L 3903 0 
L 588 0 
L 588 4666 
z
" transform="scale(0.015625)"/>
     <path id="DejaVuSans-Bold-4f" d="M 2719 3878 
Q 2169 3878 1866 3472 
Q 1563 3066 1563 2328 
Q 1563 1594 1866 1187 
Q 2169 781 2719 781 
Q 3272 781 3575 1187 
Q 3878 1594 3878 2328 
Q 3878 3066 3575 3472 
Q 3272 3878 2719 3878 
z
M 2719 4750 
Q 3844 4750 4481 4106 
Q 5119 3463 5119 2328 
Q 5119 1197 4481 553 
Q 3844 -91 2719 -91 
Q 1597 -91 958 553 
Q 319 1197 319 2328 
Q 319 3463 958 4106 
Q 1597 4750 2719 4750 
z
" transform="scale(0.015625)"/>
     <path id="DejaVuSans-Bold-50" d="M 588 4666 
L 2584 4666 
Q 3475 4666 3951 4270 
Q 4428 3875 4428 3144 
Q 4428 2409 3951 2014 
Q 3475 1619 2584 1619 
L 1791 1619 
L 1791 0 
L 588 0 
L 588 4666 
z
M 1791 3794 
L 1791 2491 
L 2456 2491 
Q 2806 2491 2997 2661 
Q 3188 2831 3188 3144 
Q 3188 3456 2997 3625 
Q 2806 3794 2456 3794 
L 1791 3794 
z
" transform="scale(0.015625)"/>
     <path id="DejaVuSans-Bold-20" transform="scale(0.015625)"/>
     <path id="DejaVuSans-Bold-6f" d="M 2203 2784 
Q 1831 2784 1636 2517 
Q 1441 2250 1441 1747 
Q 1441 1244 1636 976 
Q 1831 709 2203 709 
Q 2569 709 2762 976 
Q 2956 1244 2956 1747 
Q 2956 2250 2762 2517 
Q 2569 2784 2203 2784 
z
M 2203 3584 
Q 3106 3584 3614 3096 
Q 4122 2609 4122 1747 
Q 4122 884 3614 396 
Q 3106 -91 2203 -91 
Q 1297 -91 786 396 
Q 275 884 275 1747 
Q 275 2609 786 3096 
Q 1297 3584 2203 3584 
z
" transform="scale(0.015625)"/>
     <path id="DejaVuSans-Bold-75" d="M 500 1363 
L 500 3500 
L 1625 3500 
L 1625 3150 
Q 1625 2866 1622 2436 
Q 1619 2006 1619 1863 
Q 1619 1441 1641 1255 
Q 1663 1069 1716 984 
Q 1784 875 1895 815 
Q 2006 756 2150 756 
Q 2500 756 2700 1025 
Q 2900 1294 2900 1772 
L 2900 3500 
L 4019 3500 
L 4019 0 
L 2900 0 
L 2900 506 
Q 2647 200 2364 54 
Q 2081 -91 1741 -91 
Q 1134 -91 817 281 
Q 500 653 500 1363 
z
" transform="scale(0.015625)"/>
     <path id="DejaVuSans-Bold-63" d="M 3366 3391 
L 3366 2478 
Q 3138 2634 2908 2709 
Q 2678 2784 2431 2784 
Q 1963 2784 1702 2511 
Q 1441 2238 1441 1747 
Q 1441 1256 1702 982 
Q 1963 709 2431 709 
Q 2694 709 2930 787 
Q 3166 866 3366 1019 
L 3366 103 
Q 3103 6 2833 -42 
Q 2563 -91 2291 -91 
Q 1344 -91 809 395 
Q 275 881 275 1747 
Q 275 2613 809 3098 
Q 1344 3584 2291 3584 
Q 2566 3584 2833 3536 
Q 3100 3488 3366 3391 
z
" transform="scale(0.015625)"/>
     <path id="DejaVuSans-Bold-6b" d="M 538 4863 
L 1656 4863 
L 1656 2216 
L 2944 3500 
L 4244 3500 
L 2534 1894 
L 4378 0 
L 3022 0 
L 1656 1459 
L 1656 0 
L 538 0 
L 538 4863 
z
" transform="scale(0.015625)"/>
     <path id="DejaVuSans-Bold-64" d="M 2919 2988 
L 2919 4863 
L 4044 4863 
L 4044 0 
L 2919 0 
L 2919 506 
Q 2688 197 2409 53 
Q 2131 -91 1766 -91 
Q 1119 -91 703 423 
Q 288 938 288 1747 
Q 288 2556 703 3070 
Q 1119 3584 1766 3584 
Q 2128 3584 2408 3439 
Q 2688 3294 2919 2988 
z
M 2181 722 
Q 2541 722 2730 984 
Q 2919 1247 2919 1747 
Q 2919 2247 2730 2509 
Q 2541 2772 2181 2772 
Q 1825 2772 1636 2509 
Q 1447 2247 1447 1747 
Q 1447 1247 1636 984 
Q 1825 722 2181 722 
z
" transform="scale(0.015625)"/>
     <path id="DejaVuSans-Bold-77" d="M 225 3500 
L 1313 3500 
L 1900 1088 
L 2491 3500 
L 3425 3500 
L 4013 1113 
L 4603 3500 
L 5691 3500 
L 4769 0 
L 3547 0 
L 2956 2406 
L 2369 0 
L 1147 0 
L 225 3500 
z
" transform="scale(0.015625)"/>
     <path id="DejaVuSans-Bold-2d" d="M 347 2297 
L 2309 2297 
L 2309 1388 
L 347 1388 
L 347 2297 
z
" transform="scale(0.015625)"/>
     <path id="DejaVuSans-Bold-49" d="M 588 4666 
L 1791 4666 
L 1791 0 
L 588 0 
L 588 4666 
z
" transform="scale(0.015625)"/>
     <path id="DejaVuSans-Bold-43" d="M 4288 256 
Q 3956 84 3597 -3 
Q 3238 -91 2847 -91 
Q 1681 -91 1000 561 
Q 319 1213 319 2328 
Q 319 3447 1000 4098 
Q 1681 4750 2847 4750 
Q 3238 4750 3597 4662 
Q 3956 4575 4288 4403 
L 4288 3438 
Q 3953 3666 3628 3772 
Q 3303 3878 2944 3878 
Q 2300 3878 1931 3465 
Q 1563 3053 1563 2328 
Q 1563 1606 1931 1193 
Q 2300 781 2944 781 
Q 3303 781 3628 887 
Q 3953 994 4288 1222 
L 4288 256 
z
" transform="scale(0.015625)"/>
     <path id="DejaVuSans-Bold-37" d="M 428 4666 
L 3944 4666 
L 3944 3988 
L 2125 0 
L 953 0 
L 2675 3781 
L 428 3781 
L 428 4666 
z
" transform="scale(0.015625)"/>
     <path id="DejaVuSans-Bold-32" d="M 1844 884 
L 3897 884 
L 3897 0 
L 506 0 
L 506 884 
L 2209 2388 
Q 2438 2594 2547 2791 
Q 2656 2988 2656 3200 
Q 2656 3528 2436 3728 
Q 2216 3928 1850 3928 
Q 1569 3928 1234 3808 
Q 900 3688 519 3450 
L 519 4475 
Q 925 4609 1322 4679 
Q 1719 4750 2100 4750 
Q 2938 4750 3402 4381 
Q 3866 4013 3866 3353 
Q 3866 2972 3669 2642 
Q 3472 2313 2841 1759 
L 1844 884 
z
" transform="scale(0.015625)"/>
     <path id="DejaVuSans-Bold-34" d="M 2356 3675 
L 1038 1722 
L 2356 1722 
L 2356 3675 
z
M 2156 4666 
L 3494 4666 
L 3494 1722 
L 4159 1722 
L 4159 850 
L 3494 850 
L 3494 0 
L 2356 0 
L 2356 850 
L 288 850 
L 288 1881 
L 2156 4666 
z
" transform="scale(0.015625)"/>
     <path id="DejaVuSans-Bold-30" d="M 2944 2338 
Q 2944 3213 2780 3570 
Q 2616 3928 2228 3928 
Q 1841 3928 1675 3570 
Q 1509 3213 1509 2338 
Q 1509 1453 1675 1090 
Q 1841 728 2228 728 
Q 2613 728 2778 1090 
Q 2944 1453 2944 2338 
z
M 4147 2328 
Q 4147 1169 3647 539 
Q 3147 -91 2228 -91 
Q 1306 -91 806 539 
Q 306 1169 306 2328 
Q 306 3491 806 4120 
Q 1306 4750 2228 4750 
Q 3147 4750 3647 4120 
Q 4147 3491 4147 2328 
z
" transform="scale(0.015625)"/>
     <path id="DejaVuSans-Bold-48" d="M 588 4666 
L 1791 4666 
L 1791 2888 
L 3566 2888 
L 3566 4666 
L 4769 4666 
L 4769 0 
L 3566 0 
L 3566 1978 
L 1791 1978 
L 1791 0 
L 588 0 
L 588 4666 
z
" transform="scale(0.015625)"/>
     <path id="DejaVuSans-Bold-28" d="M 2413 -844 
L 1484 -844 
Q 1006 -72 778 623 
Q 550 1319 550 2003 
Q 550 2688 779 3389 
Q 1009 4091 1484 4856 
L 2413 4856 
Q 2013 4116 1813 3408 
Q 1613 2700 1613 2009 
Q 1613 1319 1811 609 
Q 2009 -100 2413 -844 
z
" transform="scale(0.015625)"/>
     <path id="DejaVuSans-Bold-2c" d="M 653 1209 
L 1778 1209 
L 1778 256 
L 1006 -909 
L 341 -909 
L 653 256 
L 653 1209 
z
" transform="scale(0.015625)"/>
     <path id="DejaVuSans-Bold-2e" d="M 653 1209 
L 1778 1209 
L 1778 0 
L 653 0 
L 653 1209 
z
" transform="scale(0.015625)"/>
     <path id="DejaVuSans-Bold-35" d="M 678 4666 
L 3669 4666 
L 3669 3781 
L 1638 3781 
L 1638 3059 
Q 1775 3097 1914 3117 
Q 2053 3138 2203 3138 
Q 3056 3138 3531 2711 
Q 4006 2284 4006 1522 
Q 4006 766 3489 337 
Q 2972 -91 2053 -91 
Q 1656 -91 1267 -14 
Q 878 63 494 219 
L 494 1166 
Q 875 947 1217 837 
Q 1559 728 1863 728 
Q 2300 728 2551 942 
Q 2803 1156 2803 1522 
Q 2803 1891 2551 2103 
Q 2300 2316 1863 2316 
Q 1603 2316 1309 2248 
Q 1016 2181 678 2041 
L 678 4666 
z
" transform="scale(0.015625)"/>
     <path id="DejaVuSans-Bold-47" d="M 4781 347 
Q 4331 128 3847 18 
Q 3363 -91 2847 -91 
Q 1681 -91 1000 561 
Q 319 1213 319 2328 
Q 319 3456 1012 4103 
Q 1706 4750 2913 4750 
Q 3378 4750 3804 4662 
Q 4231 4575 4609 4403 
L 4609 3438 
Q 4219 3659 3833 3768 
Q 3447 3878 3059 3878 
Q 2341 3878 1952 3476 
Q 1563 3075 1563 2328 
Q 1563 1588 1938 1184 
Q 2313 781 3003 781 
Q 3191 781 3352 804 
Q 3513 828 3641 878 
L 3641 1784 
L 2906 1784 
L 2906 2591 
L 4781 2591 
L 4781 347 
z
" transform="scale(0.015625)"/>
     <path id="DejaVuSans-Bold-29" d="M 513 -844 
Q 913 -100 1113 609 
Q 1313 1319 1313 2009 
Q 1313 2700 1113 3408 
Q 913 4116 513 4856 
L 1441 4856 
Q 1916 4091 2145 3389 
Q 2375 2688 2375 2003 
Q 2375 1319 2147 623 
Q 1919 -72 1441 -844 
L 513 -844 
z
" transform="scale(0.015625)"/>
    </defs>
    <use xlink:href="#DejaVuSans-Bold-46"/>
    <use xlink:href="#DejaVuSans-Bold-4c" transform="translate(68.310547 0)"/>
    <use xlink:href="#DejaVuSans-Bold-4f" transform="translate(128.40625 0)"/>
    <use xlink:href="#DejaVuSans-Bold-50" transform="translate(213.416016 0)"/>
    <use xlink:href="#DejaVuSans-Bold-20" transform="translate(286.707031 0)"/>
    <use xlink:href="#DejaVuSans-Bold-73" transform="translate(321.521484 0)"/>
    <use xlink:href="#DejaVuSans-Bold-6f" transform="translate(381.042969 0)"/>
    <use xlink:href="#DejaVuSans-Bold-75" transform="translate(449.744141 0)"/>
    <use xlink:href="#DejaVuSans-Bold-72" transform="translate(520.935547 0)"/>
    <use xlink:href="#DejaVuSans-Bold-63" transform="translate(570.251953 0)"/>
    <use xlink:href="#DejaVuSans-Bold-65" transform="translate(629.529297 0)"/>
    <use xlink:href="#DejaVuSans-Bold-20" transform="translate(697.351562 0)"/>
    <use xlink:href="#DejaVuSans-Bold-62" transform="translate(732.166016 0)"/>
    <use xlink:href="#DejaVuSans-Bold-72" transform="translate(803.748047 0)"/>
    <use xlink:href="#DejaVuSans-Bold-65" transform="translate(853.064453 0)"/>
    <use xlink:href="#DejaVuSans-Bold-61" transform="translate(920.886719 0)"/>
    <use xlink:href="#DejaVuSans-Bold-6b" transform="translate(988.367188 0)"/>
    <use xlink:href="#DejaVuSans-Bold-64" transform="translate(1054.871094 0)"/>
    <use xlink:href="#DejaVuSans-Bold-6f" transform="translate(1126.453125 0)"/>
    <use xlink:href="#DejaVuSans-Bold-77" transform="translate(1195.154297 0)"/>
    <use xlink:href="#DejaVuSans-Bold-6e" transform="translate(1287.537109 0)"/>
    <use xlink:href="#DejaVuSans-Bold-20" transform="translate(1358.728516 0)"/>
    <use xlink:href="#DejaVuSans-Bold-2d" transform="translate(1393.542969 0)"/>
    <use xlink:href="#DejaVuSans-Bold-20" transform="translate(1435.046875 0)"/>
    <use xlink:href="#DejaVuSans-Bold-49" transform="translate(1469.861328 0)"/>
    <use xlink:href="#DejaVuSans-Bold-6e" transform="translate(1507.068359 0)"/>
    <use xlink:href="#DejaVuSans-Bold-74" transform="translate(1578.259766 0)"/>
    <use xlink:href="#DejaVuSans-Bold-65" transform="translate(1626.0625 0)"/>
    <use xlink:href="#DejaVuSans-Bold-6c" transform="translate(1693.884766 0)"/>
    <use xlink:href="#DejaVuSans-Bold-20" transform="translate(1728.162109 0)"/>
    <use xlink:href="#DejaVuSans-Bold-43" transform="translate(1762.976562 0)"/>
    <use xlink:href="#DejaVuSans-Bold-6f" transform="translate(1836.365234 0)"/>
    <use xlink:href="#DejaVuSans-Bold-72" transform="translate(1905.066406 0)"/>
    <use xlink:href="#DejaVuSans-Bold-65" transform="translate(1954.382812 0)"/>
    <use xlink:href="#DejaVuSans-Bold-20" transform="translate(2022.205078 0)"/>
    <use xlink:href="#DejaVuSans-Bold-37" transform="translate(2057.019531 0)"/>
    <use xlink:href="#DejaVuSans-Bold-20" transform="translate(2126.599609 0)"/>
    <use xlink:href="#DejaVuSans-Bold-32" transform="translate(2161.414062 0)"/>
    <use xlink:href="#DejaVuSans-Bold-34" transform="translate(2230.994141 0)"/>
    <use xlink:href="#DejaVuSans-Bold-30" transform="translate(2300.574219 0)"/>
    <use xlink:href="#DejaVuSans-Bold-48" transform="translate(2370.154297 0)"/>
    <use xlink:href="#DejaVuSans-Bold-20" transform="translate(2453.845703 0)"/>
    <use xlink:href="#DejaVuSans-Bold-28" transform="translate(2488.660156 0)"/>
    <use xlink:href="#DejaVuSans-Bold-50" transform="translate(2534.363281 0)"/>
    <use xlink:href="#DejaVuSans-Bold-2d" transform="translate(2605.904297 0)"/>
    <use xlink:href="#DejaVuSans-Bold-63" transform="translate(2647.408203 0)"/>
    <use xlink:href="#DejaVuSans-Bold-6f" transform="translate(2706.685547 0)"/>
    <use xlink:href="#DejaVuSans-Bold-72" transform="translate(2775.386719 0)"/>
    <use xlink:href="#DejaVuSans-Bold-65" transform="translate(2824.703125 0)"/>
    <use xlink:href="#DejaVuSans-Bold-2c" transform="translate(2892.525391 0)"/>
    <use xlink:href="#DejaVuSans-Bold-20" transform="translate(2930.513672 0)"/>
    <use xlink:href="#DejaVuSans-Bold-32" transform="translate(2965.328125 0)"/>
    <use xlink:href="#DejaVuSans-Bold-2e" transform="translate(3034.908203 0)"/>
    <use xlink:href="#DejaVuSans-Bold-35" transform="translate(3072.896484 0)"/>
    <use xlink:href="#DejaVuSans-Bold-47" transform="translate(3142.476562 0)"/>
    <use xlink:href="#DejaVuSans-Bold-48" transform="translate(3224.556641 0)"/>
    <use xlink:href="#DejaVuSans-Bold-7a" transform="translate(3308.248047 0)"/>
    <use xlink:href="#DejaVuSans-Bold-29" transform="translate(3366.451172 0)"/>
   </g>
  </g>
  <g id="legend_1">
   <g id="patch_56">
    <path d="M 138.988594 35.098594 
L 156.988594 35.098594 
L 156.988594 28.798594 
L 138.988594 28.798594 
z
" style="fill: #2563eb; stroke: #ffffff; stroke-width: 0.5; stroke-linejoin: miter"/>
   </g>
   <g id="text_27">
    <!-- scalar (x1) -->
    <g style="fill: #262626" transform="translate(164.188594 35.098594) scale(0.09 -0.09)">
     <defs>
      <path id="DejaVuSans-61" d="M 2194 1759 
Q 1497 1759 1228 1600 
Q 959 1441 959 1056 
Q 959 750 1161 570 
Q 1363 391 1709 391 
Q 2188 391 2477 730 
Q 2766 1069 2766 1631 
L 2766 1759 
L 2194 1759 
z
M 3341 1997 
L 3341 0 
L 2766 0 
L 2766 531 
Q 2569 213 2275 61 
Q 1981 -91 1556 -91 
Q 1019 -91 701 211 
Q 384 513 384 1019 
Q 384 1609 779 1909 
Q 1175 2209 1959 2209 
L 2766 2209 
L 2766 2266 
Q 2766 2663 2505 2880 
Q 2244 3097 1772 3097 
Q 1472 3097 1187 3025 
Q 903 2953 641 2809 
L 641 3341 
Q 956 3463 1253 3523 
Q 1550 3584 1831 3584 
Q 2591 3584 2966 3190 
Q 3341 2797 3341 1997 
z
" transform="scale(0.015625)"/>
      <path id="DejaVuSans-72" d="M 2631 2963 
Q 2534 3019 2420 3045 
Q 2306 3072 2169 3072 
Q 1681 3072 1420 2755 
Q 1159 2438 1159 1844 
L 1159 0 
L 581 0 
L 581 3500 
L 1159 3500 
L 1159 2956 
Q 1341 3275 1631 3429 
Q 1922 3584 2338 3584 
Q 2397 3584 2469 3576 
Q 2541 3569 2628 3553 
L 2631 2963 
z
" transform="scale(0.015625)"/>
      <path id="DejaVuSans-28" d="M 1984 4856 
Q 1566 4138 1362 3434 
Q 1159 2731 1159 2009 
Q 1159 1288 1364 580 
Q 1569 -128 1984 -844 
L 1484 -844 
Q 1016 -109 783 600 
Q 550 1309 550 2009 
Q 550 2706 781 3412 
Q 1013 4119 1484 4856 
L 1984 4856 
z
" transform="scale(0.015625)"/>
      <path id="DejaVuSans-78" d="M 3513 3500 
L 2247 1797 
L 3578 0 
L 2900 0 
L 1881 1375 
L 863 0 
L 184 0 
L 1544 1831 
L 300 3500 
L 978 3500 
L 1906 2253 
L 2834 3500 
L 3513 3500 
z
" transform="scale(0.015625)"/>
      <path id="DejaVuSans-29" d="M 513 4856 
L 1013 4856 
Q 1481 4119 1714 3412 
Q 1947 2706 1947 2009 
Q 1947 1309 1714 600 
Q 1481 -109 1013 -844 
L 513 -844 
Q 928 -128 1133 580 
Q 1338 1288 1338 2009 
Q 1338 2731 1133 3434 
Q 928 4138 513 4856 
z
" transform="scale(0.015625)"/>
     </defs>
     <use xlink:href="#DejaVuSans-73"/>
     <use xlink:href="#DejaVuSans-63" transform="translate(52.099609 0)"/>
     <use xlink:href="#DejaVuSans-61" transform="translate(107.080078 0)"/>
     <use xlink:href="#DejaVuSans-6c" transform="translate(168.359375 0)"/>
     <use xlink:href="#DejaVuSans-61" transform="translate(196.142578 0)"/>
     <use xlink:href="#DejaVuSans-72" transform="translate(257.421875 0)"/>
     <use xlink:href="#DejaVuSans-20" transform="translate(298.535156 0)"/>
     <use xlink:href="#DejaVuSans-28" transform="translate(330.322266 0)"/>
     <use xlink:href="#DejaVuSans-78" transform="translate(369.335938 0)"/>
     <use xlink:href="#DejaVuSans-31" transform="translate(428.515625 0)"/>
     <use xlink:href="#DejaVuSans-29" transform="translate(492.138672 0)"/>
    </g>
   </g>
   <g id="patch_57">
    <path d="M 229.992656 35.098594 
L 247.992656 35.098594 
L 247.992656 28.798594 
L 229.992656 28.798594 
z
" style="fill: #16a34a; stroke: #ffffff; stroke-width: 0.5; stroke-linejoin: miter"/>
   </g>
   <g id="text_28">
    <!-- 128b packed (x4) -->
    <g style="fill: #262626" transform="translate(255.192656 35.098594) scale(0.09 -0.09)">
     <defs>
      <path id="DejaVuSans-62" d="M 3116 1747 
Q 3116 2381 2855 2742 
Q 2594 3103 2138 3103 
Q 1681 3103 1420 2742 
Q 1159 2381 1159 1747 
Q 1159 1113 1420 752 
Q 1681 391 2138 391 
Q 2594 391 2855 752 
Q 3116 1113 3116 1747 
z
M 1159 2969 
Q 1341 3281 1617 3432 
Q 1894 3584 2278 3584 
Q 2916 3584 3314 3078 
Q 3713 2572 3713 1747 
Q 3713 922 3314 415 
Q 2916 -91 2278 -91 
Q 1894 -91 1617 61 
Q 1341 213 1159 525 
L 1159 0 
L 581 0 
L 581 4863 
L 1159 4863 
L 1159 2969 
z
" transform="scale(0.015625)"/>
      <path id="DejaVuSans-6b" d="M 581 4863 
L 1159 4863 
L 1159 1991 
L 2875 3500 
L 3609 3500 
L 1753 1863 
L 3688 0 
L 2938 0 
L 1159 1709 
L 1159 0 
L 581 0 
L 581 4863 
z
" transform="scale(0.015625)"/>
      <path id="DejaVuSans-65" d="M 3597 1894 
L 3597 1613 
L 953 1613 
Q 991 1019 1311 708 
Q 1631 397 2203 397 
Q 2534 397 2845 478 
Q 3156 559 3463 722 
L 3463 178 
Q 3153 47 2828 -22 
Q 2503 -91 2169 -91 
Q 1331 -91 842 396 
Q 353 884 353 1716 
Q 353 2575 817 3079 
Q 1281 3584 2069 3584 
Q 2775 3584 3186 3129 
Q 3597 2675 3597 1894 
z
M 3022 2063 
Q 3016 2534 2758 2815 
Q 2500 3097 2075 3097 
Q 1594 3097 1305 2825 
Q 1016 2553 972 2059 
L 3022 2063 
z
" transform="scale(0.015625)"/>
      <path id="DejaVuSans-64" d="M 2906 2969 
L 2906 4863 
L 3481 4863 
L 3481 0 
L 2906 0 
L 2906 525 
Q 2725 213 2448 61 
Q 2172 -91 1784 -91 
Q 1150 -91 751 415 
Q 353 922 353 1747 
Q 353 2572 751 3078 
Q 1150 3584 1784 3584 
Q 2172 3584 2448 3432 
Q 2725 3281 2906 2969 
z
M 947 1747 
Q 947 1113 1208 752 
Q 1469 391 1925 391 
Q 2381 391 2643 752 
Q 2906 1113 2906 1747 
Q 2906 2381 2643 2742 
Q 2381 3103 1925 3103 
Q 1469 3103 1208 2742 
Q 947 2381 947 1747 
z
" transform="scale(0.015625)"/>
     </defs>
     <use xlink:href="#DejaVuSans-31"/>
     <use xlink:href="#DejaVuSans-32" transform="translate(63.623047 0)"/>
     <use xlink:href="#DejaVuSans-38" transform="translate(127.246094 0)"/>
     <use xlink:href="#DejaVuSans-62" transform="translate(190.869141 0)"/>
     <use xlink:href="#DejaVuSans-20" transform="translate(254.345703 0)"/>
     <use xlink:href="#DejaVuSans-70" transform="translate(286.132812 0)"/>
     <use xlink:href="#DejaVuSans-61" transform="translate(349.609375 0)"/>
     <use xlink:href="#DejaVuSans-63" transform="translate(410.888672 0)"/>
     <use xlink:href="#DejaVuSans-6b" transform="translate(465.869141 0)"/>
     <use xlink:href="#DejaVuSans-65" transform="translate(520.154297 0)"/>
     <use xlink:href="#DejaVuSans-64" transform="translate(581.677734 0)"/>
     <use xlink:href="#DejaVuSans-20" transform="translate(645.154297 0)"/>
     <use xlink:href="#DejaVuSans-28" transform="translate(676.941406 0)"/>
     <use xlink:href="#DejaVuSans-78" transform="translate(715.955078 0)"/>
     <use xlink:href="#DejaVuSans-34" transform="translate(775.134766 0)"/>
     <use xlink:href="#DejaVuSans-29" transform="translate(838.757812 0)"/>
    </g>
   </g>
   <g id="patch_58">
    <path d="M 352.195781 35.098594 
L 370.195781 35.098594 
L 370.195781 28.798594 
L 352.195781 28.798594 
z
" style="fill: #ea580c; stroke: #ffffff; stroke-width: 0.5; stroke-linejoin: miter"/>
   </g>
   <g id="text_29">
    <!-- 256b packed (x8) -->
    <g style="fill: #262626" transform="translate(377.395781 35.098594) scale(0.09 -0.09)">
     <use xlink:href="#DejaVuSans-32"/>
     <use xlink:href="#DejaVuSans-35" transform="translate(63.623047 0)"/>
     <use xlink:href="#DejaVuSans-36" transform="translate(127.246094 0)"/>
     <use xlink:href="#DejaVuSans-62" transform="translate(190.869141 0)"/>
     <use xlink:href="#DejaVuSans-20" transform="translate(254.345703 0)"/>
     <use xlink:href="#DejaVuSans-70" transform="translate(286.132812 0)"/>
     <use xlink:href="#DejaVuSans-61" transform="translate(349.609375 0)"/>
     <use xlink:href="#DejaVuSans-63" transform="translate(410.888672 0)"/>
     <use xlink:href="#DejaVuSans-6b" transform="translate(465.869141 0)"/>
     <use xlink:href="#DejaVuSans-65" transform="translate(520.154297 0)"/>
     <use xlink:href="#DejaVuSans-64" transform="translate(581.677734 0)"/>
     <use xlink:href="#DejaVuSans-20" transform="translate(645.154297 0)"/>
     <use xlink:href="#DejaVuSans-28" transform="translate(676.941406 0)"/>
     <use xlink:href="#DejaVuSans-78" transform="translate(715.955078 0)"/>
     <use xlink:href="#DejaVuSans-38" transform="translate(775.134766 0)"/>
     <use xlink:href="#DejaVuSans-29" transform="translate(838.757812 0)"/>
    </g>
   </g>
  </g>
 </g>
 <defs>
  <clipPath id="p9b9dbabbae">
   <rect x="45.735" y="74.544" width="266.379375" height="188.5"/>
  </clipPath>
  <clipPath id="p2790a6ecff">
   <rect x="322.914375" y="74.544" width="266.379375" height="188.5"/>
  </clipPath>
 </defs>
</svg>
