<?xml version="1.0" encoding="utf-8" standalone="no"?>
<!DOCTYPE svg PUBLIC "-//W3C//DTD SVG 1.1//EN"
  "http://www.w3.org/Graphics/SVG/1.1/DTD/svg11.dtd">
<svg xmlns:xlink="http://www.w3.org/1999/xlink" width="712.8975pt" height="419.680344pt" viewBox="0 0 712.8975 419.680344" xmlns="http://www.w3.org/2000/svg" version="1.1">
 <metadata>
  <rdf:RDF xmlns:dc="http://purl.org/dc/elements/1.1/" xmlns:cc="http://creativecommons.org/ns#" xmlns:rdf="http://www.w3.org/1999/02/22-rdf-syntax-ns#">
   <cc:Work>
    <dc:type rdf:resource="http://purl.org/dc/dcmitype/StillImage"/>
    <dc:date>2026-06-01T00:40:34.844390</dc:date>
    <dc:format>image/svg+xml</dc:format>
    <dc:creator>
     <cc:Agent>
      <dc:title>Matplotlib v3.10.9, https://matplotlib.org/</dc:title>
     </cc:Agent>
    </dc:creator>
   </cc:Work>
  </rdf:RDF>
 </metadata>
 <defs>
  <style type="text/css">*{stroke-linejoin: round; stroke-linecap: butt}</style>
 </defs>
 <g id="figure_1">
  <g id="patch_1">
   <path d="M 0 419.680344 
L 712.8975 419.680344 
L 712.8975 0 
L 0 0 
z
" style="fill: #ffffff"/>
  </g>
  <g id="axes_1">
   <g id="patch_2">
    <path d="M 29.7875 383.354719 
L 705.6975 383.354719 
L 705.6975 33.077969 
L 29.7875 33.077969 
z
" style="fill: #efefef"/>
   </g>
   <g id="matplotlib.axis_1">
    <g id="xtick_1">
     <g id="line2d_1">
      <path d="M 111.715985 383.354719 
L 111.715985 33.077969 
" clip-path="url(#pddf20ae44e)" style="fill: none; stroke: #cccccc; stroke-width: 0.8; stroke-linecap: round"/>
     </g>
     <g id="line2d_2"/>
     <g id="text_1">
      <!-- $\mathdefault{2^{7}}$ -->
      <g style="fill: #262626" transform="translate(106.115985 394.453156) scale(0.1 -0.1)">
       <defs>
        <path id="DejaVuSans-32" d="M 1228 531 
L 3431 531 
L 3431 0 
L 469 0 
L 469 531 
Q 828 903 1448 1529 
Q 2069 2156 2228 2338 
Q 2531 2678 2651 2914 
Q 2772 3150 2772 3378 
Q 2772 3750 2511 3984 
Q 2250 4219 1831 4219 
Q 1534 4219 1204 4116 
Q 875 4013 500 3803 
L 500 4441 
Q 881 4594 1212 4672 
Q 1544 4750 1819 4750 
Q 2544 4750 2975 4387 
Q 3406 4025 3406 3419 
Q 3406 3131 3298 2873 
Q 3191 2616 2906 2266 
Q 2828 2175 2409 1742 
Q 1991 1309 1228 531 
z
" transform="scale(0.015625)"/>
        <path id="DejaVuSans-37" d="M 525 4666 
L 3525 4666 
L 3525 4397 
L 1831 0 
L 1172 0 
L 2766 4134 
L 525 4134 
L 525 4666 
z
" transform="scale(0.015625)"/>
       </defs>
       <use xlink:href="#DejaVuSans-32" transform="translate(0 0.684375)"/>
       <use xlink:href="#DejaVuSans-37" transform="translate(64.580078 38.965625) scale(0.7)"/>
      </g>
     </g>
    </g>
    <g id="xtick_2">
     <g id="line2d_3">
      <path d="M 214.126591 383.354719 
L 214.126591 33.077969 
" clip-path="url(#pddf20ae44e)" style="fill: none; stroke: #cccccc; stroke-width: 0.8; stroke-linecap: round"/>
     </g>
     <g id="line2d_4"/>
     <g id="text_2">
      <!-- $\mathdefault{2^{9}}$ -->
      <g style="fill: #262626" transform="translate(208.526591 394.453156) scale(0.1 -0.1)">
       <defs>
        <path id="DejaVuSans-39" d="M 703 97 
L 703 672 
Q 941 559 1184 500 
Q 1428 441 1663 441 
Q 2288 441 2617 861 
Q 2947 1281 2994 2138 
Q 2813 1869 2534 1725 
Q 2256 1581 1919 1581 
Q 1219 1581 811 2004 
Q 403 2428 403 3163 
Q 403 3881 828 4315 
Q 1253 4750 1959 4750 
Q 2769 4750 3195 4129 
Q 3622 3509 3622 2328 
Q 3622 1225 3098 567 
Q 2575 -91 1691 -91 
Q 1453 -91 1209 -44 
Q 966 3 703 97 
z
M 1959 2075 
Q 2384 2075 2632 2365 
Q 2881 2656 2881 3163 
Q 2881 3666 2632 3958 
Q 2384 4250 1959 4250 
Q 1534 4250 1286 3958 
Q 1038 3666 1038 3163 
Q 1038 2656 1286 2365 
Q 1534 2075 1959 2075 
z
" transform="scale(0.015625)"/>
       </defs>
       <use xlink:href="#DejaVuSans-32" transform="translate(0 0.765625)"/>
       <use xlink:href="#DejaVuSans-39" transform="translate(64.580078 39.046875) scale(0.7)"/>
      </g>
     </g>
    </g>
    <g id="xtick_3">
     <g id="line2d_5">
      <path d="M 316.537197 383.354719 
L 316.537197 33.077969 
" clip-path="url(#pddf20ae44e)" style="fill: none; stroke: #cccccc; stroke-width: 0.8; stroke-linecap: round"/>
     </g>
     <g id="line2d_6"/>
     <g id="text_3">
      <!-- $\mathdefault{2^{11}}$ -->
      <g style="fill: #262626" transform="translate(308.687197 394.453156) scale(0.1 -0.1)">
       <defs>
        <path id="DejaVuSans-31" d="M 794 531 
L 1825 531 
L 1825 4091 
L 703 3866 
L 703 4441 
L 1819 4666 
L 2450 4666 
L 2450 531 
L 3481 531 
L 3481 0 
L 794 0 
L 794 531 
z
" transform="scale(0.015625)"/>
       </defs>
       <use xlink:href="#DejaVuSans-32" transform="translate(0 0.684375)"/>
       <use xlink:href="#DejaVuSans-31" transform="translate(64.580078 38.965625) scale(0.7)"/>
       <use xlink:href="#DejaVuSans-31" transform="translate(109.116211 38.965625) scale(0.7)"/>
      </g>
     </g>
    </g>
    <g id="xtick_4">
     <g id="line2d_7">
      <path d="M 418.947803 383.354719 
L 418.947803 33.077969 
" clip-path="url(#pddf20ae44e)" style="fill: none; stroke: #cccccc; stroke-width: 0.8; stroke-linecap: round"/>
     </g>
     <g id="line2d_8"/>
     <g id="text_4">
      <!-- $\mathdefault{2^{13}}$ -->
      <g style="fill: #262626" transform="translate(411.097803 394.453156) scale(0.1 -0.1)">
       <defs>
        <path id="DejaVuSans-33" d="M 2597 2516 
Q 3050 2419 3304 2112 
Q 3559 1806 3559 1356 
Q 3559 666 3084 287 
Q 2609 -91 1734 -91 
Q 1441 -91 1130 -33 
Q 819 25 488 141 
L 488 750 
Q 750 597 1062 519 
Q 1375 441 1716 441 
Q 2309 441 2620 675 
Q 2931 909 2931 1356 
Q 2931 1769 2642 2001 
Q 2353 2234 1838 2234 
L 1294 2234 
L 1294 2753 
L 1863 2753 
Q 2328 2753 2575 2939 
Q 2822 3125 2822 3475 
Q 2822 3834 2567 4026 
Q 2313 4219 1838 4219 
Q 1578 4219 1281 4162 
Q 984 4106 628 3988 
L 628 4550 
Q 988 4650 1302 4700 
Q 1616 4750 1894 4750 
Q 2613 4750 3031 4423 
Q 3450 4097 3450 3541 
Q 3450 3153 3228 2886 
Q 3006 2619 2597 2516 
z
" transform="scale(0.015625)"/>
       </defs>
       <use xlink:href="#DejaVuSans-32" transform="translate(0 0.765625)"/>
       <use xlink:href="#DejaVuSans-31" transform="translate(64.580078 39.046875) scale(0.7)"/>
       <use xlink:href="#DejaVuSans-33" transform="translate(109.116211 39.046875) scale(0.7)"/>
      </g>
     </g>
    </g>
    <g id="xtick_5">
     <g id="line2d_9">
      <path d="M 521.358409 383.354719 
L 521.358409 33.077969 
" clip-path="url(#pddf20ae44e)" style="fill: none; stroke: #cccccc; stroke-width: 0.8; stroke-linecap: round"/>
     </g>
     <g id="line2d_10"/>
     <g id="text_5">
      <!-- $\mathdefault{2^{15}}$ -->
      <g style="fill: #262626" transform="translate(513.508409 394.453156) scale(0.1 -0.1)">
       <defs>
        <path id="DejaVuSans-35" d="M 691 4666 
L 3169 4666 
L 3169 4134 
L 1269 4134 
L 1269 2991 
Q 1406 3038 1543 3061 
Q 1681 3084 1819 3084 
Q 2600 3084 3056 2656 
Q 3513 2228 3513 1497 
Q 3513 744 3044 326 
Q 2575 -91 1722 -91 
Q 1428 -91 1123 -41 
Q 819 9 494 109 
L 494 744 
Q 775 591 1075 516 
Q 1375 441 1709 441 
Q 2250 441 2565 725 
Q 2881 1009 2881 1497 
Q 2881 1984 2565 2268 
Q 2250 2553 1709 2553 
Q 1456 2553 1204 2497 
Q 953 2441 691 2322 
L 691 4666 
z
" transform="scale(0.015625)"/>
       </defs>
       <use xlink:href="#DejaVuSans-32" transform="translate(0 0.684375)"/>
       <use xlink:href="#DejaVuSans-31" transform="translate(64.580078 38.965625) scale(0.7)"/>
       <use xlink:href="#DejaVuSans-35" transform="translate(109.116211 38.965625) scale(0.7)"/>
      </g>
     </g>
    </g>
    <g id="xtick_6">
     <g id="line2d_11">
      <path d="M 623.769015 383.354719 
L 623.769015 33.077969 
" clip-path="url(#pddf20ae44e)" style="fill: none; stroke: #cccccc; stroke-width: 0.8; stroke-linecap: round"/>
     </g>
     <g id="line2d_12"/>
     <g id="text_6">
      <!-- $\mathdefault{2^{17}}$ -->
      <g style="fill: #262626" transform="translate(615.919015 394.453156) scale(0.1 -0.1)">
       <use xlink:href="#DejaVuSans-32" transform="translate(0 0.684375)"/>
       <use xlink:href="#DejaVuSans-31" transform="translate(64.580078 38.965625) scale(0.7)"/>
       <use xlink:href="#DejaVuSans-37" transform="translate(109.116211 38.965625) scale(0.7)"/>
      </g>
     </g>
    </g>
    <g id="text_7">
     <!-- Input Size (TxC_in) -->
     <g style="fill: #262626" transform="translate(311.51875 409.650969) scale(0.12 -0.12)">
      <defs>
       <path id="DejaVuSans-49" d="M 628 4666 
L 1259 4666 
L 1259 0 
L 628 0 
L 628 4666 
z
" transform="scale(0.015625)"/>
       <path id="DejaVuSans-6e" d="M 3513 2113 
L 3513 0 
L 2938 0 
L 2938 2094 
Q 2938 2591 2744 2837 
Q 2550 3084 2163 3084 
Q 1697 3084 1428 2787 
Q 1159 2491 1159 1978 
L 1159 0 
L 581 0 
L 581 3500 
L 1159 3500 
L 1159 2956 
Q 1366 3272 1645 3428 
Q 1925 3584 2291 3584 
Q 2894 3584 3203 3211 
Q 3513 2838 3513 2113 
z
" transform="scale(0.015625)"/>
       <path id="DejaVuSans-70" d="M 1159 525 
L 1159 -1331 
L 581 -1331 
L 581 3500 
L 1159 3500 
L 1159 2969 
Q 1341 3281 1617 3432 
Q 1894 3584 2278 3584 
Q 2916 3584 3314 3078 
Q 3713 2572 3713 1747 
Q 3713 922 3314 415 
Q 2916 -91 2278 -91 
Q 1894 -91 1617 61 
Q 1341 213 1159 525 
z
M 3116 1747 
Q 3116 2381 2855 2742 
Q 2594 3103 2138 3103 
Q 1681 3103 1420 2742 
Q 1159 2381 1159 1747 
Q 1159 1113 1420 752 
Q 1681 391 2138 391 
Q 2594 391 2855 752 
Q 3116 1113 3116 1747 
z
" transform="scale(0.015625)"/>
       <path id="DejaVuSans-75" d="M 544 1381 
L 544 3500 
L 1119 3500 
L 1119 1403 
Q 1119 906 1312 657 
Q 1506 409 1894 409 
Q 2359 409 2629 706 
Q 2900 1003 2900 1516 
L 2900 3500 
L 3475 3500 
L 3475 0 
L 2900 0 
L 2900 538 
Q 2691 219 2414 64 
Q 2138 -91 1772 -91 
Q 1169 -91 856 284 
Q 544 659 544 1381 
z
M 1991 3584 
L 1991 3584 
z
" transform="scale(0.015625)"/>
       <path id="DejaVuSans-74" d="M 1172 4494 
L 1172 3500 
L 2356 3500 
L 2356 3053 
L 1172 3053 
L 1172 1153 
Q 1172 725 1289 603 
Q 1406 481 1766 481 
L 2356 481 
L 2356 0 
L 1766 0 
Q 1100 0 847 248 
Q 594 497 594 1153 
L 594 3053 
L 172 3053 
L 172 3500 
L 594 3500 
L 594 4494 
L 1172 4494 
z
" transform="scale(0.015625)"/>
       <path id="DejaVuSans-20" transform="scale(0.015625)"/>
       <path id="DejaVuSans-53" d="M 3425 4513 
L 3425 3897 
Q 3066 4069 2747 4153 
Q 2428 4238 2131 4238 
Q 1616 4238 1336 4038 
Q 1056 3838 1056 3469 
Q 1056 3159 1242 3001 
Q 1428 2844 1947 2747 
L 2328 2669 
Q 3034 2534 3370 2195 
Q 3706 1856 3706 1288 
Q 3706 609 3251 259 
Q 2797 -91 1919 -91 
Q 1588 -91 1214 -16 
Q 841 59 441 206 
L 441 856 
Q 825 641 1194 531 
Q 1563 422 1919 422 
Q 2459 422 2753 634 
Q 3047 847 3047 1241 
Q 3047 1584 2836 1778 
Q 2625 1972 2144 2069 
L 1759 2144 
Q 1053 2284 737 2584 
Q 422 2884 422 3419 
Q 422 4038 858 4394 
Q 1294 4750 2059 4750 
Q 2388 4750 2728 4690 
Q 3069 4631 3425 4513 
z
" transform="scale(0.015625)"/>
       <path id="DejaVuSans-69" d="M 603 3500 
L 1178 3500 
L 1178 0 
L 603 0 
L 603 3500 
z
M 603 4863 
L 1178 4863 
L 1178 4134 
L 603 4134 
L 603 4863 
z
" transform="scale(0.015625)"/>
       <path id="DejaVuSans-7a" d="M 353 3500 
L 3084 3500 
L 3084 2975 
L 922 459 
L 3084 459 
L 3084 0 
L 275 0 
L 275 525 
L 2438 3041 
L 353 3041 
L 353 3500 
z
" transform="scale(0.015625)"/>
       <path id="DejaVuSans-65" d="M 3597 1894 
L 3597 1613 
L 953 1613 
Q 991 1019 1311 708 
Q 1631 397 2203 397 
Q 2534 397 2845 478 
Q 3156 559 3463 722 
L 3463 178 
Q 3153 47 2828 -22 
Q 2503 -91 2169 -91 
Q 1331 -91 842 396 
Q 353 884 353 1716 
Q 353 2575 817 3079 
Q 1281 3584 2069 3584 
Q 2775 3584 3186 3129 
Q 3597 2675 3597 1894 
z
M 3022 2063 
Q 3016 2534 2758 2815 
Q 2500 3097 2075 3097 
Q 1594 3097 1305 2825 
Q 1016 2553 972 2059 
L 3022 2063 
z
" transform="scale(0.015625)"/>
       <path id="DejaVuSans-28" d="M 1984 4856 
Q 1566 4138 1362 3434 
Q 1159 2731 1159 2009 
Q 1159 1288 1364 580 
Q 1569 -128 1984 -844 
L 1484 -844 
Q 1016 -109 783 600 
Q 550 1309 550 2009 
Q 550 2706 781 3412 
Q 1013 4119 1484 4856 
L 1984 4856 
z
" transform="scale(0.015625)"/>
       <path id="DejaVuSans-54" d="M -19 4666 
L 3928 4666 
L 3928 4134 
L 2272 4134 
L 2272 0 
L 1638 0 
L 1638 4134 
L -19 4134 
L -19 4666 
z
" transform="scale(0.015625)"/>
       <path id="DejaVuSans-78" d="M 3513 3500 
L 2247 1797 
L 3578 0 
L 2900 0 
L 1881 1375 
L 863 0 
L 184 0 
L 1544 1831 
L 300 3500 
L 978 3500 
L 1906 2253 
L 2834 3500 
L 3513 3500 
z
" transform="scale(0.015625)"/>
       <path id="DejaVuSans-43" d="M 4122 4306 
L 4122 3641 
Q 3803 3938 3442 4084 
Q 3081 4231 2675 4231 
Q 1875 4231 1450 3742 
Q 1025 3253 1025 2328 
Q 1025 1406 1450 917 
Q 1875 428 2675 428 
Q 3081 428 3442 575 
Q 3803 722 4122 1019 
L 4122 359 
Q 3791 134 3420 21 
Q 3050 -91 2638 -91 
Q 1578 -91 968 557 
Q 359 1206 359 2328 
Q 359 3453 968 4101 
Q 1578 4750 2638 4750 
Q 3056 4750 3426 4639 
Q 3797 4528 4122 4306 
z
" transform="scale(0.015625)"/>
       <path id="DejaVuSans-5f" d="M 3263 -1063 
L 3263 -1509 
L -63 -1509 
L -63 -1063 
L 3263 -1063 
z
" transform="scale(0.015625)"/>
       <path id="DejaVuSans-29" d="M 513 4856 
L 1013 4856 
Q 1481 4119 1714 3412 
Q 1947 2706 1947 2009 
Q 1947 1309 1714 600 
Q 1481 -109 1013 -844 
L 513 -844 
Q 928 -128 1133 580 
Q 1338 1288 1338 2009 
Q 1338 2731 1133 3434 
Q 928 4138 513 4856 
z
" transform="scale(0.015625)"/>
      </defs>
      <use xlink:href="#DejaVuSans-49"/>
      <use xlink:href="#DejaVuSans-6e" transform="translate(29.492188 0)"/>
      <use xlink:href="#DejaVuSans-70" transform="translate(92.871094 0)"/>
      <use xlink:href="#DejaVuSans-75" transform="translate(156.347656 0)"/>
      <use xlink:href="#DejaVuSans-74" transform="translate(219.726562 0)"/>
      <use xlink:href="#DejaVuSans-20" transform="translate(258.935547 0)"/>
      <use xlink:href="#DejaVuSans-53" transform="translate(290.722656 0)"/>
      <use xlink:href="#DejaVuSans-69" transform="translate(354.199219 0)"/>
      <use xlink:href="#DejaVuSans-7a" transform="translate(381.982422 0)"/>
      <use xlink:href="#DejaVuSans-65" transform="translate(434.472656 0)"/>
      <use xlink:href="#DejaVuSans-20" transform="translate(495.996094 0)"/>
      <use xlink:href="#DejaVuSans-28" transform="translate(527.783203 0)"/>
      <use xlink:href="#DejaVuSans-54" transform="translate(566.796875 0)"/>
      <use xlink:href="#DejaVuSans-78" transform="translate(627.880859 0)"/>
      <use xlink:href="#DejaVuSans-43" transform="translate(687.060547 0)"/>
      <use xlink:href="#DejaVuSans-5f" transform="translate(756.884766 0)"/>
      <use xlink:href="#DejaVuSans-69" transform="translate(806.884766 0)"/>
      <use xlink:href="#DejaVuSans-6e" transform="translate(834.667969 0)"/>
      <use xlink:href="#DejaVuSans-29" transform="translate(898.046875 0)"/>
     </g>
    </g>
   </g>
   <g id="matplotlib.axis_2">
    <g id="ytick_1">
     <g id="line2d_13">
      <path d="M 29.7875 383.354719 
L 705.6975 383.354719 
" clip-path="url(#pddf20ae44e)" style="fill: none; stroke: #ffffff; stroke-linecap: round"/>
     </g>
     <g id="line2d_14"/>
     <g id="text_8">
      <!-- 0 -->
      <g style="fill: #262626" transform="translate(19.925 387.153937) scale(0.1 -0.1)">
       <defs>
        <path id="DejaVuSans-30" d="M 2034 4250 
Q 1547 4250 1301 3770 
Q 1056 3291 1056 2328 
Q 1056 1369 1301 889 
Q 1547 409 2034 409 
Q 2525 409 2770 889 
Q 3016 1369 3016 2328 
Q 3016 3291 2770 3770 
Q 2525 4250 2034 4250 
z
M 2034 4750 
Q 2819 4750 3233 4129 
Q 3647 3509 3647 2328 
Q 3647 1150 3233 529 
Q 2819 -91 2034 -91 
Q 1250 -91 836 529 
Q 422 1150 422 2328 
Q 422 3509 836 4129 
Q 1250 4750 2034 4750 
z
" transform="scale(0.015625)"/>
       </defs>
       <use xlink:href="#DejaVuSans-30"/>
      </g>
     </g>
    </g>
    <g id="ytick_2">
     <g id="line2d_15">
      <path d="M 29.7875 310.732885 
L 705.6975 310.732885 
" clip-path="url(#pddf20ae44e)" style="fill: none; stroke: #ffffff; stroke-linecap: round"/>
     </g>
     <g id="line2d_16"/>
     <g id="text_9">
      <!-- 200 -->
      <g style="fill: #262626" transform="translate(7.2 314.532104) scale(0.1 -0.1)">
       <use xlink:href="#DejaVuSans-32"/>
       <use xlink:href="#DejaVuSans-30" transform="translate(63.623047 0)"/>
       <use xlink:href="#DejaVuSans-30" transform="translate(127.246094 0)"/>
      </g>
     </g>
    </g>
    <g id="ytick_3">
     <g id="line2d_17">
      <path d="M 29.7875 238.111052 
L 705.6975 238.111052 
" clip-path="url(#pddf20ae44e)" style="fill: none; stroke: #ffffff; stroke-linecap: round"/>
     </g>
     <g id="line2d_18"/>
     <g id="text_10">
      <!-- 400 -->
      <g style="fill: #262626" transform="translate(7.2 241.910271) scale(0.1 -0.1)">
       <defs>
        <path id="DejaVuSans-34" d="M 2419 4116 
L 825 1625 
L 2419 1625 
L 2419 4116 
z
M 2253 4666 
L 3047 4666 
L 3047 1625 
L 3713 1625 
L 3713 1100 
L 3047 1100 
L 3047 0 
L 2419 0 
L 2419 1100 
L 313 1100 
L 313 1709 
L 2253 4666 
z
" transform="scale(0.015625)"/>
       </defs>
       <use xlink:href="#DejaVuSans-34"/>
       <use xlink:href="#DejaVuSans-30" transform="translate(63.623047 0)"/>
       <use xlink:href="#DejaVuSans-30" transform="translate(127.246094 0)"/>
      </g>
     </g>
    </g>
    <g id="ytick_4">
     <g id="line2d_19">
      <path d="M 29.7875 165.489219 
L 705.6975 165.489219 
" clip-path="url(#pddf20ae44e)" style="fill: none; stroke: #ffffff; stroke-linecap: round"/>
     </g>
     <g id="line2d_20"/>
     <g id="text_11">
      <!-- 600 -->
      <g style="fill: #262626" transform="translate(7.2 169.288438) scale(0.1 -0.1)">
       <defs>
        <path id="DejaVuSans-36" d="M 2113 2584 
Q 1688 2584 1439 2293 
Q 1191 2003 1191 1497 
Q 1191 994 1439 701 
Q 1688 409 2113 409 
Q 2538 409 2786 701 
Q 3034 994 3034 1497 
Q 3034 2003 2786 2293 
Q 2538 2584 2113 2584 
z
M 3366 4563 
L 3366 3988 
Q 3128 4100 2886 4159 
Q 2644 4219 2406 4219 
Q 1781 4219 1451 3797 
Q 1122 3375 1075 2522 
Q 1259 2794 1537 2939 
Q 1816 3084 2150 3084 
Q 2853 3084 3261 2657 
Q 3669 2231 3669 1497 
Q 3669 778 3244 343 
Q 2819 -91 2113 -91 
Q 1303 -91 875 529 
Q 447 1150 447 2328 
Q 447 3434 972 4092 
Q 1497 4750 2381 4750 
Q 2619 4750 2861 4703 
Q 3103 4656 3366 4563 
z
" transform="scale(0.015625)"/>
       </defs>
       <use xlink:href="#DejaVuSans-36"/>
       <use xlink:href="#DejaVuSans-30" transform="translate(63.623047 0)"/>
       <use xlink:href="#DejaVuSans-30" transform="translate(127.246094 0)"/>
      </g>
     </g>
    </g>
    <g id="ytick_5">
     <g id="line2d_21">
      <path d="M 29.7875 92.867386 
L 705.6975 92.867386 
" clip-path="url(#pddf20ae44e)" style="fill: none; stroke: #ffffff; stroke-linecap: round"/>
     </g>
     <g id="line2d_22"/>
     <g id="text_12">
      <!-- 800 -->
      <g style="fill: #262626" transform="translate(7.2 96.666604) scale(0.1 -0.1)">
       <defs>
        <path id="DejaVuSans-38" d="M 2034 2216 
Q 1584 2216 1326 1975 
Q 1069 1734 1069 1313 
Q 1069 891 1326 650 
Q 1584 409 2034 409 
Q 2484 409 2743 651 
Q 3003 894 3003 1313 
Q 3003 1734 2745 1975 
Q 2488 2216 2034 2216 
z
M 1403 2484 
Q 997 2584 770 2862 
Q 544 3141 544 3541 
Q 544 4100 942 4425 
Q 1341 4750 2034 4750 
Q 2731 4750 3128 4425 
Q 3525 4100 3525 3541 
Q 3525 3141 3298 2862 
Q 3072 2584 2669 2484 
Q 3125 2378 3379 2068 
Q 3634 1759 3634 1313 
Q 3634 634 3220 271 
Q 2806 -91 2034 -91 
Q 1263 -91 848 271 
Q 434 634 434 1313 
Q 434 1759 690 2068 
Q 947 2378 1403 2484 
z
M 1172 3481 
Q 1172 3119 1398 2916 
Q 1625 2713 2034 2713 
Q 2441 2713 2670 2916 
Q 2900 3119 2900 3481 
Q 2900 3844 2670 4047 
Q 2441 4250 2034 4250 
Q 1625 4250 1398 4047 
Q 1172 3844 1172 3481 
z
" transform="scale(0.015625)"/>
       </defs>
       <use xlink:href="#DejaVuSans-38"/>
       <use xlink:href="#DejaVuSans-30" transform="translate(63.623047 0)"/>
       <use xlink:href="#DejaVuSans-30" transform="translate(127.246094 0)"/>
      </g>
     </g>
    </g>
   </g>
   <g id="line2d_23">
    <path d="M 427.648864 383.354719 
L 427.648864 33.077969 
" clip-path="url(#pddf20ae44e)" style="fill: none; stroke-dasharray: 1.5,2.475; stroke-dashoffset: 0; stroke: #595959; stroke-width: 1.5"/>
   </g>
   <g id="line2d_24">
    <path d="M 657.860483 383.354719 
L 657.860483 33.077969 
" clip-path="url(#pddf20ae44e)" style="fill: none; stroke-dasharray: 1.5,2.475; stroke-dashoffset: 0; stroke: #595959; stroke-width: 1.5"/>
   </g>
   <g id="patch_3">
    <path d="M 29.7875 383.354719 
L 705.6975 383.354719 
" style="fill: none; stroke: #cccccc; stroke-linejoin: miter; stroke-linecap: square"/>
   </g>
   <g id="line2d_25">
    <path d="M 60.510682 113.911065 
L 265.331894 222.327422 
L 325.238258 247.499181 
L 470.153106 248.194097 
L 572.563712 237.625967 
L 632.470076 241.098137 
L 655.245419 324.824998 
L 674.974318 356.846098 
" clip-path="url(#pddf20ae44e)" style="fill: none; stroke: #ca8a04; stroke-opacity: 0.95; stroke-width: 2; stroke-linecap: round"/>
    <defs>
     <path id="m814bca03cc" d="M -3 3 
L 3 3 
L 3 -3 
L -3 -3 
z
" style="stroke: #ca8a04; stroke-opacity: 0.95; stroke-linejoin: miter"/>
    </defs>
    <g clip-path="url(#pddf20ae44e)">
     <use xlink:href="#m814bca03cc" x="60.510682" y="113.911065" style="fill: #ca8a04; fill-opacity: 0.95; stroke: #ca8a04; stroke-opacity: 0.95; stroke-linejoin: miter"/>
     <use xlink:href="#m814bca03cc" x="265.331894" y="222.327422" style="fill: #ca8a04; fill-opacity: 0.95; stroke: #ca8a04; stroke-opacity: 0.95; stroke-linejoin: miter"/>
     <use xlink:href="#m814bca03cc" x="325.238258" y="247.499181" style="fill: #ca8a04; fill-opacity: 0.95; stroke: #ca8a04; stroke-opacity: 0.95; stroke-linejoin: miter"/>
     <use xlink:href="#m814bca03cc" x="470.153106" y="248.194097" style="fill: #ca8a04; fill-opacity: 0.95; stroke: #ca8a04; stroke-opacity: 0.95; stroke-linejoin: miter"/>
     <use xlink:href="#m814bca03cc" x="572.563712" y="237.625967" style="fill: #ca8a04; fill-opacity: 0.95; stroke: #ca8a04; stroke-opacity: 0.95; stroke-linejoin: miter"/>
     <use xlink:href="#m814bca03cc" x="632.470076" y="241.098137" style="fill: #ca8a04; fill-opacity: 0.95; stroke: #ca8a04; stroke-opacity: 0.95; stroke-linejoin: miter"/>
     <use xlink:href="#m814bca03cc" x="655.245419" y="324.824998" style="fill: #ca8a04; fill-opacity: 0.95; stroke: #ca8a04; stroke-opacity: 0.95; stroke-linejoin: miter"/>
     <use xlink:href="#m814bca03cc" x="674.974318" y="356.846098" style="fill: #ca8a04; fill-opacity: 0.95; stroke: #ca8a04; stroke-opacity: 0.95; stroke-linejoin: miter"/>
    </g>
   </g>
   <g id="line2d_26">
    <path d="M 60.510682 300.711907 
L 265.331894 330.661351 
L 325.238258 320.126099 
L 470.153106 326.627758 
L 572.563712 319.490976 
L 632.470076 316.560433 
L 655.245419 298.376413 
L 674.974318 313.534581 
" clip-path="url(#pddf20ae44e)" style="fill: none; stroke: #ea580c; stroke-opacity: 0.95; stroke-width: 2; stroke-linecap: round"/>
    <defs>
     <path id="m7486cde233" d="M -3 3 
L 3 3 
L 3 -3 
L -3 -3 
z
" style="stroke: #ea580c; stroke-opacity: 0.95; stroke-linejoin: miter"/>
    </defs>
    <g clip-path="url(#pddf20ae44e)">
     <use xlink:href="#m7486cde233" x="60.510682" y="300.711907" style="fill: #ea580c; fill-opacity: 0.95; stroke: #ea580c; stroke-opacity: 0.95; stroke-linejoin: miter"/>
     <use xlink:href="#m7486cde233" x="265.331894" y="330.661351" style="fill: #ea580c; fill-opacity: 0.95; stroke: #ea580c; stroke-opacity: 0.95; stroke-linejoin: miter"/>
     <use xlink:href="#m7486cde233" x="325.238258" y="320.126099" style="fill: #ea580c; fill-opacity: 0.95; stroke: #ea580c; stroke-opacity: 0.95; stroke-linejoin: miter"/>
     <use xlink:href="#m7486cde233" x="470.153106" y="326.627758" style="fill: #ea580c; fill-opacity: 0.95; stroke: #ea580c; stroke-opacity: 0.95; stroke-linejoin: miter"/>
     <use xlink:href="#m7486cde233" x="572.563712" y="319.490976" style="fill: #ea580c; fill-opacity: 0.95; stroke: #ea580c; stroke-opacity: 0.95; stroke-linejoin: miter"/>
     <use xlink:href="#m7486cde233" x="632.470076" y="316.560433" style="fill: #ea580c; fill-opacity: 0.95; stroke: #ea580c; stroke-opacity: 0.95; stroke-linejoin: miter"/>
     <use xlink:href="#m7486cde233" x="655.245419" y="298.376413" style="fill: #ea580c; fill-opacity: 0.95; stroke: #ea580c; stroke-opacity: 0.95; stroke-linejoin: miter"/>
     <use xlink:href="#m7486cde233" x="674.974318" y="313.534581" style="fill: #ea580c; fill-opacity: 0.95; stroke: #ea580c; stroke-opacity: 0.95; stroke-linejoin: miter"/>
    </g>
   </g>
   <g id="line2d_27">
    <path d="M 60.510682 341.478598 
L 265.331894 352.663922 
L 325.238258 352.841305 
L 470.153106 353.457512 
L 572.563712 335.949493 
L 632.470076 329.823487 
L 655.245419 332.417249 
L 674.974318 329.434683 
" clip-path="url(#pddf20ae44e)" style="fill: none; stroke: #475569; stroke-opacity: 0.95; stroke-width: 2; stroke-linecap: round"/>
    <defs>
     <path id="m953181cdf6" d="M -3 3 
L 3 3 
L 3 -3 
L -3 -3 
z
" style="stroke: #475569; stroke-opacity: 0.95; stroke-linejoin: miter"/>
    </defs>
    <g clip-path="url(#pddf20ae44e)">
     <use xlink:href="#m953181cdf6" x="60.510682" y="341.478598" style="fill: #475569; fill-opacity: 0.95; stroke: #475569; stroke-opacity: 0.95; stroke-linejoin: miter"/>
     <use xlink:href="#m953181cdf6" x="265.331894" y="352.663922" style="fill: #475569; fill-opacity: 0.95; stroke: #475569; stroke-opacity: 0.95; stroke-linejoin: miter"/>
     <use xlink:href="#m953181cdf6" x="325.238258" y="352.841305" style="fill: #475569; fill-opacity: 0.95; stroke: #475569; stroke-opacity: 0.95; stroke-linejoin: miter"/>
     <use xlink:href="#m953181cdf6" x="470.153106" y="353.457512" style="fill: #475569; fill-opacity: 0.95; stroke: #475569; stroke-opacity: 0.95; stroke-linejoin: miter"/>
     <use xlink:href="#m953181cdf6" x="572.563712" y="335.949493" style="fill: #475569; fill-opacity: 0.95; stroke: #475569; stroke-opacity: 0.95; stroke-linejoin: miter"/>
     <use xlink:href="#m953181cdf6" x="632.470076" y="329.823487" style="fill: #475569; fill-opacity: 0.95; stroke: #475569; stroke-opacity: 0.95; stroke-linejoin: miter"/>
     <use xlink:href="#m953181cdf6" x="655.245419" y="332.417249" style="fill: #475569; fill-opacity: 0.95; stroke: #475569; stroke-opacity: 0.95; stroke-linejoin: miter"/>
     <use xlink:href="#m953181cdf6" x="674.974318" y="329.434683" style="fill: #475569; fill-opacity: 0.95; stroke: #475569; stroke-opacity: 0.95; stroke-linejoin: miter"/>
    </g>
   </g>
   <g id="line2d_28">
    <path d="M 60.510682 289.961621 
L 265.331894 341.272616 
L 325.238258 348.979373 
L 470.153106 345.619686 
L 572.563712 338.798184 
L 632.470076 329.867156 
L 655.245419 319.388689 
L 674.974318 313.866996 
" clip-path="url(#pddf20ae44e)" style="fill: none; stroke: #0d9488; stroke-opacity: 0.95; stroke-width: 2; stroke-linecap: round"/>
    <defs>
     <path id="m7fea3c2c30" d="M -3 3 
L 3 3 
L 3 -3 
L -3 -3 
z
" style="stroke: #0d9488; stroke-opacity: 0.95; stroke-linejoin: miter"/>
    </defs>
    <g clip-path="url(#pddf20ae44e)">
     <use xlink:href="#m7fea3c2c30" x="60.510682" y="289.961621" style="fill: #0d9488; fill-opacity: 0.95; stroke: #0d9488; stroke-opacity: 0.95; stroke-linejoin: miter"/>
     <use xlink:href="#m7fea3c2c30" x="265.331894" y="341.272616" style="fill: #0d9488; fill-opacity: 0.95; stroke: #0d9488; stroke-opacity: 0.95; stroke-linejoin: miter"/>
     <use xlink:href="#m7fea3c2c30" x="325.238258" y="348.979373" style="fill: #0d9488; fill-opacity: 0.95; stroke: #0d9488; stroke-opacity: 0.95; stroke-linejoin: miter"/>
     <use xlink:href="#m7fea3c2c30" x="470.153106" y="345.619686" style="fill: #0d9488; fill-opacity: 0.95; stroke: #0d9488; stroke-opacity: 0.95; stroke-linejoin: miter"/>
     <use xlink:href="#m7fea3c2c30" x="572.563712" y="338.798184" style="fill: #0d9488; fill-opacity: 0.95; stroke: #0d9488; stroke-opacity: 0.95; stroke-linejoin: miter"/>
     <use xlink:href="#m7fea3c2c30" x="632.470076" y="329.867156" style="fill: #0d9488; fill-opacity: 0.95; stroke: #0d9488; stroke-opacity: 0.95; stroke-linejoin: miter"/>
     <use xlink:href="#m7fea3c2c30" x="655.245419" y="319.388689" style="fill: #0d9488; fill-opacity: 0.95; stroke: #0d9488; stroke-opacity: 0.95; stroke-linejoin: miter"/>
     <use xlink:href="#m7fea3c2c30" x="674.974318" y="313.866996" style="fill: #0d9488; fill-opacity: 0.95; stroke: #0d9488; stroke-opacity: 0.95; stroke-linejoin: miter"/>
    </g>
   </g>
   <g id="line2d_29">
    <path d="M 60.510682 291.321057 
L 265.331894 339.822082 
L 325.238258 345.461561 
L 470.153106 348.485125 
L 572.563712 335.299126 
L 632.470076 327.218153 
L 655.245419 321.122563 
L 674.974318 316.449954 
" clip-path="url(#pddf20ae44e)" style="fill: none; stroke: #1e3a8a; stroke-opacity: 0.95; stroke-width: 2; stroke-linecap: round"/>
    <defs>
     <path id="me05f929a44" d="M -3 3 
L 3 3 
L 3 -3 
L -3 -3 
z
" style="stroke: #1e3a8a; stroke-opacity: 0.95; stroke-linejoin: miter"/>
    </defs>
    <g clip-path="url(#pddf20ae44e)">
     <use xlink:href="#me05f929a44" x="60.510682" y="291.321057" style="fill: #1e3a8a; fill-opacity: 0.95; stroke: #1e3a8a; stroke-opacity: 0.95; stroke-linejoin: miter"/>
     <use xlink:href="#me05f929a44" x="265.331894" y="339.822082" style="fill: #1e3a8a; fill-opacity: 0.95; stroke: #1e3a8a; stroke-opacity: 0.95; stroke-linejoin: miter"/>
     <use xlink:href="#me05f929a44" x="325.238258" y="345.461561" style="fill: #1e3a8a; fill-opacity: 0.95; stroke: #1e3a8a; stroke-opacity: 0.95; stroke-linejoin: miter"/>
     <use xlink:href="#me05f929a44" x="470.153106" y="348.485125" style="fill: #1e3a8a; fill-opacity: 0.95; stroke: #1e3a8a; stroke-opacity: 0.95; stroke-linejoin: miter"/>
     <use xlink:href="#me05f929a44" x="572.563712" y="335.299126" style="fill: #1e3a8a; fill-opacity: 0.95; stroke: #1e3a8a; stroke-opacity: 0.95; stroke-linejoin: miter"/>
     <use xlink:href="#me05f929a44" x="632.470076" y="327.218153" style="fill: #1e3a8a; fill-opacity: 0.95; stroke: #1e3a8a; stroke-opacity: 0.95; stroke-linejoin: miter"/>
     <use xlink:href="#me05f929a44" x="655.245419" y="321.122563" style="fill: #1e3a8a; fill-opacity: 0.95; stroke: #1e3a8a; stroke-opacity: 0.95; stroke-linejoin: miter"/>
     <use xlink:href="#me05f929a44" x="674.974318" y="316.449954" style="fill: #1e3a8a; fill-opacity: 0.95; stroke: #1e3a8a; stroke-opacity: 0.95; stroke-linejoin: miter"/>
    </g>
   </g>
   <g id="text_13">
    <!-- Flops / byte -->
    <g style="fill: #666666" transform="translate(29.7875 31.20625) scale(0.09 -0.09)">
     <defs>
      <path id="DejaVuSans-46" d="M 628 4666 
L 3309 4666 
L 3309 4134 
L 1259 4134 
L 1259 2759 
L 3109 2759 
L 3109 2228 
L 1259 2228 
L 1259 0 
L 628 0 
L 628 4666 
z
" transform="scale(0.015625)"/>
      <path id="DejaVuSans-6c" d="M 603 4863 
L 1178 4863 
L 1178 0 
L 603 0 
L 603 4863 
z
" transform="scale(0.015625)"/>
      <path id="DejaVuSans-6f" d="M 1959 3097 
Q 1497 3097 1228 2736 
Q 959 2375 959 1747 
Q 959 1119 1226 758 
Q 1494 397 1959 397 
Q 2419 397 2687 759 
Q 2956 1122 2956 1747 
Q 2956 2369 2687 2733 
Q 2419 3097 1959 3097 
z
M 1959 3584 
Q 2709 3584 3137 3096 
Q 3566 2609 3566 1747 
Q 3566 888 3137 398 
Q 2709 -91 1959 -91 
Q 1206 -91 779 398 
Q 353 888 353 1747 
Q 353 2609 779 3096 
Q 1206 3584 1959 3584 
z
" transform="scale(0.015625)"/>
      <path id="DejaVuSans-73" d="M 2834 3397 
L 2834 2853 
Q 2591 2978 2328 3040 
Q 2066 3103 1784 3103 
Q 1356 3103 1142 2972 
Q 928 2841 928 2578 
Q 928 2378 1081 2264 
Q 1234 2150 1697 2047 
L 1894 2003 
Q 2506 1872 2764 1633 
Q 3022 1394 3022 966 
Q 3022 478 2636 193 
Q 2250 -91 1575 -91 
Q 1294 -91 989 -36 
Q 684 19 347 128 
L 347 722 
Q 666 556 975 473 
Q 1284 391 1588 391 
Q 1994 391 2212 530 
Q 2431 669 2431 922 
Q 2431 1156 2273 1281 
Q 2116 1406 1581 1522 
L 1381 1569 
Q 847 1681 609 1914 
Q 372 2147 372 2553 
Q 372 3047 722 3315 
Q 1072 3584 1716 3584 
Q 2034 3584 2315 3537 
Q 2597 3491 2834 3397 
z
" transform="scale(0.015625)"/>
      <path id="DejaVuSans-2f" d="M 1625 4666 
L 2156 4666 
L 531 -594 
L 0 -594 
L 1625 4666 
z
" transform="scale(0.015625)"/>
      <path id="DejaVuSans-62" d="M 3116 1747 
Q 3116 2381 2855 2742 
Q 2594 3103 2138 3103 
Q 1681 3103 1420 2742 
Q 1159 2381 1159 1747 
Q 1159 1113 1420 752 
Q 1681 391 2138 391 
Q 2594 391 2855 752 
Q 3116 1113 3116 1747 
z
M 1159 2969 
Q 1341 3281 1617 3432 
Q 1894 3584 2278 3584 
Q 2916 3584 3314 3078 
Q 3713 2572 3713 1747 
Q 3713 922 3314 415 
Q 2916 -91 2278 -91 
Q 1894 -91 1617 61 
Q 1341 213 1159 525 
L 1159 0 
L 581 0 
L 581 4863 
L 1159 4863 
L 1159 2969 
z
" transform="scale(0.015625)"/>
      <path id="DejaVuSans-79" d="M 2059 -325 
Q 1816 -950 1584 -1140 
Q 1353 -1331 966 -1331 
L 506 -1331 
L 506 -850 
L 844 -850 
Q 1081 -850 1212 -737 
Q 1344 -625 1503 -206 
L 1606 56 
L 191 3500 
L 800 3500 
L 1894 763 
L 2988 3500 
L 3597 3500 
L 2059 -325 
z
" transform="scale(0.015625)"/>
     </defs>
     <use xlink:href="#DejaVuSans-46"/>
     <use xlink:href="#DejaVuSans-6c" transform="translate(57.519531 0)"/>
     <use xlink:href="#DejaVuSans-6f" transform="translate(85.302734 0)"/>
     <use xlink:href="#DejaVuSans-70" transform="translate(146.484375 0)"/>
     <use xlink:href="#DejaVuSans-73" transform="translate(209.960938 0)"/>
     <use xlink:href="#DejaVuSans-20" transform="translate(262.060547 0)"/>
     <use xlink:href="#DejaVuSans-2f" transform="translate(293.847656 0)"/>
     <use xlink:href="#DejaVuSans-20" transform="translate(327.539062 0)"/>
     <use xlink:href="#DejaVuSans-62" transform="translate(359.326172 0)"/>
     <use xlink:href="#DejaVuSans-79" transform="translate(422.802734 0)"/>
     <use xlink:href="#DejaVuSans-74" transform="translate(481.982422 0)"/>
     <use xlink:href="#DejaVuSans-65" transform="translate(521.191406 0)"/>
    </g>
   </g>
   <g id="text_14">
    <!-- Operational Intensity (L3): Intel Core 7 240H (P-core, 2.5GHz) -->
    <g style="fill: #262626" transform="translate(29.7875 17.077969) scale(0.13 -0.13)">
     <defs>
      <path id="DejaVuSans-Bold-4f" d="M 2719 3878 
Q 2169 3878 1866 3472 
Q 1563 3066 1563 2328 
Q 1563 1594 1866 1187 
Q 2169 781 2719 781 
Q 3272 781 3575 1187 
Q 3878 1594 3878 2328 
Q 3878 3066 3575 3472 
Q 3272 3878 2719 3878 
z
M 2719 4750 
Q 3844 4750 4481 4106 
Q 5119 3463 5119 2328 
Q 5119 1197 4481 553 
Q 3844 -91 2719 -91 
Q 1597 -91 958 553 
Q 319 1197 319 2328 
Q 319 3463 958 4106 
Q 1597 4750 2719 4750 
z
" transform="scale(0.015625)"/>
      <path id="DejaVuSans-Bold-70" d="M 1656 506 
L 1656 -1331 
L 538 -1331 
L 538 3500 
L 1656 3500 
L 1656 2988 
Q 1888 3294 2169 3439 
Q 2450 3584 2816 3584 
Q 3463 3584 3878 3070 
Q 4294 2556 4294 1747 
Q 4294 938 3878 423 
Q 3463 -91 2816 -91 
Q 2450 -91 2169 54 
Q 1888 200 1656 506 
z
M 2400 2772 
Q 2041 2772 1848 2508 
Q 1656 2244 1656 1747 
Q 1656 1250 1848 986 
Q 2041 722 2400 722 
Q 2759 722 2948 984 
Q 3138 1247 3138 1747 
Q 3138 2247 2948 2509 
Q 2759 2772 2400 2772 
z
" transform="scale(0.015625)"/>
      <path id="DejaVuSans-Bold-65" d="M 4031 1759 
L 4031 1441 
L 1416 1441 
Q 1456 1047 1700 850 
Q 1944 653 2381 653 
Q 2734 653 3104 758 
Q 3475 863 3866 1075 
L 3866 213 
Q 3469 63 3072 -14 
Q 2675 -91 2278 -91 
Q 1328 -91 801 392 
Q 275 875 275 1747 
Q 275 2603 792 3093 
Q 1309 3584 2216 3584 
Q 3041 3584 3536 3087 
Q 4031 2591 4031 1759 
z
M 2881 2131 
Q 2881 2450 2695 2645 
Q 2509 2841 2209 2841 
Q 1884 2841 1681 2658 
Q 1478 2475 1428 2131 
L 2881 2131 
z
" transform="scale(0.015625)"/>
      <path id="DejaVuSans-Bold-72" d="M 3138 2547 
Q 2991 2616 2845 2648 
Q 2700 2681 2553 2681 
Q 2122 2681 1889 2404 
Q 1656 2128 1656 1613 
L 1656 0 
L 538 0 
L 538 3500 
L 1656 3500 
L 1656 2925 
Q 1872 3269 2151 3426 
Q 2431 3584 2822 3584 
Q 2878 3584 2943 3579 
Q 3009 3575 3134 3559 
L 3138 2547 
z
" transform="scale(0.015625)"/>
      <path id="DejaVuSans-Bold-61" d="M 2106 1575 
Q 1756 1575 1579 1456 
Q 1403 1338 1403 1106 
Q 1403 894 1545 773 
Q 1688 653 1941 653 
Q 2256 653 2472 879 
Q 2688 1106 2688 1447 
L 2688 1575 
L 2106 1575 
z
M 3816 1997 
L 3816 0 
L 2688 0 
L 2688 519 
Q 2463 200 2181 54 
Q 1900 -91 1497 -91 
Q 953 -91 614 226 
Q 275 544 275 1050 
Q 275 1666 698 1953 
Q 1122 2241 2028 2241 
L 2688 2241 
L 2688 2328 
Q 2688 2594 2478 2717 
Q 2269 2841 1825 2841 
Q 1466 2841 1156 2769 
Q 847 2697 581 2553 
L 581 3406 
Q 941 3494 1303 3539 
Q 1666 3584 2028 3584 
Q 2975 3584 3395 3211 
Q 3816 2838 3816 1997 
z
" transform="scale(0.015625)"/>
      <path id="DejaVuSans-Bold-74" d="M 1759 4494 
L 1759 3500 
L 2913 3500 
L 2913 2700 
L 1759 2700 
L 1759 1216 
Q 1759 972 1856 886 
Q 1953 800 2241 800 
L 2816 800 
L 2816 0 
L 1856 0 
Q 1194 0 917 276 
Q 641 553 641 1216 
L 641 2700 
L 84 2700 
L 84 3500 
L 641 3500 
L 641 4494 
L 1759 4494 
z
" transform="scale(0.015625)"/>
      <path id="DejaVuSans-Bold-69" d="M 538 3500 
L 1656 3500 
L 1656 0 
L 538 0 
L 538 3500 
z
M 538 4863 
L 1656 4863 
L 1656 3950 
L 538 3950 
L 538 4863 
z
" transform="scale(0.015625)"/>
      <path id="DejaVuSans-Bold-6f" d="M 2203 2784 
Q 1831 2784 1636 2517 
Q 1441 2250 1441 1747 
Q 1441 1244 1636 976 
Q 1831 709 2203 709 
Q 2569 709 2762 976 
Q 2956 1244 2956 1747 
Q 2956 2250 2762 2517 
Q 2569 2784 2203 2784 
z
M 2203 3584 
Q 3106 3584 3614 3096 
Q 4122 2609 4122 1747 
Q 4122 884 3614 396 
Q 3106 -91 2203 -91 
Q 1297 -91 786 396 
Q 275 884 275 1747 
Q 275 2609 786 3096 
Q 1297 3584 2203 3584 
z
" transform="scale(0.015625)"/>
      <path id="DejaVuSans-Bold-6e" d="M 4056 2131 
L 4056 0 
L 2931 0 
L 2931 347 
L 2931 1631 
Q 2931 2084 2911 2256 
Q 2891 2428 2841 2509 
Q 2775 2619 2662 2680 
Q 2550 2741 2406 2741 
Q 2056 2741 1856 2470 
Q 1656 2200 1656 1722 
L 1656 0 
L 538 0 
L 538 3500 
L 1656 3500 
L 1656 2988 
Q 1909 3294 2193 3439 
Q 2478 3584 2822 3584 
Q 3428 3584 3742 3212 
Q 4056 2841 4056 2131 
z
" transform="scale(0.015625)"/>
      <path id="DejaVuSans-Bold-6c" d="M 538 4863 
L 1656 4863 
L 1656 0 
L 538 0 
L 538 4863 
z
" transform="scale(0.015625)"/>
      <path id="DejaVuSans-Bold-20" transform="scale(0.015625)"/>
      <path id="DejaVuSans-Bold-49" d="M 588 4666 
L 1791 4666 
L 1791 0 
L 588 0 
L 588 4666 
z
" transform="scale(0.015625)"/>
      <path id="DejaVuSans-Bold-73" d="M 3272 3391 
L 3272 2541 
Q 2913 2691 2578 2766 
Q 2244 2841 1947 2841 
Q 1628 2841 1473 2761 
Q 1319 2681 1319 2516 
Q 1319 2381 1436 2309 
Q 1553 2238 1856 2203 
L 2053 2175 
Q 2913 2066 3209 1816 
Q 3506 1566 3506 1031 
Q 3506 472 3093 190 
Q 2681 -91 1863 -91 
Q 1516 -91 1145 -36 
Q 775 19 384 128 
L 384 978 
Q 719 816 1070 734 
Q 1422 653 1784 653 
Q 2113 653 2278 743 
Q 2444 834 2444 1013 
Q 2444 1163 2330 1236 
Q 2216 1309 1875 1350 
L 1678 1375 
Q 931 1469 631 1722 
Q 331 1975 331 2491 
Q 331 3047 712 3315 
Q 1094 3584 1881 3584 
Q 2191 3584 2531 3537 
Q 2872 3491 3272 3391 
z
" transform="scale(0.015625)"/>
      <path id="DejaVuSans-Bold-79" d="M 78 3500 
L 1197 3500 
L 2138 1125 
L 2938 3500 
L 4056 3500 
L 2584 -331 
Q 2363 -916 2067 -1148 
Q 1772 -1381 1288 -1381 
L 641 -1381 
L 641 -647 
L 991 -647 
Q 1275 -647 1404 -556 
Q 1534 -466 1606 -231 
L 1638 -134 
L 78 3500 
z
" transform="scale(0.015625)"/>
      <path id="DejaVuSans-Bold-28" d="M 2413 -844 
L 1484 -844 
Q 1006 -72 778 623 
Q 550 1319 550 2003 
Q 550 2688 779 3389 
Q 1009 4091 1484 4856 
L 2413 4856 
Q 2013 4116 1813 3408 
Q 1613 2700 1613 2009 
Q 1613 1319 1811 609 
Q 2009 -100 2413 -844 
z
" transform="scale(0.015625)"/>
      <path id="DejaVuSans-Bold-4c" d="M 588 4666 
L 1791 4666 
L 1791 909 
L 3903 909 
L 3903 0 
L 588 0 
L 588 4666 
z
" transform="scale(0.015625)"/>
      <path id="DejaVuSans-Bold-33" d="M 2981 2516 
Q 3453 2394 3698 2092 
Q 3944 1791 3944 1325 
Q 3944 631 3412 270 
Q 2881 -91 1863 -91 
Q 1503 -91 1142 -33 
Q 781 25 428 141 
L 428 1069 
Q 766 900 1098 814 
Q 1431 728 1753 728 
Q 2231 728 2486 893 
Q 2741 1059 2741 1369 
Q 2741 1688 2480 1852 
Q 2219 2016 1709 2016 
L 1228 2016 
L 1228 2791 
L 1734 2791 
Q 2188 2791 2409 2933 
Q 2631 3075 2631 3366 
Q 2631 3634 2415 3781 
Q 2200 3928 1806 3928 
Q 1516 3928 1219 3862 
Q 922 3797 628 3669 
L 628 4550 
Q 984 4650 1334 4700 
Q 1684 4750 2022 4750 
Q 2931 4750 3382 4451 
Q 3834 4153 3834 3553 
Q 3834 3144 3618 2883 
Q 3403 2622 2981 2516 
z
" transform="scale(0.015625)"/>
      <path id="DejaVuSans-Bold-29" d="M 513 -844 
Q 913 -100 1113 609 
Q 1313 1319 1313 2009 
Q 1313 2700 1113 3408 
Q 913 4116 513 4856 
L 1441 4856 
Q 1916 4091 2145 3389 
Q 2375 2688 2375 2003 
Q 2375 1319 2147 623 
Q 1919 -72 1441 -844 
L 513 -844 
z
" transform="scale(0.015625)"/>
      <path id="DejaVuSans-Bold-3a" d="M 716 3500 
L 1844 3500 
L 1844 2291 
L 716 2291 
L 716 3500 
z
M 716 1209 
L 1844 1209 
L 1844 0 
L 716 0 
L 716 1209 
z
" transform="scale(0.015625)"/>
      <path id="DejaVuSans-Bold-43" d="M 4288 256 
Q 3956 84 3597 -3 
Q 3238 -91 2847 -91 
Q 1681 -91 1000 561 
Q 319 1213 319 2328 
Q 319 3447 1000 4098 
Q 1681 4750 2847 4750 
Q 3238 4750 3597 4662 
Q 3956 4575 4288 4403 
L 4288 3438 
Q 3953 3666 3628 3772 
Q 3303 3878 2944 3878 
Q 2300 3878 1931 3465 
Q 1563 3053 1563 2328 
Q 1563 1606 1931 1193 
Q 2300 781 2944 781 
Q 3303 781 3628 887 
Q 3953 994 4288 1222 
L 4288 256 
z
" transform="scale(0.015625)"/>
      <path id="DejaVuSans-Bold-37" d="M 428 4666 
L 3944 4666 
L 3944 3988 
L 2125 0 
L 953 0 
L 2675 3781 
L 428 3781 
L 428 4666 
z
" transform="scale(0.015625)"/>
      <path id="DejaVuSans-Bold-32" d="M 1844 884 
L 3897 884 
L 3897 0 
L 506 0 
L 506 884 
L 2209 2388 
Q 2438 2594 2547 2791 
Q 2656 2988 2656 3200 
Q 2656 3528 2436 3728 
Q 2216 3928 1850 3928 
Q 1569 3928 1234 3808 
Q 900 3688 519 3450 
L 519 4475 
Q 925 4609 1322 4679 
Q 1719 4750 2100 4750 
Q 2938 4750 3402 4381 
Q 3866 4013 3866 3353 
Q 3866 2972 3669 2642 
Q 3472 2313 2841 1759 
L 1844 884 
z
" transform="scale(0.015625)"/>
      <path id="DejaVuSans-Bold-34" d="M 2356 3675 
L 1038 1722 
L 2356 1722 
L 2356 3675 
z
M 2156 4666 
L 3494 4666 
L 3494 1722 
L 4159 1722 
L 4159 850 
L 3494 850 
L 3494 0 
L 2356 0 
L 2356 850 
L 288 850 
L 288 1881 
L 2156 4666 
z
" transform="scale(0.015625)"/>
      <path id="DejaVuSans-Bold-30" d="M 2944 2338 
Q 2944 3213 2780 3570 
Q 2616 3928 2228 3928 
Q 1841 3928 1675 3570 
Q 1509 3213 1509 2338 
Q 1509 1453 1675 1090 
Q 1841 728 2228 728 
Q 2613 728 2778 1090 
Q 2944 1453 2944 2338 
z
M 4147 2328 
Q 4147 1169 3647 539 
Q 3147 -91 2228 -91 
Q 1306 -91 806 539 
Q 306 1169 306 2328 
Q 306 3491 806 4120 
Q 1306 4750 2228 4750 
Q 3147 4750 3647 4120 
Q 4147 3491 4147 2328 
z
" transform="scale(0.015625)"/>
      <path id="DejaVuSans-Bold-48" d="M 588 4666 
L 1791 4666 
L 1791 2888 
L 3566 2888 
L 3566 4666 
L 4769 4666 
L 4769 0 
L 3566 0 
L 3566 1978 
L 1791 1978 
L 1791 0 
L 588 0 
L 588 4666 
z
" transform="scale(0.015625)"/>
      <path id="DejaVuSans-Bold-50" d="M 588 4666 
L 2584 4666 
Q 3475 4666 3951 4270 
Q 4428 3875 4428 3144 
Q 4428 2409 3951 2014 
Q 3475 1619 2584 1619 
L 1791 1619 
L 1791 0 
L 588 0 
L 588 4666 
z
M 1791 3794 
L 1791 2491 
L 2456 2491 
Q 2806 2491 2997 2661 
Q 3188 2831 3188 3144 
Q 3188 3456 2997 3625 
Q 2806 3794 2456 3794 
L 1791 3794 
z
" transform="scale(0.015625)"/>
      <path id="DejaVuSans-Bold-2d" d="M 347 2297 
L 2309 2297 
L 2309 1388 
L 347 1388 
L 347 2297 
z
" transform="scale(0.015625)"/>
      <path id="DejaVuSans-Bold-63" d="M 3366 3391 
L 3366 2478 
Q 3138 2634 2908 2709 
Q 2678 2784 2431 2784 
Q 1963 2784 1702 2511 
Q 1441 2238 1441 1747 
Q 1441 1256 1702 982 
Q 1963 709 2431 709 
Q 2694 709 2930 787 
Q 3166 866 3366 1019 
L 3366 103 
Q 3103 6 2833 -42 
Q 2563 -91 2291 -91 
Q 1344 -91 809 395 
Q 275 881 275 1747 
Q 275 2613 809 3098 
Q 1344 3584 2291 3584 
Q 2566 3584 2833 3536 
Q 3100 3488 3366 3391 
z
" transform="scale(0.015625)"/>
      <path id="DejaVuSans-Bold-2c" d="M 653 1209 
L 1778 1209 
L 1778 256 
L 1006 -909 
L 341 -909 
L 653 256 
L 653 1209 
z
" transform="scale(0.015625)"/>
      <path id="DejaVuSans-Bold-2e" d="M 653 1209 
L 1778 1209 
L 1778 0 
L 653 0 
L 653 1209 
z
" transform="scale(0.015625)"/>
      <path id="DejaVuSans-Bold-35" d="M 678 4666 
L 3669 4666 
L 3669 3781 
L 1638 3781 
L 1638 3059 
Q 1775 3097 1914 3117 
Q 2053 3138 2203 3138 
Q 3056 3138 3531 2711 
Q 4006 2284 4006 1522 
Q 4006 766 3489 337 
Q 2972 -91 2053 -91 
Q 1656 -91 1267 -14 
Q 878 63 494 219 
L 494 1166 
Q 875 947 1217 837 
Q 1559 728 1863 728 
Q 2300 728 2551 942 
Q 2803 1156 2803 1522 
Q 2803 1891 2551 2103 
Q 2300 2316 1863 2316 
Q 1603 2316 1309 2248 
Q 1016 2181 678 2041 
L 678 4666 
z
" transform="scale(0.015625)"/>
      <path id="DejaVuSans-Bold-47" d="M 4781 347 
Q 4331 128 3847 18 
Q 3363 -91 2847 -91 
Q 1681 -91 1000 561 
Q 319 1213 319 2328 
Q 319 3456 1012 4103 
Q 1706 4750 2913 4750 
Q 3378 4750 3804 4662 
Q 4231 4575 4609 4403 
L 4609 3438 
Q 4219 3659 3833 3768 
Q 3447 3878 3059 3878 
Q 2341 3878 1952 3476 
Q 1563 3075 1563 2328 
Q 1563 1588 1938 1184 
Q 2313 781 3003 781 
Q 3191 781 3352 804 
Q 3513 828 3641 878 
L 3641 1784 
L 2906 1784 
L 2906 2591 
L 4781 2591 
L 4781 347 
z
" transform="scale(0.015625)"/>
      <path id="DejaVuSans-Bold-7a" d="M 366 3500 
L 3419 3500 
L 3419 2719 
L 1575 800 
L 3419 800 
L 3419 0 
L 288 0 
L 288 781 
L 2131 2700 
L 366 2700 
L 366 3500 
z
" transform="scale(0.015625)"/>
     </defs>
     <use xlink:href="#DejaVuSans-Bold-4f"/>
     <use xlink:href="#DejaVuSans-Bold-70" transform="translate(85.009766 0)"/>
     <use xlink:href="#DejaVuSans-Bold-65" transform="translate(156.591797 0)"/>
     <use xlink:href="#DejaVuSans-Bold-72" transform="translate(224.414062 0)"/>
     <use xlink:href="#DejaVuSans-Bold-61" transform="translate(273.730469 0)"/>
     <use xlink:href="#DejaVuSans-Bold-74" transform="translate(341.210938 0)"/>
     <use xlink:href="#DejaVuSans-Bold-69" transform="translate(389.013672 0)"/>
     <use xlink:href="#DejaVuSans-Bold-6f" transform="translate(423.291016 0)"/>
     <use xlink:href="#DejaVuSans-Bold-6e" transform="translate(491.992188 0)"/>
     <use xlink:href="#DejaVuSans-Bold-61" transform="translate(563.183594 0)"/>
     <use xlink:href="#DejaVuSans-Bold-6c" transform="translate(630.664062 0)"/>
     <use xlink:href="#DejaVuSans-Bold-20" transform="translate(664.941406 0)"/>
     <use xlink:href="#DejaVuSans-Bold-49" transform="translate(699.755859 0)"/>
     <use xlink:href="#DejaVuSans-Bold-6e" transform="translate(736.962891 0)"/>
     <use xlink:href="#DejaVuSans-Bold-74" transform="translate(808.154297 0)"/>
     <use xlink:href="#DejaVuSans-Bold-65" transform="translate(855.957031 0)"/>
     <use xlink:href="#DejaVuSans-Bold-6e" transform="translate(923.779297 0)"/>
     <use xlink:href="#DejaVuSans-Bold-73" transform="translate(994.970703 0)"/>
     <use xlink:href="#DejaVuSans-Bold-69" transform="translate(1054.492188 0)"/>
     <use xlink:href="#DejaVuSans-Bold-74" transform="translate(1088.769531 0)"/>
     <use xlink:href="#DejaVuSans-Bold-79" transform="translate(1136.572266 0)"/>
     <use xlink:href="#DejaVuSans-Bold-20" transform="translate(1201.757812 0)"/>
     <use xlink:href="#DejaVuSans-Bold-28" transform="translate(1236.572266 0)"/>
     <use xlink:href="#DejaVuSans-Bold-4c" transform="translate(1282.275391 0)"/>
     <use xlink:href="#DejaVuSans-Bold-33" transform="translate(1345.996094 0)"/>
     <use xlink:href="#DejaVuSans-Bold-29" transform="translate(1415.576172 0)"/>
     <use xlink:href="#DejaVuSans-Bold-3a" transform="translate(1461.279297 0)"/>
     <use xlink:href="#DejaVuSans-Bold-20" transform="translate(1501.269531 0)"/>
     <use xlink:href="#DejaVuSans-Bold-49" transform="translate(1536.083984 0)"/>
     <use xlink:href="#DejaVuSans-Bold-6e" transform="translate(1573.291016 0)"/>
     <use xlink:href="#DejaVuSans-Bold-74" transform="translate(1644.482422 0)"/>
     <use xlink:href="#DejaVuSans-Bold-65" transform="translate(1692.285156 0)"/>
     <use xlink:href="#DejaVuSans-Bold-6c" transform="translate(1760.107422 0)"/>
     <use xlink:href="#DejaVuSans-Bold-20" transform="translate(1794.384766 0)"/>
     <use xlink:href="#DejaVuSans-Bold-43" transform="translate(1829.199219 0)"/>
     <use xlink:href="#DejaVuSans-Bold-6f" transform="translate(1902.587891 0)"/>
     <use xlink:href="#DejaVuSans-Bold-72" transform="translate(1971.289062 0)"/>
     <use xlink:href="#DejaVuSans-Bold-65" transform="translate(2020.605469 0)"/>
     <use xlink:href="#DejaVuSans-Bold-20" transform="translate(2088.427734 0)"/>
     <use xlink:href="#DejaVuSans-Bold-37" transform="translate(2123.242188 0)"/>
     <use xlink:href="#DejaVuSans-Bold-20" transform="translate(2192.822266 0)"/>
     <use xlink:href="#DejaVuSans-Bold-32" transform="translate(2227.636719 0)"/>
     <use xlink:href="#DejaVuSans-Bold-34" transform="translate(2297.216797 0)"/>
     <use xlink:href="#DejaVuSans-Bold-30" transform="translate(2366.796875 0)"/>
     <use xlink:href="#DejaVuSans-Bold-48" transform="translate(2436.376953 0)"/>
     <use xlink:href="#DejaVuSans-Bold-20" transform="translate(2520.068359 0)"/>
     <use xlink:href="#DejaVuSans-Bold-28" transform="translate(2554.882812 0)"/>
     <use xlink:href="#DejaVuSans-Bold-50" transform="translate(2600.585938 0)"/>
     <use xlink:href="#DejaVuSans-Bold-2d" transform="translate(2672.126953 0)"/>
     <use xlink:href="#DejaVuSans-Bold-63" transform="translate(2713.630859 0)"/>
     <use xlink:href="#DejaVuSans-Bold-6f" transform="translate(2772.908203 0)"/>
     <use xlink:href="#DejaVuSans-Bold-72" transform="translate(2841.609375 0)"/>
     <use xlink:href="#DejaVuSans-Bold-65" transform="translate(2890.925781 0)"/>
     <use xlink:href="#DejaVuSans-Bold-2c" transform="translate(2958.748047 0)"/>
     <use xlink:href="#DejaVuSans-Bold-20" transform="translate(2996.736328 0)"/>
     <use xlink:href="#DejaVuSans-Bold-32" transform="translate(3031.550781 0)"/>
     <use xlink:href="#DejaVuSans-Bold-2e" transform="translate(3101.130859 0)"/>
     <use xlink:href="#DejaVuSans-Bold-35" transform="translate(3139.119141 0)"/>
     <use xlink:href="#DejaVuSans-Bold-47" transform="translate(3208.699219 0)"/>
     <use xlink:href="#DejaVuSans-Bold-48" transform="translate(3290.779297 0)"/>
     <use xlink:href="#DejaVuSans-Bold-7a" transform="translate(3374.470703 0)"/>
     <use xlink:href="#DejaVuSans-Bold-29" transform="translate(3432.673828 0)"/>
    </g>
   </g>
   <g id="line2d_30">
    <path d="M 60.510682 163.136906 
L 265.331894 368.757979 
L 325.238258 363.14676 
L 470.153106 370.614004 
L 572.563712 368.240407 
L 632.470076 367.053563 
L 655.245419 366.481549 
L 674.974318 367.256794 
" clip-path="url(#pddf20ae44e)" style="fill: none; stroke-dasharray: 11.84,5.12; stroke-dashoffset: 0; stroke: #8b0000; stroke-width: 3.2"/>
    <defs>
     <path id="mf5d1929644" d="M 0 3 
C 0.795609 3 1.55874 2.683901 2.12132 2.12132 
C 2.683901 1.55874 3 0.795609 3 0 
C 3 -0.795609 2.683901 -1.55874 2.12132 -2.12132 
C 1.55874 -2.683901 0.795609 -3 0 -3 
C -0.795609 -3 -1.55874 -2.683901 -2.12132 -2.12132 
C -2.683901 -1.55874 -3 -0.795609 -3 0 
C -3 0.795609 -2.683901 1.55874 -2.12132 2.12132 
C -1.55874 2.683901 -0.795609 3 0 3 
z
" style="stroke: #8b0000"/>
    </defs>
    <g clip-path="url(#pddf20ae44e)">
     <use xlink:href="#mf5d1929644" x="60.510682" y="163.136906" style="fill: #8b0000; stroke: #8b0000"/>
     <use xlink:href="#mf5d1929644" x="265.331894" y="368.757979" style="fill: #8b0000; stroke: #8b0000"/>
     <use xlink:href="#mf5d1929644" x="325.238258" y="363.14676" style="fill: #8b0000; stroke: #8b0000"/>
     <use xlink:href="#mf5d1929644" x="470.153106" y="370.614004" style="fill: #8b0000; stroke: #8b0000"/>
     <use xlink:href="#mf5d1929644" x="572.563712" y="368.240407" style="fill: #8b0000; stroke: #8b0000"/>
     <use xlink:href="#mf5d1929644" x="632.470076" y="367.053563" style="fill: #8b0000; stroke: #8b0000"/>
     <use xlink:href="#mf5d1929644" x="655.245419" y="366.481549" style="fill: #8b0000; stroke: #8b0000"/>
     <use xlink:href="#mf5d1929644" x="674.974318" y="367.256794" style="fill: #8b0000; stroke: #8b0000"/>
    </g>
   </g>
   <g id="text_15">
    <!-- baseline -->
    <g style="fill: #ca8a04" transform="translate(241.632675 215.9887) scale(0.1 -0.1)">
     <defs>
      <path id="DejaVuSans-Bold-62" d="M 2400 722 
Q 2759 722 2948 984 
Q 3138 1247 3138 1747 
Q 3138 2247 2948 2509 
Q 2759 2772 2400 2772 
Q 2041 2772 1848 2508 
Q 1656 2244 1656 1747 
Q 1656 1250 1848 986 
Q 2041 722 2400 722 
z
M 1656 2988 
Q 1888 3294 2169 3439 
Q 2450 3584 2816 3584 
Q 3463 3584 3878 3070 
Q 4294 2556 4294 1747 
Q 4294 938 3878 423 
Q 3463 -91 2816 -91 
Q 2450 -91 2169 54 
Q 1888 200 1656 506 
L 1656 0 
L 538 0 
L 538 4863 
L 1656 4863 
L 1656 2988 
z
" transform="scale(0.015625)"/>
     </defs>
     <use xlink:href="#DejaVuSans-Bold-62"/>
     <use xlink:href="#DejaVuSans-Bold-61" transform="translate(71.582031 0)"/>
     <use xlink:href="#DejaVuSans-Bold-73" transform="translate(139.0625 0)"/>
     <use xlink:href="#DejaVuSans-Bold-65" transform="translate(198.583984 0)"/>
     <use xlink:href="#DejaVuSans-Bold-6c" transform="translate(266.40625 0)"/>
     <use xlink:href="#DejaVuSans-Bold-69" transform="translate(300.683594 0)"/>
     <use xlink:href="#DejaVuSans-Bold-6e" transform="translate(334.960938 0)"/>
     <use xlink:href="#DejaVuSans-Bold-65" transform="translate(406.152344 0)"/>
    </g>
   </g>
   <g id="text_16">
    <!-- ezgatr -->
    <g style="fill: #8b0000" transform="translate(307.128102 374.926107) scale(0.1 -0.1)">
     <defs>
      <path id="DejaVuSans-Bold-67" d="M 2919 594 
Q 2688 288 2409 144 
Q 2131 0 1766 0 
Q 1125 0 706 504 
Q 288 1009 288 1791 
Q 288 2575 706 3076 
Q 1125 3578 1766 3578 
Q 2131 3578 2409 3434 
Q 2688 3291 2919 2981 
L 2919 3500 
L 4044 3500 
L 4044 353 
Q 4044 -491 3511 -936 
Q 2978 -1381 1966 -1381 
Q 1638 -1381 1331 -1331 
Q 1025 -1281 716 -1178 
L 716 -306 
Q 1009 -475 1290 -558 
Q 1572 -641 1856 -641 
Q 2406 -641 2662 -400 
Q 2919 -159 2919 353 
L 2919 594 
z
M 2181 2772 
Q 1834 2772 1640 2515 
Q 1447 2259 1447 1791 
Q 1447 1309 1634 1061 
Q 1822 813 2181 813 
Q 2531 813 2725 1069 
Q 2919 1325 2919 1791 
Q 2919 2259 2725 2515 
Q 2531 2772 2181 2772 
z
" transform="scale(0.015625)"/>
     </defs>
     <use xlink:href="#DejaVuSans-Bold-65"/>
     <use xlink:href="#DejaVuSans-Bold-7a" transform="translate(67.822266 0)"/>
     <use xlink:href="#DejaVuSans-Bold-67" transform="translate(126.025391 0)"/>
     <use xlink:href="#DejaVuSans-Bold-61" transform="translate(197.607422 0)"/>
     <use xlink:href="#DejaVuSans-Bold-74" transform="translate(265.087891 0)"/>
     <use xlink:href="#DejaVuSans-Bold-72" transform="translate(312.890625 0)"/>
    </g>
   </g>
   <g id="text_17">
    <!-- ScalarGatorV1 -->
    <g style="fill: #ea580c" transform="translate(429.54295 320.289035) scale(0.1 -0.1)">
     <defs>
      <path id="DejaVuSans-Bold-53" d="M 3834 4519 
L 3834 3531 
Q 3450 3703 3084 3790 
Q 2719 3878 2394 3878 
Q 1963 3878 1756 3759 
Q 1550 3641 1550 3391 
Q 1550 3203 1689 3098 
Q 1828 2994 2194 2919 
L 2706 2816 
Q 3484 2659 3812 2340 
Q 4141 2022 4141 1434 
Q 4141 663 3683 286 
Q 3225 -91 2284 -91 
Q 1841 -91 1394 -6 
Q 947 78 500 244 
L 500 1259 
Q 947 1022 1364 901 
Q 1781 781 2169 781 
Q 2563 781 2772 912 
Q 2981 1044 2981 1288 
Q 2981 1506 2839 1625 
Q 2697 1744 2272 1838 
L 1806 1941 
Q 1106 2091 782 2419 
Q 459 2747 459 3303 
Q 459 4000 909 4375 
Q 1359 4750 2203 4750 
Q 2588 4750 2994 4692 
Q 3400 4634 3834 4519 
z
" transform="scale(0.015625)"/>
      <path id="DejaVuSans-Bold-56" d="M 31 4666 
L 1241 4666 
L 2478 1222 
L 3713 4666 
L 4922 4666 
L 3194 0 
L 1759 0 
L 31 4666 
z
" transform="scale(0.015625)"/>
      <path id="DejaVuSans-Bold-31" d="M 750 831 
L 1813 831 
L 1813 3847 
L 722 3622 
L 722 4441 
L 1806 4666 
L 2950 4666 
L 2950 831 
L 4013 831 
L 4013 0 
L 750 0 
L 750 831 
z
" transform="scale(0.015625)"/>
     </defs>
     <use xlink:href="#DejaVuSans-Bold-53"/>
     <use xlink:href="#DejaVuSans-Bold-63" transform="translate(72.021484 0)"/>
     <use xlink:href="#DejaVuSans-Bold-61" transform="translate(131.298828 0)"/>
     <use xlink:href="#DejaVuSans-Bold-6c" transform="translate(198.779297 0)"/>
     <use xlink:href="#DejaVuSans-Bold-61" transform="translate(233.056641 0)"/>
     <use xlink:href="#DejaVuSans-Bold-72" transform="translate(300.537109 0)"/>
     <use xlink:href="#DejaVuSans-Bold-47" transform="translate(349.853516 0)"/>
     <use xlink:href="#DejaVuSans-Bold-61" transform="translate(431.933594 0)"/>
     <use xlink:href="#DejaVuSans-Bold-74" transform="translate(499.414062 0)"/>
     <use xlink:href="#DejaVuSans-Bold-6f" transform="translate(547.216797 0)"/>
     <use xlink:href="#DejaVuSans-Bold-72" transform="translate(615.917969 0)"/>
     <use xlink:href="#DejaVuSans-Bold-56" transform="translate(665.234375 0)"/>
     <use xlink:href="#DejaVuSans-Bold-31" transform="translate(742.626953 0)"/>
    </g>
   </g>
   <g id="text_18">
    <!-- ScalarGatorV2 -->
    <g style="fill: #475569" transform="translate(531.953556 354.630538) scale(0.1 -0.1)">
     <use xlink:href="#DejaVuSans-Bold-53"/>
     <use xlink:href="#DejaVuSans-Bold-63" transform="translate(72.021484 0)"/>
     <use xlink:href="#DejaVuSans-Bold-61" transform="translate(131.298828 0)"/>
     <use xlink:href="#DejaVuSans-Bold-6c" transform="translate(198.779297 0)"/>
     <use xlink:href="#DejaVuSans-Bold-61" transform="translate(233.056641 0)"/>
     <use xlink:href="#DejaVuSans-Bold-72" transform="translate(300.537109 0)"/>
     <use xlink:href="#DejaVuSans-Bold-47" transform="translate(349.853516 0)"/>
     <use xlink:href="#DejaVuSans-Bold-61" transform="translate(431.933594 0)"/>
     <use xlink:href="#DejaVuSans-Bold-74" transform="translate(499.414062 0)"/>
     <use xlink:href="#DejaVuSans-Bold-6f" transform="translate(547.216797 0)"/>
     <use xlink:href="#DejaVuSans-Bold-72" transform="translate(615.917969 0)"/>
     <use xlink:href="#DejaVuSans-Bold-56" transform="translate(665.234375 0)"/>
     <use xlink:href="#DejaVuSans-Bold-32" transform="translate(742.626953 0)"/>
    </g>
   </g>
   <g id="text_19">
    <!-- TurboGator -->
    <g style="fill: #0d9488" transform="translate(51.964595 283.622898) scale(0.1 -0.1)">
     <defs>
      <path id="DejaVuSans-Bold-54" d="M 31 4666 
L 4331 4666 
L 4331 3756 
L 2784 3756 
L 2784 0 
L 1581 0 
L 1581 3756 
L 31 3756 
L 31 4666 
z
" transform="scale(0.015625)"/>
      <path id="DejaVuSans-Bold-75" d="M 500 1363 
L 500 3500 
L 1625 3500 
L 1625 3150 
Q 1625 2866 1622 2436 
Q 1619 2006 1619 1863 
Q 1619 1441 1641 1255 
Q 1663 1069 1716 984 
Q 1784 875 1895 815 
Q 2006 756 2150 756 
Q 2500 756 2700 1025 
Q 2900 1294 2900 1772 
L 2900 3500 
L 4019 3500 
L 4019 0 
L 2900 0 
L 2900 506 
Q 2647 200 2364 54 
Q 2081 -91 1741 -91 
Q 1134 -91 817 281 
Q 500 653 500 1363 
z
" transform="scale(0.015625)"/>
     </defs>
     <use xlink:href="#DejaVuSans-Bold-54"/>
     <use xlink:href="#DejaVuSans-Bold-75" transform="translate(57.212891 0)"/>
     <use xlink:href="#DejaVuSans-Bold-72" transform="translate(128.404297 0)"/>
     <use xlink:href="#DejaVuSans-Bold-62" transform="translate(177.720703 0)"/>
     <use xlink:href="#DejaVuSans-Bold-6f" transform="translate(249.302734 0)"/>
     <use xlink:href="#DejaVuSans-Bold-47" transform="translate(318.003906 0)"/>
     <use xlink:href="#DejaVuSans-Bold-61" transform="translate(400.083984 0)"/>
     <use xlink:href="#DejaVuSans-Bold-74" transform="translate(467.564453 0)"/>
     <use xlink:href="#DejaVuSans-Bold-6f" transform="translate(515.367188 0)"/>
     <use xlink:href="#DejaVuSans-Bold-72" transform="translate(584.068359 0)"/>
    </g>
   </g>
   <g id="text_20">
    <!-- TurboGator+ -->
    <g style="fill: #1e3a8a" transform="translate(434.294512 363.375296) scale(0.1 -0.1)">
     <defs>
      <path id="DejaVuSans-Bold-2b" d="M 3053 4013 
L 3053 2375 
L 4684 2375 
L 4684 1638 
L 3053 1638 
L 3053 0 
L 2309 0 
L 2309 1638 
L 678 1638 
L 678 2375 
L 2309 2375 
L 2309 4013 
L 3053 4013 
z
" transform="scale(0.015625)"/>
     </defs>
     <use xlink:href="#DejaVuSans-Bold-54"/>
     <use xlink:href="#DejaVuSans-Bold-75" transform="translate(57.212891 0)"/>
     <use xlink:href="#DejaVuSans-Bold-72" transform="translate(128.404297 0)"/>
     <use xlink:href="#DejaVuSans-Bold-62" transform="translate(177.720703 0)"/>
     <use xlink:href="#DejaVuSans-Bold-6f" transform="translate(249.302734 0)"/>
     <use xlink:href="#DejaVuSans-Bold-47" transform="translate(318.003906 0)"/>
     <use xlink:href="#DejaVuSans-Bold-61" transform="translate(400.083984 0)"/>
     <use xlink:href="#DejaVuSans-Bold-74" transform="translate(467.564453 0)"/>
     <use xlink:href="#DejaVuSans-Bold-6f" transform="translate(515.367188 0)"/>
     <use xlink:href="#DejaVuSans-Bold-72" transform="translate(584.068359 0)"/>
     <use xlink:href="#DejaVuSans-Bold-2b" transform="translate(633.384766 0)"/>
    </g>
   </g>
   <g id="text_21">
    <g id="patch_4">
     <path d="M 402.99027 66.272699 
L 452.307458 66.272699 
Q 454.807458 66.272699 454.807458 63.772699 
L 454.807458 54.094574 
Q 454.807458 51.594574 452.307458 51.594574 
L 402.99027 51.594574 
Q 400.49027 51.594574 400.49027 54.094574 
L 400.49027 63.772699 
Q 400.49027 66.272699 402.99027 66.272699 
z
" style="fill: #ffffff; opacity: 0.85; stroke: #595959; stroke-width: 0.6; stroke-linejoin: miter"/>
    </g>
    <!-- L2 cache -->
    <g style="fill: #595959" transform="translate(402.99027 61.693011) scale(0.1 -0.1)">
     <defs>
      <path id="DejaVuSans-Bold-68" d="M 4056 2131 
L 4056 0 
L 2931 0 
L 2931 347 
L 2931 1625 
Q 2931 2084 2911 2256 
Q 2891 2428 2841 2509 
Q 2775 2619 2662 2680 
Q 2550 2741 2406 2741 
Q 2056 2741 1856 2470 
Q 1656 2200 1656 1722 
L 1656 0 
L 538 0 
L 538 4863 
L 1656 4863 
L 1656 2988 
Q 1909 3294 2193 3439 
Q 2478 3584 2822 3584 
Q 3428 3584 3742 3212 
Q 4056 2841 4056 2131 
z
" transform="scale(0.015625)"/>
     </defs>
     <use xlink:href="#DejaVuSans-Bold-4c"/>
     <use xlink:href="#DejaVuSans-Bold-32" transform="translate(63.720703 0)"/>
     <use xlink:href="#DejaVuSans-Bold-20" transform="translate(133.300781 0)"/>
     <use xlink:href="#DejaVuSans-Bold-63" transform="translate(168.115234 0)"/>
     <use xlink:href="#DejaVuSans-Bold-61" transform="translate(227.392578 0)"/>
     <use xlink:href="#DejaVuSans-Bold-63" transform="translate(294.873047 0)"/>
     <use xlink:href="#DejaVuSans-Bold-68" transform="translate(354.150391 0)"/>
     <use xlink:href="#DejaVuSans-Bold-65" transform="translate(425.341797 0)"/>
    </g>
   </g>
   <g id="text_22">
    <g id="patch_5">
     <path d="M 633.20189 66.272699 
L 682.519077 66.272699 
Q 685.019077 66.272699 685.019077 63.772699 
L 685.019077 54.094574 
Q 685.019077 51.594574 682.519077 51.594574 
L 633.20189 51.594574 
Q 630.70189 51.594574 630.70189 54.094574 
L 630.70189 63.772699 
Q 630.70189 66.272699 633.20189 66.272699 
z
" style="fill: #ffffff; opacity: 0.85; stroke: #595959; stroke-width: 0.6; stroke-linejoin: miter"/>
    </g>
    <!-- L3 cache -->
    <g style="fill: #595959" transform="translate(633.20189 61.693011) scale(0.1 -0.1)">
     <use xlink:href="#DejaVuSans-Bold-4c"/>
     <use xlink:href="#DejaVuSans-Bold-33" transform="translate(63.720703 0)"/>
     <use xlink:href="#DejaVuSans-Bold-20" transform="translate(133.300781 0)"/>
     <use xlink:href="#DejaVuSans-Bold-63" transform="translate(168.115234 0)"/>
     <use xlink:href="#DejaVuSans-Bold-61" transform="translate(227.392578 0)"/>
     <use xlink:href="#DejaVuSans-Bold-63" transform="translate(294.873047 0)"/>
     <use xlink:href="#DejaVuSans-Bold-68" transform="translate(354.150391 0)"/>
     <use xlink:href="#DejaVuSans-Bold-65" transform="translate(425.341797 0)"/>
    </g>
   </g>
  </g>
 </g>
 <defs>
  <clipPath id="pddf20ae44e">
   <rect x="29.7875" y="33.077969" width="675.91" height="350.27675"/>
  </clipPath>
 </defs>
</svg>
