<?xml version="1.0" encoding="utf-8" standalone="no"?>
<!DOCTYPE svg PUBLIC "-//W3C//DTD SVG 1.1//EN"
  "http://www.w3.org/Graphics/SVG/1.1/DTD/svg11.dtd">
<svg xmlns:xlink="http://www.w3.org/1999/xlink" width="712.87pt" height="851.680344pt" viewBox="0 0 712.87 851.680344" xmlns="http://www.w3.org/2000/svg" version="1.1">
 <metadata>
  <rdf:RDF xmlns:dc="http://purl.org/dc/elements/1.1/" xmlns:cc="http://creativecommons.org/ns#" xmlns:rdf="http://www.w3.org/1999/02/22-rdf-syntax-ns#">
   <cc:Work>
    <dc:type rdf:resource="http://purl.org/dc/dcmitype/StillImage"/>
    <dc:date>2026-05-31T23:21:15.418555</dc:date>
    <dc:format>image/svg+xml</dc:format>
    <dc:creator>
     <cc:Agent>
      <dc:title>Matplotlib v3.10.9, https://matplotlib.org/</dc:title>
     </cc:Agent>
    </dc:creator>
   </cc:Work>
  </rdf:RDF>
 </metadata>
 <defs>
  <style type="text/css">*{stroke-linejoin: round; stroke-linecap: butt}</style>
 </defs>
 <g id="figure_1">
  <g id="patch_1">
   <path d="M 0 851.680344 
L 712.87 851.680344 
L 712.87 0 
L 0 0 
z
" style="fill: #ffffff"/>
  </g>
  <g id="axes_1">
   <g id="patch_2">
    <path d="M 36.15 388.754719 
L 705.67 388.754719 
L 705.67 33.077969 
L 36.15 33.077969 
z
" style="fill: #efefef"/>
   </g>
   <g id="matplotlib.axis_1">
    <g id="xtick_1">
     <g id="line2d_1">
      <path d="M 117.303939 388.754719 
L 117.303939 33.077969 
" clip-path="url(#p1e1f6baf6a)" style="fill: none; stroke: #cccccc; stroke-width: 0.8; stroke-linecap: round"/>
     </g>
     <g id="line2d_2"/>
     <g id="text_1">
      <!-- $\mathdefault{2^{7}}$ -->
      <g style="fill: #262626" transform="translate(111.703939 399.853156) scale(0.1 -0.1)">
       <defs>
        <path id="DejaVuSans-32" d="M 1228 531 
L 3431 531 
L 3431 0 
L 469 0 
L 469 531 
Q 828 903 1448 1529 
Q 2069 2156 2228 2338 
Q 2531 2678 2651 2914 
Q 2772 3150 2772 3378 
Q 2772 3750 2511 3984 
Q 2250 4219 1831 4219 
Q 1534 4219 1204 4116 
Q 875 4013 500 3803 
L 500 4441 
Q 881 4594 1212 4672 
Q 1544 4750 1819 4750 
Q 2544 4750 2975 4387 
Q 3406 4025 3406 3419 
Q 3406 3131 3298 2873 
Q 3191 2616 2906 2266 
Q 2828 2175 2409 1742 
Q 1991 1309 1228 531 
z
" transform="scale(0.015625)"/>
        <path id="DejaVuSans-37" d="M 525 4666 
L 3525 4666 
L 3525 4397 
L 1831 0 
L 1172 0 
L 2766 4134 
L 525 4134 
L 525 4666 
z
" transform="scale(0.015625)"/>
       </defs>
       <use xlink:href="#DejaVuSans-32" transform="translate(0 0.684375)"/>
       <use xlink:href="#DejaVuSans-37" transform="translate(64.580078 38.965625) scale(0.7)"/>
      </g>
     </g>
    </g>
    <g id="xtick_2">
     <g id="line2d_3">
      <path d="M 218.746364 388.754719 
L 218.746364 33.077969 
" clip-path="url(#p1e1f6baf6a)" style="fill: none; stroke: #cccccc; stroke-width: 0.8; stroke-linecap: round"/>
     </g>
     <g id="line2d_4"/>
     <g id="text_2">
      <!-- $\mathdefault{2^{9}}$ -->
      <g style="fill: #262626" transform="translate(213.146364 399.853156) scale(0.1 -0.1)">
       <defs>
        <path id="DejaVuSans-39" d="M 703 97 
L 703 672 
Q 941 559 1184 500 
Q 1428 441 1663 441 
Q 2288 441 2617 861 
Q 2947 1281 2994 2138 
Q 2813 1869 2534 1725 
Q 2256 1581 1919 1581 
Q 1219 1581 811 2004 
Q 403 2428 403 3163 
Q 403 3881 828 4315 
Q 1253 4750 1959 4750 
Q 2769 4750 3195 4129 
Q 3622 3509 3622 2328 
Q 3622 1225 3098 567 
Q 2575 -91 1691 -91 
Q 1453 -91 1209 -44 
Q 966 3 703 97 
z
M 1959 2075 
Q 2384 2075 2632 2365 
Q 2881 2656 2881 3163 
Q 2881 3666 2632 3958 
Q 2384 4250 1959 4250 
Q 1534 4250 1286 3958 
Q 1038 3666 1038 3163 
Q 1038 2656 1286 2365 
Q 1534 2075 1959 2075 
z
" transform="scale(0.015625)"/>
       </defs>
       <use xlink:href="#DejaVuSans-32" transform="translate(0 0.765625)"/>
       <use xlink:href="#DejaVuSans-39" transform="translate(64.580078 39.046875) scale(0.7)"/>
      </g>
     </g>
    </g>
    <g id="xtick_3">
     <g id="line2d_5">
      <path d="M 320.188788 388.754719 
L 320.188788 33.077969 
" clip-path="url(#p1e1f6baf6a)" style="fill: none; stroke: #cccccc; stroke-width: 0.8; stroke-linecap: round"/>
     </g>
     <g id="line2d_6"/>
     <g id="text_3">
      <!-- $\mathdefault{2^{11}}$ -->
      <g style="fill: #262626" transform="translate(312.338788 399.853156) scale(0.1 -0.1)">
       <defs>
        <path id="DejaVuSans-31" d="M 794 531 
L 1825 531 
L 1825 4091 
L 703 3866 
L 703 4441 
L 1819 4666 
L 2450 4666 
L 2450 531 
L 3481 531 
L 3481 0 
L 794 0 
L 794 531 
z
" transform="scale(0.015625)"/>
       </defs>
       <use xlink:href="#DejaVuSans-32" transform="translate(0 0.684375)"/>
       <use xlink:href="#DejaVuSans-31" transform="translate(64.580078 38.965625) scale(0.7)"/>
       <use xlink:href="#DejaVuSans-31" transform="translate(109.116211 38.965625) scale(0.7)"/>
      </g>
     </g>
    </g>
    <g id="xtick_4">
     <g id="line2d_7">
      <path d="M 421.631212 388.754719 
L 421.631212 33.077969 
" clip-path="url(#p1e1f6baf6a)" style="fill: none; stroke: #cccccc; stroke-width: 0.8; stroke-linecap: round"/>
     </g>
     <g id="line2d_8"/>
     <g id="text_4">
      <!-- $\mathdefault{2^{13}}$ -->
      <g style="fill: #262626" transform="translate(413.781212 399.853156) scale(0.1 -0.1)">
       <defs>
        <path id="DejaVuSans-33" d="M 2597 2516 
Q 3050 2419 3304 2112 
Q 3559 1806 3559 1356 
Q 3559 666 3084 287 
Q 2609 -91 1734 -91 
Q 1441 -91 1130 -33 
Q 819 25 488 141 
L 488 750 
Q 750 597 1062 519 
Q 1375 441 1716 441 
Q 2309 441 2620 675 
Q 2931 909 2931 1356 
Q 2931 1769 2642 2001 
Q 2353 2234 1838 2234 
L 1294 2234 
L 1294 2753 
L 1863 2753 
Q 2328 2753 2575 2939 
Q 2822 3125 2822 3475 
Q 2822 3834 2567 4026 
Q 2313 4219 1838 4219 
Q 1578 4219 1281 4162 
Q 984 4106 628 3988 
L 628 4550 
Q 988 4650 1302 4700 
Q 1616 4750 1894 4750 
Q 2613 4750 3031 4423 
Q 3450 4097 3450 3541 
Q 3450 3153 3228 2886 
Q 3006 2619 2597 2516 
z
" transform="scale(0.015625)"/>
       </defs>
       <use xlink:href="#DejaVuSans-32" transform="translate(0 0.765625)"/>
       <use xlink:href="#DejaVuSans-31" transform="translate(64.580078 39.046875) scale(0.7)"/>
       <use xlink:href="#DejaVuSans-33" transform="translate(109.116211 39.046875) scale(0.7)"/>
      </g>
     </g>
    </g>
    <g id="xtick_5">
     <g id="line2d_9">
      <path d="M 523.073636 388.754719 
L 523.073636 33.077969 
" clip-path="url(#p1e1f6baf6a)" style="fill: none; stroke: #cccccc; stroke-width: 0.8; stroke-linecap: round"/>
     </g>
     <g id="line2d_10"/>
     <g id="text_5">
      <!-- $\mathdefault{2^{15}}$ -->
      <g style="fill: #262626" transform="translate(515.223636 399.853156) scale(0.1 -0.1)">
       <defs>
        <path id="DejaVuSans-35" d="M 691 4666 
L 3169 4666 
L 3169 4134 
L 1269 4134 
L 1269 2991 
Q 1406 3038 1543 3061 
Q 1681 3084 1819 3084 
Q 2600 3084 3056 2656 
Q 3513 2228 3513 1497 
Q 3513 744 3044 326 
Q 2575 -91 1722 -91 
Q 1428 -91 1123 -41 
Q 819 9 494 109 
L 494 744 
Q 775 591 1075 516 
Q 1375 441 1709 441 
Q 2250 441 2565 725 
Q 2881 1009 2881 1497 
Q 2881 1984 2565 2268 
Q 2250 2553 1709 2553 
Q 1456 2553 1204 2497 
Q 953 2441 691 2322 
L 691 4666 
z
" transform="scale(0.015625)"/>
       </defs>
       <use xlink:href="#DejaVuSans-32" transform="translate(0 0.684375)"/>
       <use xlink:href="#DejaVuSans-31" transform="translate(64.580078 38.965625) scale(0.7)"/>
       <use xlink:href="#DejaVuSans-35" transform="translate(109.116211 38.965625) scale(0.7)"/>
      </g>
     </g>
    </g>
    <g id="xtick_6">
     <g id="line2d_11">
      <path d="M 624.516061 388.754719 
L 624.516061 33.077969 
" clip-path="url(#p1e1f6baf6a)" style="fill: none; stroke: #cccccc; stroke-width: 0.8; stroke-linecap: round"/>
     </g>
     <g id="line2d_12"/>
     <g id="text_6">
      <!-- $\mathdefault{2^{17}}$ -->
      <g style="fill: #262626" transform="translate(616.666061 399.853156) scale(0.1 -0.1)">
       <use xlink:href="#DejaVuSans-32" transform="translate(0 0.684375)"/>
       <use xlink:href="#DejaVuSans-31" transform="translate(64.580078 38.965625) scale(0.7)"/>
       <use xlink:href="#DejaVuSans-37" transform="translate(109.116211 38.965625) scale(0.7)"/>
      </g>
     </g>
    </g>
    <g id="text_7">
     <!-- Input Size (TxC_in) -->
     <g style="fill: #262626" transform="translate(314.68625 415.050969) scale(0.12 -0.12)">
      <defs>
       <path id="DejaVuSans-49" d="M 628 4666 
L 1259 4666 
L 1259 0 
L 628 0 
L 628 4666 
z
" transform="scale(0.015625)"/>
       <path id="DejaVuSans-6e" d="M 3513 2113 
L 3513 0 
L 2938 0 
L 2938 2094 
Q 2938 2591 2744 2837 
Q 2550 3084 2163 3084 
Q 1697 3084 1428 2787 
Q 1159 2491 1159 1978 
L 1159 0 
L 581 0 
L 581 3500 
L 1159 3500 
L 1159 2956 
Q 1366 3272 1645 3428 
Q 1925 3584 2291 3584 
Q 2894 3584 3203 3211 
Q 3513 2838 3513 2113 
z
" transform="scale(0.015625)"/>
       <path id="DejaVuSans-70" d="M 1159 525 
L 1159 -1331 
L 581 -1331 
L 581 3500 
L 1159 3500 
L 1159 2969 
Q 1341 3281 1617 3432 
Q 1894 3584 2278 3584 
Q 2916 3584 3314 3078 
Q 3713 2572 3713 1747 
Q 3713 922 3314 415 
Q 2916 -91 2278 -91 
Q 1894 -91 1617 61 
Q 1341 213 1159 525 
z
M 3116 1747 
Q 3116 2381 2855 2742 
Q 2594 3103 2138 3103 
Q 1681 3103 1420 2742 
Q 1159 2381 1159 1747 
Q 1159 1113 1420 752 
Q 1681 391 2138 391 
Q 2594 391 2855 752 
Q 3116 1113 3116 1747 
z
" transform="scale(0.015625)"/>
       <path id="DejaVuSans-75" d="M 544 1381 
L 544 3500 
L 1119 3500 
L 1119 1403 
Q 1119 906 1312 657 
Q 1506 409 1894 409 
Q 2359 409 2629 706 
Q 2900 1003 2900 1516 
L 2900 3500 
L 3475 3500 
L 3475 0 
L 2900 0 
L 2900 538 
Q 2691 219 2414 64 
Q 2138 -91 1772 -91 
Q 1169 -91 856 284 
Q 544 659 544 1381 
z
M 1991 3584 
L 1991 3584 
z
" transform="scale(0.015625)"/>
       <path id="DejaVuSans-74" d="M 1172 4494 
L 1172 3500 
L 2356 3500 
L 2356 3053 
L 1172 3053 
L 1172 1153 
Q 1172 725 1289 603 
Q 1406 481 1766 481 
L 2356 481 
L 2356 0 
L 1766 0 
Q 1100 0 847 248 
Q 594 497 594 1153 
L 594 3053 
L 172 3053 
L 172 3500 
L 594 3500 
L 594 4494 
L 1172 4494 
z
" transform="scale(0.015625)"/>
       <path id="DejaVuSans-20" transform="scale(0.015625)"/>
       <path id="DejaVuSans-53" d="M 3425 4513 
L 3425 3897 
Q 3066 4069 2747 4153 
Q 2428 4238 2131 4238 
Q 1616 4238 1336 4038 
Q 1056 3838 1056 3469 
Q 1056 3159 1242 3001 
Q 1428 2844 1947 2747 
L 2328 2669 
Q 3034 2534 3370 2195 
Q 3706 1856 3706 1288 
Q 3706 609 3251 259 
Q 2797 -91 1919 -91 
Q 1588 -91 1214 -16 
Q 841 59 441 206 
L 441 856 
Q 825 641 1194 531 
Q 1563 422 1919 422 
Q 2459 422 2753 634 
Q 3047 847 3047 1241 
Q 3047 1584 2836 1778 
Q 2625 1972 2144 2069 
L 1759 2144 
Q 1053 2284 737 2584 
Q 422 2884 422 3419 
Q 422 4038 858 4394 
Q 1294 4750 2059 4750 
Q 2388 4750 2728 4690 
Q 3069 4631 3425 4513 
z
" transform="scale(0.015625)"/>
       <path id="DejaVuSans-69" d="M 603 3500 
L 1178 3500 
L 1178 0 
L 603 0 
L 603 3500 
z
M 603 4863 
L 1178 4863 
L 1178 4134 
L 603 4134 
L 603 4863 
z
" transform="scale(0.015625)"/>
       <path id="DejaVuSans-7a" d="M 353 3500 
L 3084 3500 
L 3084 2975 
L 922 459 
L 3084 459 
L 3084 0 
L 275 0 
L 275 525 
L 2438 3041 
L 353 3041 
L 353 3500 
z
" transform="scale(0.015625)"/>
       <path id="DejaVuSans-65" d="M 3597 1894 
L 3597 1613 
L 953 1613 
Q 991 1019 1311 708 
Q 1631 397 2203 397 
Q 2534 397 2845 478 
Q 3156 559 3463 722 
L 3463 178 
Q 3153 47 2828 -22 
Q 2503 -91 2169 -91 
Q 1331 -91 842 396 
Q 353 884 353 1716 
Q 353 2575 817 3079 
Q 1281 3584 2069 3584 
Q 2775 3584 3186 3129 
Q 3597 2675 3597 1894 
z
M 3022 2063 
Q 3016 2534 2758 2815 
Q 2500 3097 2075 3097 
Q 1594 3097 1305 2825 
Q 1016 2553 972 2059 
L 3022 2063 
z
" transform="scale(0.015625)"/>
       <path id="DejaVuSans-28" d="M 1984 4856 
Q 1566 4138 1362 3434 
Q 1159 2731 1159 2009 
Q 1159 1288 1364 580 
Q 1569 -128 1984 -844 
L 1484 -844 
Q 1016 -109 783 600 
Q 550 1309 550 2009 
Q 550 2706 781 3412 
Q 1013 4119 1484 4856 
L 1984 4856 
z
" transform="scale(0.015625)"/>
       <path id="DejaVuSans-54" d="M -19 4666 
L 3928 4666 
L 3928 4134 
L 2272 4134 
L 2272 0 
L 1638 0 
L 1638 4134 
L -19 4134 
L -19 4666 
z
" transform="scale(0.015625)"/>
       <path id="DejaVuSans-78" d="M 3513 3500 
L 2247 1797 
L 3578 0 
L 2900 0 
L 1881 1375 
L 863 0 
L 184 0 
L 1544 1831 
L 300 3500 
L 978 3500 
L 1906 2253 
L 2834 3500 
L 3513 3500 
z
" transform="scale(0.015625)"/>
       <path id="DejaVuSans-43" d="M 4122 4306 
L 4122 3641 
Q 3803 3938 3442 4084 
Q 3081 4231 2675 4231 
Q 1875 4231 1450 3742 
Q 1025 3253 1025 2328 
Q 1025 1406 1450 917 
Q 1875 428 2675 428 
Q 3081 428 3442 575 
Q 3803 722 4122 1019 
L 4122 359 
Q 3791 134 3420 21 
Q 3050 -91 2638 -91 
Q 1578 -91 968 557 
Q 359 1206 359 2328 
Q 359 3453 968 4101 
Q 1578 4750 2638 4750 
Q 3056 4750 3426 4639 
Q 3797 4528 4122 4306 
z
" transform="scale(0.015625)"/>
       <path id="DejaVuSans-5f" d="M 3263 -1063 
L 3263 -1509 
L -63 -1509 
L -63 -1063 
L 3263 -1063 
z
" transform="scale(0.015625)"/>
       <path id="DejaVuSans-29" d="M 513 4856 
L 1013 4856 
Q 1481 4119 1714 3412 
Q 1947 2706 1947 2009 
Q 1947 1309 1714 600 
Q 1481 -109 1013 -844 
L 513 -844 
Q 928 -128 1133 580 
Q 1338 1288 1338 2009 
Q 1338 2731 1133 3434 
Q 928 4138 513 4856 
z
" transform="scale(0.015625)"/>
      </defs>
      <use xlink:href="#DejaVuSans-49"/>
      <use xlink:href="#DejaVuSans-6e" transform="translate(29.492188 0)"/>
      <use xlink:href="#DejaVuSans-70" transform="translate(92.871094 0)"/>
      <use xlink:href="#DejaVuSans-75" transform="translate(156.347656 0)"/>
      <use xlink:href="#DejaVuSans-74" transform="translate(219.726562 0)"/>
      <use xlink:href="#DejaVuSans-20" transform="translate(258.935547 0)"/>
      <use xlink:href="#DejaVuSans-53" transform="translate(290.722656 0)"/>
      <use xlink:href="#DejaVuSans-69" transform="translate(354.199219 0)"/>
      <use xlink:href="#DejaVuSans-7a" transform="translate(381.982422 0)"/>
      <use xlink:href="#DejaVuSans-65" transform="translate(434.472656 0)"/>
      <use xlink:href="#DejaVuSans-20" transform="translate(495.996094 0)"/>
      <use xlink:href="#DejaVuSans-28" transform="translate(527.783203 0)"/>
      <use xlink:href="#DejaVuSans-54" transform="translate(566.796875 0)"/>
      <use xlink:href="#DejaVuSans-78" transform="translate(627.880859 0)"/>
      <use xlink:href="#DejaVuSans-43" transform="translate(687.060547 0)"/>
      <use xlink:href="#DejaVuSans-5f" transform="translate(756.884766 0)"/>
      <use xlink:href="#DejaVuSans-69" transform="translate(806.884766 0)"/>
      <use xlink:href="#DejaVuSans-6e" transform="translate(834.667969 0)"/>
      <use xlink:href="#DejaVuSans-29" transform="translate(898.046875 0)"/>
     </g>
    </g>
   </g>
   <g id="matplotlib.axis_2">
    <g id="ytick_1">
     <g id="line2d_13">
      <path d="M 36.15 388.754719 
L 705.67 388.754719 
" clip-path="url(#p1e1f6baf6a)" style="fill: none; stroke: #ffffff; stroke-linecap: round"/>
     </g>
     <g id="line2d_14"/>
     <g id="text_8">
      <!-- 0 -->
      <g style="fill: #262626" transform="translate(26.2875 392.553938) scale(0.1 -0.1)">
       <defs>
        <path id="DejaVuSans-30" d="M 2034 4250 
Q 1547 4250 1301 3770 
Q 1056 3291 1056 2328 
Q 1056 1369 1301 889 
Q 1547 409 2034 409 
Q 2525 409 2770 889 
Q 3016 1369 3016 2328 
Q 3016 3291 2770 3770 
Q 2525 4250 2034 4250 
z
M 2034 4750 
Q 2819 4750 3233 4129 
Q 3647 3509 3647 2328 
Q 3647 1150 3233 529 
Q 2819 -91 2034 -91 
Q 1250 -91 836 529 
Q 422 1150 422 2328 
Q 422 3509 836 4129 
Q 1250 4750 2034 4750 
z
" transform="scale(0.015625)"/>
       </defs>
       <use xlink:href="#DejaVuSans-30"/>
      </g>
     </g>
    </g>
    <g id="ytick_2">
     <g id="line2d_15">
      <path d="M 36.15 346.428996 
L 705.67 346.428996 
" clip-path="url(#p1e1f6baf6a)" style="fill: none; stroke: #ffffff; stroke-linecap: round"/>
     </g>
     <g id="line2d_16"/>
     <g id="text_9">
      <!-- 200 -->
      <g style="fill: #262626" transform="translate(13.5625 350.228214) scale(0.1 -0.1)">
       <use xlink:href="#DejaVuSans-32"/>
       <use xlink:href="#DejaVuSans-30" transform="translate(63.623047 0)"/>
       <use xlink:href="#DejaVuSans-30" transform="translate(127.246094 0)"/>
      </g>
     </g>
    </g>
    <g id="ytick_3">
     <g id="line2d_17">
      <path d="M 36.15 304.103273 
L 705.67 304.103273 
" clip-path="url(#p1e1f6baf6a)" style="fill: none; stroke: #ffffff; stroke-linecap: round"/>
     </g>
     <g id="line2d_18"/>
     <g id="text_10">
      <!-- 400 -->
      <g style="fill: #262626" transform="translate(13.5625 307.902491) scale(0.1 -0.1)">
       <defs>
        <path id="DejaVuSans-34" d="M 2419 4116 
L 825 1625 
L 2419 1625 
L 2419 4116 
z
M 2253 4666 
L 3047 4666 
L 3047 1625 
L 3713 1625 
L 3713 1100 
L 3047 1100 
L 3047 0 
L 2419 0 
L 2419 1100 
L 313 1100 
L 313 1709 
L 2253 4666 
z
" transform="scale(0.015625)"/>
       </defs>
       <use xlink:href="#DejaVuSans-34"/>
       <use xlink:href="#DejaVuSans-30" transform="translate(63.623047 0)"/>
       <use xlink:href="#DejaVuSans-30" transform="translate(127.246094 0)"/>
      </g>
     </g>
    </g>
    <g id="ytick_4">
     <g id="line2d_19">
      <path d="M 36.15 261.777549 
L 705.67 261.777549 
" clip-path="url(#p1e1f6baf6a)" style="fill: none; stroke: #ffffff; stroke-linecap: round"/>
     </g>
     <g id="line2d_20"/>
     <g id="text_11">
      <!-- 600 -->
      <g style="fill: #262626" transform="translate(13.5625 265.576768) scale(0.1 -0.1)">
       <defs>
        <path id="DejaVuSans-36" d="M 2113 2584 
Q 1688 2584 1439 2293 
Q 1191 2003 1191 1497 
Q 1191 994 1439 701 
Q 1688 409 2113 409 
Q 2538 409 2786 701 
Q 3034 994 3034 1497 
Q 3034 2003 2786 2293 
Q 2538 2584 2113 2584 
z
M 3366 4563 
L 3366 3988 
Q 3128 4100 2886 4159 
Q 2644 4219 2406 4219 
Q 1781 4219 1451 3797 
Q 1122 3375 1075 2522 
Q 1259 2794 1537 2939 
Q 1816 3084 2150 3084 
Q 2853 3084 3261 2657 
Q 3669 2231 3669 1497 
Q 3669 778 3244 343 
Q 2819 -91 2113 -91 
Q 1303 -91 875 529 
Q 447 1150 447 2328 
Q 447 3434 972 4092 
Q 1497 4750 2381 4750 
Q 2619 4750 2861 4703 
Q 3103 4656 3366 4563 
z
" transform="scale(0.015625)"/>
       </defs>
       <use xlink:href="#DejaVuSans-36"/>
       <use xlink:href="#DejaVuSans-30" transform="translate(63.623047 0)"/>
       <use xlink:href="#DejaVuSans-30" transform="translate(127.246094 0)"/>
      </g>
     </g>
    </g>
    <g id="ytick_5">
     <g id="line2d_21">
      <path d="M 36.15 219.451826 
L 705.67 219.451826 
" clip-path="url(#p1e1f6baf6a)" style="fill: none; stroke: #ffffff; stroke-linecap: round"/>
     </g>
     <g id="line2d_22"/>
     <g id="text_12">
      <!-- 800 -->
      <g style="fill: #262626" transform="translate(13.5625 223.251045) scale(0.1 -0.1)">
       <defs>
        <path id="DejaVuSans-38" d="M 2034 2216 
Q 1584 2216 1326 1975 
Q 1069 1734 1069 1313 
Q 1069 891 1326 650 
Q 1584 409 2034 409 
Q 2484 409 2743 651 
Q 3003 894 3003 1313 
Q 3003 1734 2745 1975 
Q 2488 2216 2034 2216 
z
M 1403 2484 
Q 997 2584 770 2862 
Q 544 3141 544 3541 
Q 544 4100 942 4425 
Q 1341 4750 2034 4750 
Q 2731 4750 3128 4425 
Q 3525 4100 3525 3541 
Q 3525 3141 3298 2862 
Q 3072 2584 2669 2484 
Q 3125 2378 3379 2068 
Q 3634 1759 3634 1313 
Q 3634 634 3220 271 
Q 2806 -91 2034 -91 
Q 1263 -91 848 271 
Q 434 634 434 1313 
Q 434 1759 690 2068 
Q 947 2378 1403 2484 
z
M 1172 3481 
Q 1172 3119 1398 2916 
Q 1625 2713 2034 2713 
Q 2441 2713 2670 2916 
Q 2900 3119 2900 3481 
Q 2900 3844 2670 4047 
Q 2441 4250 2034 4250 
Q 1625 4250 1398 4047 
Q 1172 3844 1172 3481 
z
" transform="scale(0.015625)"/>
       </defs>
       <use xlink:href="#DejaVuSans-38"/>
       <use xlink:href="#DejaVuSans-30" transform="translate(63.623047 0)"/>
       <use xlink:href="#DejaVuSans-30" transform="translate(127.246094 0)"/>
      </g>
     </g>
    </g>
    <g id="ytick_6">
     <g id="line2d_23">
      <path d="M 36.15 177.126103 
L 705.67 177.126103 
" clip-path="url(#p1e1f6baf6a)" style="fill: none; stroke: #ffffff; stroke-linecap: round"/>
     </g>
     <g id="line2d_24"/>
     <g id="text_13">
      <!-- 1000 -->
      <g style="fill: #262626" transform="translate(7.2 180.925322) scale(0.1 -0.1)">
       <use xlink:href="#DejaVuSans-31"/>
       <use xlink:href="#DejaVuSans-30" transform="translate(63.623047 0)"/>
       <use xlink:href="#DejaVuSans-30" transform="translate(127.246094 0)"/>
       <use xlink:href="#DejaVuSans-30" transform="translate(190.869141 0)"/>
      </g>
     </g>
    </g>
    <g id="ytick_7">
     <g id="line2d_25">
      <path d="M 36.15 134.80038 
L 705.67 134.80038 
" clip-path="url(#p1e1f6baf6a)" style="fill: none; stroke: #ffffff; stroke-linecap: round"/>
     </g>
     <g id="line2d_26"/>
     <g id="text_14">
      <!-- 1200 -->
      <g style="fill: #262626" transform="translate(7.2 138.599599) scale(0.1 -0.1)">
       <use xlink:href="#DejaVuSans-31"/>
       <use xlink:href="#DejaVuSans-32" transform="translate(63.623047 0)"/>
       <use xlink:href="#DejaVuSans-30" transform="translate(127.246094 0)"/>
       <use xlink:href="#DejaVuSans-30" transform="translate(190.869141 0)"/>
      </g>
     </g>
    </g>
    <g id="ytick_8">
     <g id="line2d_27">
      <path d="M 36.15 92.474657 
L 705.67 92.474657 
" clip-path="url(#p1e1f6baf6a)" style="fill: none; stroke: #ffffff; stroke-linecap: round"/>
     </g>
     <g id="line2d_28"/>
     <g id="text_15">
      <!-- 1400 -->
      <g style="fill: #262626" transform="translate(7.2 96.273876) scale(0.1 -0.1)">
       <use xlink:href="#DejaVuSans-31"/>
       <use xlink:href="#DejaVuSans-34" transform="translate(63.623047 0)"/>
       <use xlink:href="#DejaVuSans-30" transform="translate(127.246094 0)"/>
       <use xlink:href="#DejaVuSans-30" transform="translate(190.869141 0)"/>
      </g>
     </g>
    </g>
    <g id="ytick_9">
     <g id="line2d_29">
      <path d="M 36.15 50.148934 
L 705.67 50.148934 
" clip-path="url(#p1e1f6baf6a)" style="fill: none; stroke: #ffffff; stroke-linecap: round"/>
     </g>
     <g id="line2d_30"/>
     <g id="text_16">
      <!-- 1600 -->
      <g style="fill: #262626" transform="translate(7.2 53.948153) scale(0.1 -0.1)">
       <use xlink:href="#DejaVuSans-31"/>
       <use xlink:href="#DejaVuSans-36" transform="translate(63.623047 0)"/>
       <use xlink:href="#DejaVuSans-30" transform="translate(127.246094 0)"/>
       <use xlink:href="#DejaVuSans-30" transform="translate(190.869141 0)"/>
      </g>
     </g>
    </g>
   </g>
   <g id="line2d_31">
    <path d="M 430.250014 388.754719 
L 430.250014 33.077969 
" clip-path="url(#p1e1f6baf6a)" style="fill: none; stroke-dasharray: 1.5,2.475; stroke-dashoffset: 0; stroke: #595959; stroke-width: 1.5"/>
   </g>
   <g id="line2d_32">
    <path d="M 658.285231 388.754719 
L 658.285231 33.077969 
" clip-path="url(#p1e1f6baf6a)" style="fill: none; stroke-dasharray: 1.5,2.475; stroke-dashoffset: 0; stroke: #595959; stroke-width: 1.5"/>
   </g>
   <g id="patch_3">
    <path d="M 36.15 388.754719 
L 705.67 388.754719 
" style="fill: none; stroke: #cccccc; stroke-linejoin: miter; stroke-linecap: square"/>
   </g>
   <g id="line2d_33">
    <path d="M 66.582727 386.08561 
L 269.467576 378.119036 
L 328.80759 372.439881 
L 472.352424 340.380028 
L 573.794848 275.538267 
L 633.134863 194.209893 
L 655.694889 144.86801 
L 675.237273 92.357427 
" clip-path="url(#p1e1f6baf6a)" style="fill: none; stroke: #ca8a04; stroke-opacity: 0.95; stroke-width: 2; stroke-linecap: round"/>
    <defs>
     <path id="m86540c56d7" d="M -3 3 
L 3 3 
L 3 -3 
L -3 -3 
z
" style="stroke: #ca8a04; stroke-opacity: 0.95; stroke-linejoin: miter"/>
    </defs>
    <g clip-path="url(#p1e1f6baf6a)">
     <use xlink:href="#m86540c56d7" x="66.582727" y="386.08561" style="fill: #ca8a04; fill-opacity: 0.95; stroke: #ca8a04; stroke-opacity: 0.95; stroke-linejoin: miter"/>
     <use xlink:href="#m86540c56d7" x="269.467576" y="378.119036" style="fill: #ca8a04; fill-opacity: 0.95; stroke: #ca8a04; stroke-opacity: 0.95; stroke-linejoin: miter"/>
     <use xlink:href="#m86540c56d7" x="328.80759" y="372.439881" style="fill: #ca8a04; fill-opacity: 0.95; stroke: #ca8a04; stroke-opacity: 0.95; stroke-linejoin: miter"/>
     <use xlink:href="#m86540c56d7" x="472.352424" y="340.380028" style="fill: #ca8a04; fill-opacity: 0.95; stroke: #ca8a04; stroke-opacity: 0.95; stroke-linejoin: miter"/>
     <use xlink:href="#m86540c56d7" x="573.794848" y="275.538267" style="fill: #ca8a04; fill-opacity: 0.95; stroke: #ca8a04; stroke-opacity: 0.95; stroke-linejoin: miter"/>
     <use xlink:href="#m86540c56d7" x="633.134863" y="194.209893" style="fill: #ca8a04; fill-opacity: 0.95; stroke: #ca8a04; stroke-opacity: 0.95; stroke-linejoin: miter"/>
     <use xlink:href="#m86540c56d7" x="655.694889" y="144.86801" style="fill: #ca8a04; fill-opacity: 0.95; stroke: #ca8a04; stroke-opacity: 0.95; stroke-linejoin: miter"/>
     <use xlink:href="#m86540c56d7" x="675.237273" y="92.357427" style="fill: #ca8a04; fill-opacity: 0.95; stroke: #ca8a04; stroke-opacity: 0.95; stroke-linejoin: miter"/>
    </g>
   </g>
   <g id="text_17">
    <!-- Time [Gcycles] -->
    <g style="fill: #666666" transform="translate(36.15 31.20625) scale(0.09 -0.09)">
     <defs>
      <path id="DejaVuSans-6d" d="M 3328 2828 
Q 3544 3216 3844 3400 
Q 4144 3584 4550 3584 
Q 5097 3584 5394 3201 
Q 5691 2819 5691 2113 
L 5691 0 
L 5113 0 
L 5113 2094 
Q 5113 2597 4934 2840 
Q 4756 3084 4391 3084 
Q 3944 3084 3684 2787 
Q 3425 2491 3425 1978 
L 3425 0 
L 2847 0 
L 2847 2094 
Q 2847 2600 2669 2842 
Q 2491 3084 2119 3084 
Q 1678 3084 1418 2786 
Q 1159 2488 1159 1978 
L 1159 0 
L 581 0 
L 581 3500 
L 1159 3500 
L 1159 2956 
Q 1356 3278 1631 3431 
Q 1906 3584 2284 3584 
Q 2666 3584 2933 3390 
Q 3200 3197 3328 2828 
z
" transform="scale(0.015625)"/>
      <path id="DejaVuSans-5b" d="M 550 4863 
L 1875 4863 
L 1875 4416 
L 1125 4416 
L 1125 -397 
L 1875 -397 
L 1875 -844 
L 550 -844 
L 550 4863 
z
" transform="scale(0.015625)"/>
      <path id="DejaVuSans-47" d="M 3809 666 
L 3809 1919 
L 2778 1919 
L 2778 2438 
L 4434 2438 
L 4434 434 
Q 4069 175 3628 42 
Q 3188 -91 2688 -91 
Q 1594 -91 976 548 
Q 359 1188 359 2328 
Q 359 3472 976 4111 
Q 1594 4750 2688 4750 
Q 3144 4750 3555 4637 
Q 3966 4525 4313 4306 
L 4313 3634 
Q 3963 3931 3569 4081 
Q 3175 4231 2741 4231 
Q 1884 4231 1454 3753 
Q 1025 3275 1025 2328 
Q 1025 1384 1454 906 
Q 1884 428 2741 428 
Q 3075 428 3337 486 
Q 3600 544 3809 666 
z
" transform="scale(0.015625)"/>
      <path id="DejaVuSans-63" d="M 3122 3366 
L 3122 2828 
Q 2878 2963 2633 3030 
Q 2388 3097 2138 3097 
Q 1578 3097 1268 2742 
Q 959 2388 959 1747 
Q 959 1106 1268 751 
Q 1578 397 2138 397 
Q 2388 397 2633 464 
Q 2878 531 3122 666 
L 3122 134 
Q 2881 22 2623 -34 
Q 2366 -91 2075 -91 
Q 1284 -91 818 406 
Q 353 903 353 1747 
Q 353 2603 823 3093 
Q 1294 3584 2113 3584 
Q 2378 3584 2631 3529 
Q 2884 3475 3122 3366 
z
" transform="scale(0.015625)"/>
      <path id="DejaVuSans-79" d="M 2059 -325 
Q 1816 -950 1584 -1140 
Q 1353 -1331 966 -1331 
L 506 -1331 
L 506 -850 
L 844 -850 
Q 1081 -850 1212 -737 
Q 1344 -625 1503 -206 
L 1606 56 
L 191 3500 
L 800 3500 
L 1894 763 
L 2988 3500 
L 3597 3500 
L 2059 -325 
z
" transform="scale(0.015625)"/>
      <path id="DejaVuSans-6c" d="M 603 4863 
L 1178 4863 
L 1178 0 
L 603 0 
L 603 4863 
z
" transform="scale(0.015625)"/>
      <path id="DejaVuSans-73" d="M 2834 3397 
L 2834 2853 
Q 2591 2978 2328 3040 
Q 2066 3103 1784 3103 
Q 1356 3103 1142 2972 
Q 928 2841 928 2578 
Q 928 2378 1081 2264 
Q 1234 2150 1697 2047 
L 1894 2003 
Q 2506 1872 2764 1633 
Q 3022 1394 3022 966 
Q 3022 478 2636 193 
Q 2250 -91 1575 -91 
Q 1294 -91 989 -36 
Q 684 19 347 128 
L 347 722 
Q 666 556 975 473 
Q 1284 391 1588 391 
Q 1994 391 2212 530 
Q 2431 669 2431 922 
Q 2431 1156 2273 1281 
Q 2116 1406 1581 1522 
L 1381 1569 
Q 847 1681 609 1914 
Q 372 2147 372 2553 
Q 372 3047 722 3315 
Q 1072 3584 1716 3584 
Q 2034 3584 2315 3537 
Q 2597 3491 2834 3397 
z
" transform="scale(0.015625)"/>
      <path id="DejaVuSans-5d" d="M 1947 4863 
L 1947 -844 
L 622 -844 
L 622 -397 
L 1369 -397 
L 1369 4416 
L 622 4416 
L 622 4863 
L 1947 4863 
z
" transform="scale(0.015625)"/>
     </defs>
     <use xlink:href="#DejaVuSans-54"/>
     <use xlink:href="#DejaVuSans-69" transform="translate(57.958984 0)"/>
     <use xlink:href="#DejaVuSans-6d" transform="translate(85.742188 0)"/>
     <use xlink:href="#DejaVuSans-65" transform="translate(183.154297 0)"/>
     <use xlink:href="#DejaVuSans-20" transform="translate(244.677734 0)"/>
     <use xlink:href="#DejaVuSans-5b" transform="translate(276.464844 0)"/>
     <use xlink:href="#DejaVuSans-47" transform="translate(315.478516 0)"/>
     <use xlink:href="#DejaVuSans-63" transform="translate(392.96875 0)"/>
     <use xlink:href="#DejaVuSans-79" transform="translate(447.949219 0)"/>
     <use xlink:href="#DejaVuSans-63" transform="translate(507.128906 0)"/>
     <use xlink:href="#DejaVuSans-6c" transform="translate(562.109375 0)"/>
     <use xlink:href="#DejaVuSans-65" transform="translate(589.892578 0)"/>
     <use xlink:href="#DejaVuSans-73" transform="translate(651.416016 0)"/>
     <use xlink:href="#DejaVuSans-5d" transform="translate(703.515625 0)"/>
    </g>
   </g>
   <g id="text_18">
    <!-- Runtime: Intel Core 7 240H (P-core, 2.5GHz) (With Baseline) -->
    <g style="fill: #262626" transform="translate(36.15 17.077969) scale(0.13 -0.13)">
     <defs>
      <path id="DejaVuSans-Bold-52" d="M 2297 2597 
Q 2675 2597 2839 2737 
Q 3003 2878 3003 3200 
Q 3003 3519 2839 3656 
Q 2675 3794 2297 3794 
L 1791 3794 
L 1791 2597 
L 2297 2597 
z
M 1791 1766 
L 1791 0 
L 588 0 
L 588 4666 
L 2425 4666 
Q 3347 4666 3776 4356 
Q 4206 4047 4206 3378 
Q 4206 2916 3982 2619 
Q 3759 2322 3309 2181 
Q 3556 2125 3751 1926 
Q 3947 1728 4147 1325 
L 4800 0 
L 3519 0 
L 2950 1159 
Q 2778 1509 2601 1637 
Q 2425 1766 2131 1766 
L 1791 1766 
z
" transform="scale(0.015625)"/>
      <path id="DejaVuSans-Bold-75" d="M 500 1363 
L 500 3500 
L 1625 3500 
L 1625 3150 
Q 1625 2866 1622 2436 
Q 1619 2006 1619 1863 
Q 1619 1441 1641 1255 
Q 1663 1069 1716 984 
Q 1784 875 1895 815 
Q 2006 756 2150 756 
Q 2500 756 2700 1025 
Q 2900 1294 2900 1772 
L 2900 3500 
L 4019 3500 
L 4019 0 
L 2900 0 
L 2900 506 
Q 2647 200 2364 54 
Q 2081 -91 1741 -91 
Q 1134 -91 817 281 
Q 500 653 500 1363 
z
" transform="scale(0.015625)"/>
      <path id="DejaVuSans-Bold-6e" d="M 4056 2131 
L 4056 0 
L 2931 0 
L 2931 347 
L 2931 1631 
Q 2931 2084 2911 2256 
Q 2891 2428 2841 2509 
Q 2775 2619 2662 2680 
Q 2550 2741 2406 2741 
Q 2056 2741 1856 2470 
Q 1656 2200 1656 1722 
L 1656 0 
L 538 0 
L 538 3500 
L 1656 3500 
L 1656 2988 
Q 1909 3294 2193 3439 
Q 2478 3584 2822 3584 
Q 3428 3584 3742 3212 
Q 4056 2841 4056 2131 
z
" transform="scale(0.015625)"/>
      <path id="DejaVuSans-Bold-74" d="M 1759 4494 
L 1759 3500 
L 2913 3500 
L 2913 2700 
L 1759 2700 
L 1759 1216 
Q 1759 972 1856 886 
Q 1953 800 2241 800 
L 2816 800 
L 2816 0 
L 1856 0 
Q 1194 0 917 276 
Q 641 553 641 1216 
L 641 2700 
L 84 2700 
L 84 3500 
L 641 3500 
L 641 4494 
L 1759 4494 
z
" transform="scale(0.015625)"/>
      <path id="DejaVuSans-Bold-69" d="M 538 3500 
L 1656 3500 
L 1656 0 
L 538 0 
L 538 3500 
z
M 538 4863 
L 1656 4863 
L 1656 3950 
L 538 3950 
L 538 4863 
z
" transform="scale(0.015625)"/>
      <path id="DejaVuSans-Bold-6d" d="M 3781 2919 
Q 3994 3244 4286 3414 
Q 4578 3584 4928 3584 
Q 5531 3584 5847 3212 
Q 6163 2841 6163 2131 
L 6163 0 
L 5038 0 
L 5038 1825 
Q 5041 1866 5042 1909 
Q 5044 1953 5044 2034 
Q 5044 2406 4934 2573 
Q 4825 2741 4581 2741 
Q 4263 2741 4089 2478 
Q 3916 2216 3909 1719 
L 3909 0 
L 2784 0 
L 2784 1825 
Q 2784 2406 2684 2573 
Q 2584 2741 2328 2741 
Q 2006 2741 1831 2477 
Q 1656 2213 1656 1722 
L 1656 0 
L 531 0 
L 531 3500 
L 1656 3500 
L 1656 2988 
Q 1863 3284 2130 3434 
Q 2397 3584 2719 3584 
Q 3081 3584 3359 3409 
Q 3638 3234 3781 2919 
z
" transform="scale(0.015625)"/>
      <path id="DejaVuSans-Bold-65" d="M 4031 1759 
L 4031 1441 
L 1416 1441 
Q 1456 1047 1700 850 
Q 1944 653 2381 653 
Q 2734 653 3104 758 
Q 3475 863 3866 1075 
L 3866 213 
Q 3469 63 3072 -14 
Q 2675 -91 2278 -91 
Q 1328 -91 801 392 
Q 275 875 275 1747 
Q 275 2603 792 3093 
Q 1309 3584 2216 3584 
Q 3041 3584 3536 3087 
Q 4031 2591 4031 1759 
z
M 2881 2131 
Q 2881 2450 2695 2645 
Q 2509 2841 2209 2841 
Q 1884 2841 1681 2658 
Q 1478 2475 1428 2131 
L 2881 2131 
z
" transform="scale(0.015625)"/>
      <path id="DejaVuSans-Bold-3a" d="M 716 3500 
L 1844 3500 
L 1844 2291 
L 716 2291 
L 716 3500 
z
M 716 1209 
L 1844 1209 
L 1844 0 
L 716 0 
L 716 1209 
z
" transform="scale(0.015625)"/>
      <path id="DejaVuSans-Bold-20" transform="scale(0.015625)"/>
      <path id="DejaVuSans-Bold-49" d="M 588 4666 
L 1791 4666 
L 1791 0 
L 588 0 
L 588 4666 
z
" transform="scale(0.015625)"/>
      <path id="DejaVuSans-Bold-6c" d="M 538 4863 
L 1656 4863 
L 1656 0 
L 538 0 
L 538 4863 
z
" transform="scale(0.015625)"/>
      <path id="DejaVuSans-Bold-43" d="M 4288 256 
Q 3956 84 3597 -3 
Q 3238 -91 2847 -91 
Q 1681 -91 1000 561 
Q 319 1213 319 2328 
Q 319 3447 1000 4098 
Q 1681 4750 2847 4750 
Q 3238 4750 3597 4662 
Q 3956 4575 4288 4403 
L 4288 3438 
Q 3953 3666 3628 3772 
Q 3303 3878 2944 3878 
Q 2300 3878 1931 3465 
Q 1563 3053 1563 2328 
Q 1563 1606 1931 1193 
Q 2300 781 2944 781 
Q 3303 781 3628 887 
Q 3953 994 4288 1222 
L 4288 256 
z
" transform="scale(0.015625)"/>
      <path id="DejaVuSans-Bold-6f" d="M 2203 2784 
Q 1831 2784 1636 2517 
Q 1441 2250 1441 1747 
Q 1441 1244 1636 976 
Q 1831 709 2203 709 
Q 2569 709 2762 976 
Q 2956 1244 2956 1747 
Q 2956 2250 2762 2517 
Q 2569 2784 2203 2784 
z
M 2203 3584 
Q 3106 3584 3614 3096 
Q 4122 2609 4122 1747 
Q 4122 884 3614 396 
Q 3106 -91 2203 -91 
Q 1297 -91 786 396 
Q 275 884 275 1747 
Q 275 2609 786 3096 
Q 1297 3584 2203 3584 
z
" transform="scale(0.015625)"/>
      <path id="DejaVuSans-Bold-72" d="M 3138 2547 
Q 2991 2616 2845 2648 
Q 2700 2681 2553 2681 
Q 2122 2681 1889 2404 
Q 1656 2128 1656 1613 
L 1656 0 
L 538 0 
L 538 3500 
L 1656 3500 
L 1656 2925 
Q 1872 3269 2151 3426 
Q 2431 3584 2822 3584 
Q 2878 3584 2943 3579 
Q 3009 3575 3134 3559 
L 3138 2547 
z
" transform="scale(0.015625)"/>
      <path id="DejaVuSans-Bold-37" d="M 428 4666 
L 3944 4666 
L 3944 3988 
L 2125 0 
L 953 0 
L 2675 3781 
L 428 3781 
L 428 4666 
z
" transform="scale(0.015625)"/>
      <path id="DejaVuSans-Bold-32" d="M 1844 884 
L 3897 884 
L 3897 0 
L 506 0 
L 506 884 
L 2209 2388 
Q 2438 2594 2547 2791 
Q 2656 2988 2656 3200 
Q 2656 3528 2436 3728 
Q 2216 3928 1850 3928 
Q 1569 3928 1234 3808 
Q 900 3688 519 3450 
L 519 4475 
Q 925 4609 1322 4679 
Q 1719 4750 2100 4750 
Q 2938 4750 3402 4381 
Q 3866 4013 3866 3353 
Q 3866 2972 3669 2642 
Q 3472 2313 2841 1759 
L 1844 884 
z
" transform="scale(0.015625)"/>
      <path id="DejaVuSans-Bold-34" d="M 2356 3675 
L 1038 1722 
L 2356 1722 
L 2356 3675 
z
M 2156 4666 
L 3494 4666 
L 3494 1722 
L 4159 1722 
L 4159 850 
L 3494 850 
L 3494 0 
L 2356 0 
L 2356 850 
L 288 850 
L 288 1881 
L 2156 4666 
z
" transform="scale(0.015625)"/>
      <path id="DejaVuSans-Bold-30" d="M 2944 2338 
Q 2944 3213 2780 3570 
Q 2616 3928 2228 3928 
Q 1841 3928 1675 3570 
Q 1509 3213 1509 2338 
Q 1509 1453 1675 1090 
Q 1841 728 2228 728 
Q 2613 728 2778 1090 
Q 2944 1453 2944 2338 
z
M 4147 2328 
Q 4147 1169 3647 539 
Q 3147 -91 2228 -91 
Q 1306 -91 806 539 
Q 306 1169 306 2328 
Q 306 3491 806 4120 
Q 1306 4750 2228 4750 
Q 3147 4750 3647 4120 
Q 4147 3491 4147 2328 
z
" transform="scale(0.015625)"/>
      <path id="DejaVuSans-Bold-48" d="M 588 4666 
L 1791 4666 
L 1791 2888 
L 3566 2888 
L 3566 4666 
L 4769 4666 
L 4769 0 
L 3566 0 
L 3566 1978 
L 1791 1978 
L 1791 0 
L 588 0 
L 588 4666 
z
" transform="scale(0.015625)"/>
      <path id="DejaVuSans-Bold-28" d="M 2413 -844 
L 1484 -844 
Q 1006 -72 778 623 
Q 550 1319 550 2003 
Q 550 2688 779 3389 
Q 1009 4091 1484 4856 
L 2413 4856 
Q 2013 4116 1813 3408 
Q 1613 2700 1613 2009 
Q 1613 1319 1811 609 
Q 2009 -100 2413 -844 
z
" transform="scale(0.015625)"/>
      <path id="DejaVuSans-Bold-50" d="M 588 4666 
L 2584 4666 
Q 3475 4666 3951 4270 
Q 4428 3875 4428 3144 
Q 4428 2409 3951 2014 
Q 3475 1619 2584 1619 
L 1791 1619 
L 1791 0 
L 588 0 
L 588 4666 
z
M 1791 3794 
L 1791 2491 
L 2456 2491 
Q 2806 2491 2997 2661 
Q 3188 2831 3188 3144 
Q 3188 3456 2997 3625 
Q 2806 3794 2456 3794 
L 1791 3794 
z
" transform="scale(0.015625)"/>
      <path id="DejaVuSans-Bold-2d" d="M 347 2297 
L 2309 2297 
L 2309 1388 
L 347 1388 
L 347 2297 
z
" transform="scale(0.015625)"/>
      <path id="DejaVuSans-Bold-63" d="M 3366 3391 
L 3366 2478 
Q 3138 2634 2908 2709 
Q 2678 2784 2431 2784 
Q 1963 2784 1702 2511 
Q 1441 2238 1441 1747 
Q 1441 1256 1702 982 
Q 1963 709 2431 709 
Q 2694 709 2930 787 
Q 3166 866 3366 1019 
L 3366 103 
Q 3103 6 2833 -42 
Q 2563 -91 2291 -91 
Q 1344 -91 809 395 
Q 275 881 275 1747 
Q 275 2613 809 3098 
Q 1344 3584 2291 3584 
Q 2566 3584 2833 3536 
Q 3100 3488 3366 3391 
z
" transform="scale(0.015625)"/>
      <path id="DejaVuSans-Bold-2c" d="M 653 1209 
L 1778 1209 
L 1778 256 
L 1006 -909 
L 341 -909 
L 653 256 
L 653 1209 
z
" transform="scale(0.015625)"/>
      <path id="DejaVuSans-Bold-2e" d="M 653 1209 
L 1778 1209 
L 1778 0 
L 653 0 
L 653 1209 
z
" transform="scale(0.015625)"/>
      <path id="DejaVuSans-Bold-35" d="M 678 4666 
L 3669 4666 
L 3669 3781 
L 1638 3781 
L 1638 3059 
Q 1775 3097 1914 3117 
Q 2053 3138 2203 3138 
Q 3056 3138 3531 2711 
Q 4006 2284 4006 1522 
Q 4006 766 3489 337 
Q 2972 -91 2053 -91 
Q 1656 -91 1267 -14 
Q 878 63 494 219 
L 494 1166 
Q 875 947 1217 837 
Q 1559 728 1863 728 
Q 2300 728 2551 942 
Q 2803 1156 2803 1522 
Q 2803 1891 2551 2103 
Q 2300 2316 1863 2316 
Q 1603 2316 1309 2248 
Q 1016 2181 678 2041 
L 678 4666 
z
" transform="scale(0.015625)"/>
      <path id="DejaVuSans-Bold-47" d="M 4781 347 
Q 4331 128 3847 18 
Q 3363 -91 2847 -91 
Q 1681 -91 1000 561 
Q 319 1213 319 2328 
Q 319 3456 1012 4103 
Q 1706 4750 2913 4750 
Q 3378 4750 3804 4662 
Q 4231 4575 4609 4403 
L 4609 3438 
Q 4219 3659 3833 3768 
Q 3447 3878 3059 3878 
Q 2341 3878 1952 3476 
Q 1563 3075 1563 2328 
Q 1563 1588 1938 1184 
Q 2313 781 3003 781 
Q 3191 781 3352 804 
Q 3513 828 3641 878 
L 3641 1784 
L 2906 1784 
L 2906 2591 
L 4781 2591 
L 4781 347 
z
" transform="scale(0.015625)"/>
      <path id="DejaVuSans-Bold-7a" d="M 366 3500 
L 3419 3500 
L 3419 2719 
L 1575 800 
L 3419 800 
L 3419 0 
L 288 0 
L 288 781 
L 2131 2700 
L 366 2700 
L 366 3500 
z
" transform="scale(0.015625)"/>
      <path id="DejaVuSans-Bold-29" d="M 513 -844 
Q 913 -100 1113 609 
Q 1313 1319 1313 2009 
Q 1313 2700 1113 3408 
Q 913 4116 513 4856 
L 1441 4856 
Q 1916 4091 2145 3389 
Q 2375 2688 2375 2003 
Q 2375 1319 2147 623 
Q 1919 -72 1441 -844 
L 513 -844 
z
" transform="scale(0.015625)"/>
      <path id="DejaVuSans-Bold-57" d="M 191 4666 
L 1344 4666 
L 2150 1275 
L 2950 4666 
L 4109 4666 
L 4909 1275 
L 5716 4666 
L 6859 4666 
L 5759 0 
L 4372 0 
L 3525 3547 
L 2688 0 
L 1300 0 
L 191 4666 
z
" transform="scale(0.015625)"/>
      <path id="DejaVuSans-Bold-68" d="M 4056 2131 
L 4056 0 
L 2931 0 
L 2931 347 
L 2931 1625 
Q 2931 2084 2911 2256 
Q 2891 2428 2841 2509 
Q 2775 2619 2662 2680 
Q 2550 2741 2406 2741 
Q 2056 2741 1856 2470 
Q 1656 2200 1656 1722 
L 1656 0 
L 538 0 
L 538 4863 
L 1656 4863 
L 1656 2988 
Q 1909 3294 2193 3439 
Q 2478 3584 2822 3584 
Q 3428 3584 3742 3212 
Q 4056 2841 4056 2131 
z
" transform="scale(0.015625)"/>
      <path id="DejaVuSans-Bold-42" d="M 2456 2859 
Q 2741 2859 2887 2984 
Q 3034 3109 3034 3353 
Q 3034 3594 2887 3720 
Q 2741 3847 2456 3847 
L 1791 3847 
L 1791 2859 
L 2456 2859 
z
M 2497 819 
Q 2859 819 3042 972 
Q 3225 1125 3225 1434 
Q 3225 1738 3044 1889 
Q 2863 2041 2497 2041 
L 1791 2041 
L 1791 819 
L 2497 819 
z
M 3616 2497 
Q 4003 2384 4215 2081 
Q 4428 1778 4428 1338 
Q 4428 663 3972 331 
Q 3516 0 2584 0 
L 588 0 
L 588 4666 
L 2394 4666 
Q 3366 4666 3802 4372 
Q 4238 4078 4238 3431 
Q 4238 3091 4078 2852 
Q 3919 2613 3616 2497 
z
" transform="scale(0.015625)"/>
      <path id="DejaVuSans-Bold-61" d="M 2106 1575 
Q 1756 1575 1579 1456 
Q 1403 1338 1403 1106 
Q 1403 894 1545 773 
Q 1688 653 1941 653 
Q 2256 653 2472 879 
Q 2688 1106 2688 1447 
L 2688 1575 
L 2106 1575 
z
M 3816 1997 
L 3816 0 
L 2688 0 
L 2688 519 
Q 2463 200 2181 54 
Q 1900 -91 1497 -91 
Q 953 -91 614 226 
Q 275 544 275 1050 
Q 275 1666 698 1953 
Q 1122 2241 2028 2241 
L 2688 2241 
L 2688 2328 
Q 2688 2594 2478 2717 
Q 2269 2841 1825 2841 
Q 1466 2841 1156 2769 
Q 847 2697 581 2553 
L 581 3406 
Q 941 3494 1303 3539 
Q 1666 3584 2028 3584 
Q 2975 3584 3395 3211 
Q 3816 2838 3816 1997 
z
" transform="scale(0.015625)"/>
      <path id="DejaVuSans-Bold-73" d="M 3272 3391 
L 3272 2541 
Q 2913 2691 2578 2766 
Q 2244 2841 1947 2841 
Q 1628 2841 1473 2761 
Q 1319 2681 1319 2516 
Q 1319 2381 1436 2309 
Q 1553 2238 1856 2203 
L 2053 2175 
Q 2913 2066 3209 1816 
Q 3506 1566 3506 1031 
Q 3506 472 3093 190 
Q 2681 -91 1863 -91 
Q 1516 -91 1145 -36 
Q 775 19 384 128 
L 384 978 
Q 719 816 1070 734 
Q 1422 653 1784 653 
Q 2113 653 2278 743 
Q 2444 834 2444 1013 
Q 2444 1163 2330 1236 
Q 2216 1309 1875 1350 
L 1678 1375 
Q 931 1469 631 1722 
Q 331 1975 331 2491 
Q 331 3047 712 3315 
Q 1094 3584 1881 3584 
Q 2191 3584 2531 3537 
Q 2872 3491 3272 3391 
z
" transform="scale(0.015625)"/>
     </defs>
     <use xlink:href="#DejaVuSans-Bold-52"/>
     <use xlink:href="#DejaVuSans-Bold-75" transform="translate(77.001953 0)"/>
     <use xlink:href="#DejaVuSans-Bold-6e" transform="translate(148.193359 0)"/>
     <use xlink:href="#DejaVuSans-Bold-74" transform="translate(219.384766 0)"/>
     <use xlink:href="#DejaVuSans-Bold-69" transform="translate(267.1875 0)"/>
     <use xlink:href="#DejaVuSans-Bold-6d" transform="translate(301.464844 0)"/>
     <use xlink:href="#DejaVuSans-Bold-65" transform="translate(405.664062 0)"/>
     <use xlink:href="#DejaVuSans-Bold-3a" transform="translate(473.486328 0)"/>
     <use xlink:href="#DejaVuSans-Bold-20" transform="translate(513.476562 0)"/>
     <use xlink:href="#DejaVuSans-Bold-49" transform="translate(548.291016 0)"/>
     <use xlink:href="#DejaVuSans-Bold-6e" transform="translate(585.498047 0)"/>
     <use xlink:href="#DejaVuSans-Bold-74" transform="translate(656.689453 0)"/>
     <use xlink:href="#DejaVuSans-Bold-65" transform="translate(704.492188 0)"/>
     <use xlink:href="#DejaVuSans-Bold-6c" transform="translate(772.314453 0)"/>
     <use xlink:href="#DejaVuSans-Bold-20" transform="translate(806.591797 0)"/>
     <use xlink:href="#DejaVuSans-Bold-43" transform="translate(841.40625 0)"/>
     <use xlink:href="#DejaVuSans-Bold-6f" transform="translate(914.794922 0)"/>
     <use xlink:href="#DejaVuSans-Bold-72" transform="translate(983.496094 0)"/>
     <use xlink:href="#DejaVuSans-Bold-65" transform="translate(1032.8125 0)"/>
     <use xlink:href="#DejaVuSans-Bold-20" transform="translate(1100.634766 0)"/>
     <use xlink:href="#DejaVuSans-Bold-37" transform="translate(1135.449219 0)"/>
     <use xlink:href="#DejaVuSans-Bold-20" transform="translate(1205.029297 0)"/>
     <use xlink:href="#DejaVuSans-Bold-32" transform="translate(1239.84375 0)"/>
     <use xlink:href="#DejaVuSans-Bold-34" transform="translate(1309.423828 0)"/>
     <use xlink:href="#DejaVuSans-Bold-30" transform="translate(1379.003906 0)"/>
     <use xlink:href="#DejaVuSans-Bold-48" transform="translate(1448.583984 0)"/>
     <use xlink:href="#DejaVuSans-Bold-20" transform="translate(1532.275391 0)"/>
     <use xlink:href="#DejaVuSans-Bold-28" transform="translate(1567.089844 0)"/>
     <use xlink:href="#DejaVuSans-Bold-50" transform="translate(1612.792969 0)"/>
     <use xlink:href="#DejaVuSans-Bold-2d" transform="translate(1684.333984 0)"/>
     <use xlink:href="#DejaVuSans-Bold-63" transform="translate(1725.837891 0)"/>
     <use xlink:href="#DejaVuSans-Bold-6f" transform="translate(1785.115234 0)"/>
     <use xlink:href="#DejaVuSans-Bold-72" transform="translate(1853.816406 0)"/>
     <use xlink:href="#DejaVuSans-Bold-65" transform="translate(1903.132812 0)"/>
     <use xlink:href="#DejaVuSans-Bold-2c" transform="translate(1970.955078 0)"/>
     <use xlink:href="#DejaVuSans-Bold-20" transform="translate(2008.943359 0)"/>
     <use xlink:href="#DejaVuSans-Bold-32" transform="translate(2043.757812 0)"/>
     <use xlink:href="#DejaVuSans-Bold-2e" transform="translate(2113.337891 0)"/>
     <use xlink:href="#DejaVuSans-Bold-35" transform="translate(2151.326172 0)"/>
     <use xlink:href="#DejaVuSans-Bold-47" transform="translate(2220.90625 0)"/>
     <use xlink:href="#DejaVuSans-Bold-48" transform="translate(2302.986328 0)"/>
     <use xlink:href="#DejaVuSans-Bold-7a" transform="translate(2386.677734 0)"/>
     <use xlink:href="#DejaVuSans-Bold-29" transform="translate(2444.880859 0)"/>
     <use xlink:href="#DejaVuSans-Bold-20" transform="translate(2490.583984 0)"/>
     <use xlink:href="#DejaVuSans-Bold-28" transform="translate(2525.398438 0)"/>
     <use xlink:href="#DejaVuSans-Bold-57" transform="translate(2571.101562 0)"/>
     <use xlink:href="#DejaVuSans-Bold-69" transform="translate(2681.404297 0)"/>
     <use xlink:href="#DejaVuSans-Bold-74" transform="translate(2715.681641 0)"/>
     <use xlink:href="#DejaVuSans-Bold-68" transform="translate(2763.484375 0)"/>
     <use xlink:href="#DejaVuSans-Bold-20" transform="translate(2834.675781 0)"/>
     <use xlink:href="#DejaVuSans-Bold-42" transform="translate(2869.490234 0)"/>
     <use xlink:href="#DejaVuSans-Bold-61" transform="translate(2945.710938 0)"/>
     <use xlink:href="#DejaVuSans-Bold-73" transform="translate(3013.191406 0)"/>
     <use xlink:href="#DejaVuSans-Bold-65" transform="translate(3072.712891 0)"/>
     <use xlink:href="#DejaVuSans-Bold-6c" transform="translate(3140.535156 0)"/>
     <use xlink:href="#DejaVuSans-Bold-69" transform="translate(3174.8125 0)"/>
     <use xlink:href="#DejaVuSans-Bold-6e" transform="translate(3209.089844 0)"/>
     <use xlink:href="#DejaVuSans-Bold-65" transform="translate(3280.28125 0)"/>
     <use xlink:href="#DejaVuSans-Bold-29" transform="translate(3348.103516 0)"/>
    </g>
   </g>
   <g id="line2d_34">
    <path d="M 66.582727 388.528054 
L 269.467576 387.808967 
L 328.80759 387.523409 
L 472.352424 384.576337 
L 573.794848 379.500527 
L 633.134863 373.349339 
L 655.694889 369.915782 
L 675.237273 365.261606 
" clip-path="url(#p1e1f6baf6a)" style="fill: none; stroke-dasharray: 11.84,5.12; stroke-dashoffset: 0; stroke: #8b0000; stroke-width: 3.2"/>
    <defs>
     <path id="me5432b81b2" d="M 0 3 
C 0.795609 3 1.55874 2.683901 2.12132 2.12132 
C 2.683901 1.55874 3 0.795609 3 0 
C 3 -0.795609 2.683901 -1.55874 2.12132 -2.12132 
C 1.55874 -2.683901 0.795609 -3 0 -3 
C -0.795609 -3 -1.55874 -2.683901 -2.12132 -2.12132 
C -2.683901 -1.55874 -3 -0.795609 -3 0 
C -3 0.795609 -2.683901 1.55874 -2.12132 2.12132 
C -1.55874 2.683901 -0.795609 3 0 3 
z
" style="stroke: #8b0000"/>
    </defs>
    <g clip-path="url(#p1e1f6baf6a)">
     <use xlink:href="#me5432b81b2" x="66.582727" y="388.528054" style="fill: #8b0000; stroke: #8b0000"/>
     <use xlink:href="#me5432b81b2" x="269.467576" y="387.808967" style="fill: #8b0000; stroke: #8b0000"/>
     <use xlink:href="#me5432b81b2" x="328.80759" y="387.523409" style="fill: #8b0000; stroke: #8b0000"/>
     <use xlink:href="#me5432b81b2" x="472.352424" y="384.576337" style="fill: #8b0000; stroke: #8b0000"/>
     <use xlink:href="#me5432b81b2" x="573.794848" y="379.500527" style="fill: #8b0000; stroke: #8b0000"/>
     <use xlink:href="#me5432b81b2" x="633.134863" y="373.349339" style="fill: #8b0000; stroke: #8b0000"/>
     <use xlink:href="#me5432b81b2" x="655.694889" y="369.915782" style="fill: #8b0000; stroke: #8b0000"/>
     <use xlink:href="#me5432b81b2" x="675.237273" y="365.261606" style="fill: #8b0000; stroke: #8b0000"/>
    </g>
   </g>
   <g id="text_19">
    <!-- baseline -->
    <g style="fill: #ca8a04" transform="translate(245.768357 366.481971) scale(0.1 -0.1)">
     <defs>
      <path id="DejaVuSans-Bold-62" d="M 2400 722 
Q 2759 722 2948 984 
Q 3138 1247 3138 1747 
Q 3138 2247 2948 2509 
Q 2759 2772 2400 2772 
Q 2041 2772 1848 2508 
Q 1656 2244 1656 1747 
Q 1656 1250 1848 986 
Q 2041 722 2400 722 
z
M 1656 2988 
Q 1888 3294 2169 3439 
Q 2450 3584 2816 3584 
Q 3463 3584 3878 3070 
Q 4294 2556 4294 1747 
Q 4294 938 3878 423 
Q 3463 -91 2816 -91 
Q 2450 -91 2169 54 
Q 1888 200 1656 506 
L 1656 0 
L 538 0 
L 538 4863 
L 1656 4863 
L 1656 2988 
z
" transform="scale(0.015625)"/>
     </defs>
     <use xlink:href="#DejaVuSans-Bold-62"/>
     <use xlink:href="#DejaVuSans-Bold-61" transform="translate(71.582031 0)"/>
     <use xlink:href="#DejaVuSans-Bold-73" transform="translate(139.0625 0)"/>
     <use xlink:href="#DejaVuSans-Bold-65" transform="translate(198.583984 0)"/>
     <use xlink:href="#DejaVuSans-Bold-6c" transform="translate(266.40625 0)"/>
     <use xlink:href="#DejaVuSans-Bold-69" transform="translate(300.683594 0)"/>
     <use xlink:href="#DejaVuSans-Bold-6e" transform="translate(334.960938 0)"/>
     <use xlink:href="#DejaVuSans-Bold-65" transform="translate(406.152344 0)"/>
    </g>
   </g>
   <g id="text_20">
    <!-- ezgatr -->
    <g style="fill: #8b0000" transform="translate(637.584733 358.200593) scale(0.1 -0.1)">
     <defs>
      <path id="DejaVuSans-Bold-67" d="M 2919 594 
Q 2688 288 2409 144 
Q 2131 0 1766 0 
Q 1125 0 706 504 
Q 288 1009 288 1791 
Q 288 2575 706 3076 
Q 1125 3578 1766 3578 
Q 2131 3578 2409 3434 
Q 2688 3291 2919 2981 
L 2919 3500 
L 4044 3500 
L 4044 353 
Q 4044 -491 3511 -936 
Q 2978 -1381 1966 -1381 
Q 1638 -1381 1331 -1331 
Q 1025 -1281 716 -1178 
L 716 -306 
Q 1009 -475 1290 -558 
Q 1572 -641 1856 -641 
Q 2406 -641 2662 -400 
Q 2919 -159 2919 353 
L 2919 594 
z
M 2181 2772 
Q 1834 2772 1640 2515 
Q 1447 2259 1447 1791 
Q 1447 1309 1634 1061 
Q 1822 813 2181 813 
Q 2531 813 2725 1069 
Q 2919 1325 2919 1791 
Q 2919 2259 2725 2515 
Q 2531 2772 2181 2772 
z
" transform="scale(0.015625)"/>
     </defs>
     <use xlink:href="#DejaVuSans-Bold-65"/>
     <use xlink:href="#DejaVuSans-Bold-7a" transform="translate(67.822266 0)"/>
     <use xlink:href="#DejaVuSans-Bold-67" transform="translate(126.025391 0)"/>
     <use xlink:href="#DejaVuSans-Bold-61" transform="translate(197.607422 0)"/>
     <use xlink:href="#DejaVuSans-Bold-74" transform="translate(265.087891 0)"/>
     <use xlink:href="#DejaVuSans-Bold-72" transform="translate(312.890625 0)"/>
    </g>
   </g>
   <g id="text_21">
    <g id="patch_4">
     <path d="M 405.59142 66.596699 
L 454.908608 66.596699 
Q 457.408608 66.596699 457.408608 64.096699 
L 457.408608 54.418574 
Q 457.408608 51.918574 454.908608 51.918574 
L 405.59142 51.918574 
Q 403.09142 51.918574 403.09142 54.418574 
L 403.09142 64.096699 
Q 403.09142 66.596699 405.59142 66.596699 
z
" style="fill: #ffffff; opacity: 0.85; stroke: #595959; stroke-width: 0.6; stroke-linejoin: miter"/>
    </g>
    <!-- L2 cache -->
    <g style="fill: #595959" transform="translate(405.59142 62.017011) scale(0.1 -0.1)">
     <defs>
      <path id="DejaVuSans-Bold-4c" d="M 588 4666 
L 1791 4666 
L 1791 909 
L 3903 909 
L 3903 0 
L 588 0 
L 588 4666 
z
" transform="scale(0.015625)"/>
     </defs>
     <use xlink:href="#DejaVuSans-Bold-4c"/>
     <use xlink:href="#DejaVuSans-Bold-32" transform="translate(63.720703 0)"/>
     <use xlink:href="#DejaVuSans-Bold-20" transform="translate(133.300781 0)"/>
     <use xlink:href="#DejaVuSans-Bold-63" transform="translate(168.115234 0)"/>
     <use xlink:href="#DejaVuSans-Bold-61" transform="translate(227.392578 0)"/>
     <use xlink:href="#DejaVuSans-Bold-63" transform="translate(294.873047 0)"/>
     <use xlink:href="#DejaVuSans-Bold-68" transform="translate(354.150391 0)"/>
     <use xlink:href="#DejaVuSans-Bold-65" transform="translate(425.341797 0)"/>
    </g>
   </g>
   <g id="text_22">
    <g id="patch_5">
     <path d="M 633.626637 66.596699 
L 682.943824 66.596699 
Q 685.443824 66.596699 685.443824 64.096699 
L 685.443824 54.418574 
Q 685.443824 51.918574 682.943824 51.918574 
L 633.626637 51.918574 
Q 631.126637 51.918574 631.126637 54.418574 
L 631.126637 64.096699 
Q 631.126637 66.596699 633.626637 66.596699 
z
" style="fill: #ffffff; opacity: 0.85; stroke: #595959; stroke-width: 0.6; stroke-linejoin: miter"/>
    </g>
    <!-- L3 cache -->
    <g style="fill: #595959" transform="translate(633.626637 62.017011) scale(0.1 -0.1)">
     <defs>
      <path id="DejaVuSans-Bold-33" d="M 2981 2516 
Q 3453 2394 3698 2092 
Q 3944 1791 3944 1325 
Q 3944 631 3412 270 
Q 2881 -91 1863 -91 
Q 1503 -91 1142 -33 
Q 781 25 428 141 
L 428 1069 
Q 766 900 1098 814 
Q 1431 728 1753 728 
Q 2231 728 2486 893 
Q 2741 1059 2741 1369 
Q 2741 1688 2480 1852 
Q 2219 2016 1709 2016 
L 1228 2016 
L 1228 2791 
L 1734 2791 
Q 2188 2791 2409 2933 
Q 2631 3075 2631 3366 
Q 2631 3634 2415 3781 
Q 2200 3928 1806 3928 
Q 1516 3928 1219 3862 
Q 922 3797 628 3669 
L 628 4550 
Q 984 4650 1334 4700 
Q 1684 4750 2022 4750 
Q 2931 4750 3382 4451 
Q 3834 4153 3834 3553 
Q 3834 3144 3618 2883 
Q 3403 2622 2981 2516 
z
" transform="scale(0.015625)"/>
     </defs>
     <use xlink:href="#DejaVuSans-Bold-4c"/>
     <use xlink:href="#DejaVuSans-Bold-33" transform="translate(63.720703 0)"/>
     <use xlink:href="#DejaVuSans-Bold-20" transform="translate(133.300781 0)"/>
     <use xlink:href="#DejaVuSans-Bold-63" transform="translate(168.115234 0)"/>
     <use xlink:href="#DejaVuSans-Bold-61" transform="translate(227.392578 0)"/>
     <use xlink:href="#DejaVuSans-Bold-63" transform="translate(294.873047 0)"/>
     <use xlink:href="#DejaVuSans-Bold-68" transform="translate(354.150391 0)"/>
     <use xlink:href="#DejaVuSans-Bold-65" transform="translate(425.341797 0)"/>
    </g>
   </g>
  </g>
  <g id="axes_2">
   <g id="patch_6">
    <path d="M 36.15 815.354719 
L 705.67 815.354719 
L 705.67 459.677969 
L 36.15 459.677969 
z
" style="fill: #efefef"/>
   </g>
   <g id="matplotlib.axis_3">
    <g id="xtick_7">
     <g id="line2d_35">
      <path d="M 117.303939 815.354719 
L 117.303939 459.677969 
" clip-path="url(#p41bf84b0bd)" style="fill: none; stroke: #cccccc; stroke-width: 0.8; stroke-linecap: round"/>
     </g>
     <g id="line2d_36"/>
     <g id="text_23">
      <!-- $\mathdefault{2^{7}}$ -->
      <g style="fill: #262626" transform="translate(111.703939 826.453156) scale(0.1 -0.1)">
       <use xlink:href="#DejaVuSans-32" transform="translate(0 0.684375)"/>
       <use xlink:href="#DejaVuSans-37" transform="translate(64.580078 38.965625) scale(0.7)"/>
      </g>
     </g>
    </g>
    <g id="xtick_8">
     <g id="line2d_37">
      <path d="M 218.746364 815.354719 
L 218.746364 459.677969 
" clip-path="url(#p41bf84b0bd)" style="fill: none; stroke: #cccccc; stroke-width: 0.8; stroke-linecap: round"/>
     </g>
     <g id="line2d_38"/>
     <g id="text_24">
      <!-- $\mathdefault{2^{9}}$ -->
      <g style="fill: #262626" transform="translate(213.146364 826.453156) scale(0.1 -0.1)">
       <use xlink:href="#DejaVuSans-32" transform="translate(0 0.765625)"/>
       <use xlink:href="#DejaVuSans-39" transform="translate(64.580078 39.046875) scale(0.7)"/>
      </g>
     </g>
    </g>
    <g id="xtick_9">
     <g id="line2d_39">
      <path d="M 320.188788 815.354719 
L 320.188788 459.677969 
" clip-path="url(#p41bf84b0bd)" style="fill: none; stroke: #cccccc; stroke-width: 0.8; stroke-linecap: round"/>
     </g>
     <g id="line2d_40"/>
     <g id="text_25">
      <!-- $\mathdefault{2^{11}}$ -->
      <g style="fill: #262626" transform="translate(312.338788 826.453156) scale(0.1 -0.1)">
       <use xlink:href="#DejaVuSans-32" transform="translate(0 0.684375)"/>
       <use xlink:href="#DejaVuSans-31" transform="translate(64.580078 38.965625) scale(0.7)"/>
       <use xlink:href="#DejaVuSans-31" transform="translate(109.116211 38.965625) scale(0.7)"/>
      </g>
     </g>
    </g>
    <g id="xtick_10">
     <g id="line2d_41">
      <path d="M 421.631212 815.354719 
L 421.631212 459.677969 
" clip-path="url(#p41bf84b0bd)" style="fill: none; stroke: #cccccc; stroke-width: 0.8; stroke-linecap: round"/>
     </g>
     <g id="line2d_42"/>
     <g id="text_26">
      <!-- $\mathdefault{2^{13}}$ -->
      <g style="fill: #262626" transform="translate(413.781212 826.453156) scale(0.1 -0.1)">
       <use xlink:href="#DejaVuSans-32" transform="translate(0 0.765625)"/>
       <use xlink:href="#DejaVuSans-31" transform="translate(64.580078 39.046875) scale(0.7)"/>
       <use xlink:href="#DejaVuSans-33" transform="translate(109.116211 39.046875) scale(0.7)"/>
      </g>
     </g>
    </g>
    <g id="xtick_11">
     <g id="line2d_43">
      <path d="M 523.073636 815.354719 
L 523.073636 459.677969 
" clip-path="url(#p41bf84b0bd)" style="fill: none; stroke: #cccccc; stroke-width: 0.8; stroke-linecap: round"/>
     </g>
     <g id="line2d_44"/>
     <g id="text_27">
      <!-- $\mathdefault{2^{15}}$ -->
      <g style="fill: #262626" transform="translate(515.223636 826.453156) scale(0.1 -0.1)">
       <use xlink:href="#DejaVuSans-32" transform="translate(0 0.684375)"/>
       <use xlink:href="#DejaVuSans-31" transform="translate(64.580078 38.965625) scale(0.7)"/>
       <use xlink:href="#DejaVuSans-35" transform="translate(109.116211 38.965625) scale(0.7)"/>
      </g>
     </g>
    </g>
    <g id="xtick_12">
     <g id="line2d_45">
      <path d="M 624.516061 815.354719 
L 624.516061 459.677969 
" clip-path="url(#p41bf84b0bd)" style="fill: none; stroke: #cccccc; stroke-width: 0.8; stroke-linecap: round"/>
     </g>
     <g id="line2d_46"/>
     <g id="text_28">
      <!-- $\mathdefault{2^{17}}$ -->
      <g style="fill: #262626" transform="translate(616.666061 826.453156) scale(0.1 -0.1)">
       <use xlink:href="#DejaVuSans-32" transform="translate(0 0.684375)"/>
       <use xlink:href="#DejaVuSans-31" transform="translate(64.580078 38.965625) scale(0.7)"/>
       <use xlink:href="#DejaVuSans-37" transform="translate(109.116211 38.965625) scale(0.7)"/>
      </g>
     </g>
    </g>
    <g id="text_29">
     <!-- Input Size (TxC_in) -->
     <g style="fill: #262626" transform="translate(314.68625 841.650969) scale(0.12 -0.12)">
      <use xlink:href="#DejaVuSans-49"/>
      <use xlink:href="#DejaVuSans-6e" transform="translate(29.492188 0)"/>
      <use xlink:href="#DejaVuSans-70" transform="translate(92.871094 0)"/>
      <use xlink:href="#DejaVuSans-75" transform="translate(156.347656 0)"/>
      <use xlink:href="#DejaVuSans-74" transform="translate(219.726562 0)"/>
      <use xlink:href="#DejaVuSans-20" transform="translate(258.935547 0)"/>
      <use xlink:href="#DejaVuSans-53" transform="translate(290.722656 0)"/>
      <use xlink:href="#DejaVuSans-69" transform="translate(354.199219 0)"/>
      <use xlink:href="#DejaVuSans-7a" transform="translate(381.982422 0)"/>
      <use xlink:href="#DejaVuSans-65" transform="translate(434.472656 0)"/>
      <use xlink:href="#DejaVuSans-20" transform="translate(495.996094 0)"/>
      <use xlink:href="#DejaVuSans-28" transform="translate(527.783203 0)"/>
      <use xlink:href="#DejaVuSans-54" transform="translate(566.796875 0)"/>
      <use xlink:href="#DejaVuSans-78" transform="translate(627.880859 0)"/>
      <use xlink:href="#DejaVuSans-43" transform="translate(687.060547 0)"/>
      <use xlink:href="#DejaVuSans-5f" transform="translate(756.884766 0)"/>
      <use xlink:href="#DejaVuSans-69" transform="translate(806.884766 0)"/>
      <use xlink:href="#DejaVuSans-6e" transform="translate(834.667969 0)"/>
      <use xlink:href="#DejaVuSans-29" transform="translate(898.046875 0)"/>
     </g>
    </g>
   </g>
   <g id="matplotlib.axis_4">
    <g id="ytick_10">
     <g id="line2d_47">
      <path d="M 36.15 815.354719 
L 705.67 815.354719 
" clip-path="url(#p41bf84b0bd)" style="fill: none; stroke: #ffffff; stroke-linecap: round"/>
     </g>
     <g id="line2d_48"/>
     <g id="text_30">
      <!-- 0 -->
      <g style="fill: #262626" transform="translate(26.2875 819.153938) scale(0.1 -0.1)">
       <use xlink:href="#DejaVuSans-30"/>
      </g>
     </g>
    </g>
    <g id="ytick_11">
     <g id="line2d_49">
      <path d="M 36.15 761.955113 
L 705.67 761.955113 
" clip-path="url(#p41bf84b0bd)" style="fill: none; stroke: #ffffff; stroke-linecap: round"/>
     </g>
     <g id="line2d_50"/>
     <g id="text_31">
      <!-- 20 -->
      <g style="fill: #262626" transform="translate(19.925 765.754332) scale(0.1 -0.1)">
       <use xlink:href="#DejaVuSans-32"/>
       <use xlink:href="#DejaVuSans-30" transform="translate(63.623047 0)"/>
      </g>
     </g>
    </g>
    <g id="ytick_12">
     <g id="line2d_51">
      <path d="M 36.15 708.555507 
L 705.67 708.555507 
" clip-path="url(#p41bf84b0bd)" style="fill: none; stroke: #ffffff; stroke-linecap: round"/>
     </g>
     <g id="line2d_52"/>
     <g id="text_32">
      <!-- 40 -->
      <g style="fill: #262626" transform="translate(19.925 712.354726) scale(0.1 -0.1)">
       <use xlink:href="#DejaVuSans-34"/>
       <use xlink:href="#DejaVuSans-30" transform="translate(63.623047 0)"/>
      </g>
     </g>
    </g>
    <g id="ytick_13">
     <g id="line2d_53">
      <path d="M 36.15 655.155902 
L 705.67 655.155902 
" clip-path="url(#p41bf84b0bd)" style="fill: none; stroke: #ffffff; stroke-linecap: round"/>
     </g>
     <g id="line2d_54"/>
     <g id="text_33">
      <!-- 60 -->
      <g style="fill: #262626" transform="translate(19.925 658.95512) scale(0.1 -0.1)">
       <use xlink:href="#DejaVuSans-36"/>
       <use xlink:href="#DejaVuSans-30" transform="translate(63.623047 0)"/>
      </g>
     </g>
    </g>
    <g id="ytick_14">
     <g id="line2d_55">
      <path d="M 36.15 601.756296 
L 705.67 601.756296 
" clip-path="url(#p41bf84b0bd)" style="fill: none; stroke: #ffffff; stroke-linecap: round"/>
     </g>
     <g id="line2d_56"/>
     <g id="text_34">
      <!-- 80 -->
      <g style="fill: #262626" transform="translate(19.925 605.555515) scale(0.1 -0.1)">
       <use xlink:href="#DejaVuSans-38"/>
       <use xlink:href="#DejaVuSans-30" transform="translate(63.623047 0)"/>
      </g>
     </g>
    </g>
    <g id="ytick_15">
     <g id="line2d_57">
      <path d="M 36.15 548.35669 
L 705.67 548.35669 
" clip-path="url(#p41bf84b0bd)" style="fill: none; stroke: #ffffff; stroke-linecap: round"/>
     </g>
     <g id="line2d_58"/>
     <g id="text_35">
      <!-- 100 -->
      <g style="fill: #262626" transform="translate(13.5625 552.155909) scale(0.1 -0.1)">
       <use xlink:href="#DejaVuSans-31"/>
       <use xlink:href="#DejaVuSans-30" transform="translate(63.623047 0)"/>
       <use xlink:href="#DejaVuSans-30" transform="translate(127.246094 0)"/>
      </g>
     </g>
    </g>
    <g id="ytick_16">
     <g id="line2d_59">
      <path d="M 36.15 494.957084 
L 705.67 494.957084 
" clip-path="url(#p41bf84b0bd)" style="fill: none; stroke: #ffffff; stroke-linecap: round"/>
     </g>
     <g id="line2d_60"/>
     <g id="text_36">
      <!-- 120 -->
      <g style="fill: #262626" transform="translate(13.5625 498.756303) scale(0.1 -0.1)">
       <use xlink:href="#DejaVuSans-31"/>
       <use xlink:href="#DejaVuSans-32" transform="translate(63.623047 0)"/>
       <use xlink:href="#DejaVuSans-30" transform="translate(127.246094 0)"/>
      </g>
     </g>
    </g>
   </g>
   <g id="line2d_61">
    <path d="M 430.250014 815.354719 
L 430.250014 459.677969 
" clip-path="url(#p41bf84b0bd)" style="fill: none; stroke-dasharray: 1.5,2.475; stroke-dashoffset: 0; stroke: #595959; stroke-width: 1.5"/>
   </g>
   <g id="line2d_62">
    <path d="M 658.285231 815.354719 
L 658.285231 459.677969 
" clip-path="url(#p41bf84b0bd)" style="fill: none; stroke-dasharray: 1.5,2.475; stroke-dashoffset: 0; stroke: #595959; stroke-width: 1.5"/>
   </g>
   <g id="patch_7">
    <path d="M 36.15 815.354719 
L 705.67 815.354719 
" style="fill: none; stroke: #cccccc; stroke-linejoin: miter; stroke-linecap: square"/>
   </g>
   <g id="text_37">
    <!-- Time [Gcycles] -->
    <g style="fill: #666666" transform="translate(36.15 457.80625) scale(0.09 -0.09)">
     <use xlink:href="#DejaVuSans-54"/>
     <use xlink:href="#DejaVuSans-69" transform="translate(57.958984 0)"/>
     <use xlink:href="#DejaVuSans-6d" transform="translate(85.742188 0)"/>
     <use xlink:href="#DejaVuSans-65" transform="translate(183.154297 0)"/>
     <use xlink:href="#DejaVuSans-20" transform="translate(244.677734 0)"/>
     <use xlink:href="#DejaVuSans-5b" transform="translate(276.464844 0)"/>
     <use xlink:href="#DejaVuSans-47" transform="translate(315.478516 0)"/>
     <use xlink:href="#DejaVuSans-63" transform="translate(392.96875 0)"/>
     <use xlink:href="#DejaVuSans-79" transform="translate(447.949219 0)"/>
     <use xlink:href="#DejaVuSans-63" transform="translate(507.128906 0)"/>
     <use xlink:href="#DejaVuSans-6c" transform="translate(562.109375 0)"/>
     <use xlink:href="#DejaVuSans-65" transform="translate(589.892578 0)"/>
     <use xlink:href="#DejaVuSans-73" transform="translate(651.416016 0)"/>
     <use xlink:href="#DejaVuSans-5d" transform="translate(703.515625 0)"/>
    </g>
   </g>
   <g id="text_38">
    <!-- Runtime: Intel Core 7 240H (P-core, 2.5GHz) (Without Baseline) -->
    <g style="fill: #262626" transform="translate(36.15 443.677969) scale(0.13 -0.13)">
     <use xlink:href="#DejaVuSans-Bold-52"/>
     <use xlink:href="#DejaVuSans-Bold-75" transform="translate(77.001953 0)"/>
     <use xlink:href="#DejaVuSans-Bold-6e" transform="translate(148.193359 0)"/>
     <use xlink:href="#DejaVuSans-Bold-74" transform="translate(219.384766 0)"/>
     <use xlink:href="#DejaVuSans-Bold-69" transform="translate(267.1875 0)"/>
     <use xlink:href="#DejaVuSans-Bold-6d" transform="translate(301.464844 0)"/>
     <use xlink:href="#DejaVuSans-Bold-65" transform="translate(405.664062 0)"/>
     <use xlink:href="#DejaVuSans-Bold-3a" transform="translate(473.486328 0)"/>
     <use xlink:href="#DejaVuSans-Bold-20" transform="translate(513.476562 0)"/>
     <use xlink:href="#DejaVuSans-Bold-49" transform="translate(548.291016 0)"/>
     <use xlink:href="#DejaVuSans-Bold-6e" transform="translate(585.498047 0)"/>
     <use xlink:href="#DejaVuSans-Bold-74" transform="translate(656.689453 0)"/>
     <use xlink:href="#DejaVuSans-Bold-65" transform="translate(704.492188 0)"/>
     <use xlink:href="#DejaVuSans-Bold-6c" transform="translate(772.314453 0)"/>
     <use xlink:href="#DejaVuSans-Bold-20" transform="translate(806.591797 0)"/>
     <use xlink:href="#DejaVuSans-Bold-43" transform="translate(841.40625 0)"/>
     <use xlink:href="#DejaVuSans-Bold-6f" transform="translate(914.794922 0)"/>
     <use xlink:href="#DejaVuSans-Bold-72" transform="translate(983.496094 0)"/>
     <use xlink:href="#DejaVuSans-Bold-65" transform="translate(1032.8125 0)"/>
     <use xlink:href="#DejaVuSans-Bold-20" transform="translate(1100.634766 0)"/>
     <use xlink:href="#DejaVuSans-Bold-37" transform="translate(1135.449219 0)"/>
     <use xlink:href="#DejaVuSans-Bold-20" transform="translate(1205.029297 0)"/>
     <use xlink:href="#DejaVuSans-Bold-32" transform="translate(1239.84375 0)"/>
     <use xlink:href="#DejaVuSans-Bold-34" transform="translate(1309.423828 0)"/>
     <use xlink:href="#DejaVuSans-Bold-30" transform="translate(1379.003906 0)"/>
     <use xlink:href="#DejaVuSans-Bold-48" transform="translate(1448.583984 0)"/>
     <use xlink:href="#DejaVuSans-Bold-20" transform="translate(1532.275391 0)"/>
     <use xlink:href="#DejaVuSans-Bold-28" transform="translate(1567.089844 0)"/>
     <use xlink:href="#DejaVuSans-Bold-50" transform="translate(1612.792969 0)"/>
     <use xlink:href="#DejaVuSans-Bold-2d" transform="translate(1684.333984 0)"/>
     <use xlink:href="#DejaVuSans-Bold-63" transform="translate(1725.837891 0)"/>
     <use xlink:href="#DejaVuSans-Bold-6f" transform="translate(1785.115234 0)"/>
     <use xlink:href="#DejaVuSans-Bold-72" transform="translate(1853.816406 0)"/>
     <use xlink:href="#DejaVuSans-Bold-65" transform="translate(1903.132812 0)"/>
     <use xlink:href="#DejaVuSans-Bold-2c" transform="translate(1970.955078 0)"/>
     <use xlink:href="#DejaVuSans-Bold-20" transform="translate(2008.943359 0)"/>
     <use xlink:href="#DejaVuSans-Bold-32" transform="translate(2043.757812 0)"/>
     <use xlink:href="#DejaVuSans-Bold-2e" transform="translate(2113.337891 0)"/>
     <use xlink:href="#DejaVuSans-Bold-35" transform="translate(2151.326172 0)"/>
     <use xlink:href="#DejaVuSans-Bold-47" transform="translate(2220.90625 0)"/>
     <use xlink:href="#DejaVuSans-Bold-48" transform="translate(2302.986328 0)"/>
     <use xlink:href="#DejaVuSans-Bold-7a" transform="translate(2386.677734 0)"/>
     <use xlink:href="#DejaVuSans-Bold-29" transform="translate(2444.880859 0)"/>
     <use xlink:href="#DejaVuSans-Bold-20" transform="translate(2490.583984 0)"/>
     <use xlink:href="#DejaVuSans-Bold-28" transform="translate(2525.398438 0)"/>
     <use xlink:href="#DejaVuSans-Bold-57" transform="translate(2571.101562 0)"/>
     <use xlink:href="#DejaVuSans-Bold-69" transform="translate(2681.404297 0)"/>
     <use xlink:href="#DejaVuSans-Bold-74" transform="translate(2715.681641 0)"/>
     <use xlink:href="#DejaVuSans-Bold-68" transform="translate(2763.484375 0)"/>
     <use xlink:href="#DejaVuSans-Bold-6f" transform="translate(2834.675781 0)"/>
     <use xlink:href="#DejaVuSans-Bold-75" transform="translate(2903.376953 0)"/>
     <use xlink:href="#DejaVuSans-Bold-74" transform="translate(2974.568359 0)"/>
     <use xlink:href="#DejaVuSans-Bold-20" transform="translate(3022.371094 0)"/>
     <use xlink:href="#DejaVuSans-Bold-42" transform="translate(3057.185547 0)"/>
     <use xlink:href="#DejaVuSans-Bold-61" transform="translate(3133.40625 0)"/>
     <use xlink:href="#DejaVuSans-Bold-73" transform="translate(3200.886719 0)"/>
     <use xlink:href="#DejaVuSans-Bold-65" transform="translate(3260.408203 0)"/>
     <use xlink:href="#DejaVuSans-Bold-6c" transform="translate(3328.230469 0)"/>
     <use xlink:href="#DejaVuSans-Bold-69" transform="translate(3362.507812 0)"/>
     <use xlink:href="#DejaVuSans-Bold-6e" transform="translate(3396.785156 0)"/>
     <use xlink:href="#DejaVuSans-Bold-65" transform="translate(3467.976562 0)"/>
     <use xlink:href="#DejaVuSans-Bold-29" transform="translate(3535.798828 0)"/>
    </g>
   </g>
   <g id="line2d_63">
    <path d="M 66.582727 812.495038 
L 269.467576 803.42278 
L 328.80759 799.820086 
L 472.352424 762.638806 
L 573.794848 698.600614 
L 633.134863 620.995084 
L 655.694889 577.676141 
L 675.237273 518.957427 
" clip-path="url(#p41bf84b0bd)" style="fill: none; stroke-dasharray: 11.84,5.12; stroke-dashoffset: 0; stroke: #8b0000; stroke-width: 3.2"/>
    <g clip-path="url(#p41bf84b0bd)">
     <use xlink:href="#me5432b81b2" x="66.582727" y="812.495038" style="fill: #8b0000; stroke: #8b0000"/>
     <use xlink:href="#me5432b81b2" x="269.467576" y="803.42278" style="fill: #8b0000; stroke: #8b0000"/>
     <use xlink:href="#me5432b81b2" x="328.80759" y="799.820086" style="fill: #8b0000; stroke: #8b0000"/>
     <use xlink:href="#me5432b81b2" x="472.352424" y="762.638806" style="fill: #8b0000; stroke: #8b0000"/>
     <use xlink:href="#me5432b81b2" x="573.794848" y="698.600614" style="fill: #8b0000; stroke: #8b0000"/>
     <use xlink:href="#me5432b81b2" x="633.134863" y="620.995084" style="fill: #8b0000; stroke: #8b0000"/>
     <use xlink:href="#me5432b81b2" x="655.694889" y="577.676141" style="fill: #8b0000; stroke: #8b0000"/>
     <use xlink:href="#me5432b81b2" x="675.237273" y="518.957427" style="fill: #8b0000; stroke: #8b0000"/>
    </g>
   </g>
   <g id="text_39">
    <!-- ezgatr -->
    <g style="fill: #8b0000" transform="translate(454.242268 779.716495) scale(0.1 -0.1)">
     <use xlink:href="#DejaVuSans-Bold-65"/>
     <use xlink:href="#DejaVuSans-Bold-7a" transform="translate(67.822266 0)"/>
     <use xlink:href="#DejaVuSans-Bold-67" transform="translate(126.025391 0)"/>
     <use xlink:href="#DejaVuSans-Bold-61" transform="translate(197.607422 0)"/>
     <use xlink:href="#DejaVuSans-Bold-74" transform="translate(265.087891 0)"/>
     <use xlink:href="#DejaVuSans-Bold-72" transform="translate(312.890625 0)"/>
    </g>
   </g>
   <g id="text_40">
    <g id="patch_8">
     <path d="M 405.59142 493.196699 
L 454.908608 493.196699 
Q 457.408608 493.196699 457.408608 490.696699 
L 457.408608 481.018574 
Q 457.408608 478.518574 454.908608 478.518574 
L 405.59142 478.518574 
Q 403.09142 478.518574 403.09142 481.018574 
L 403.09142 490.696699 
Q 403.09142 493.196699 405.59142 493.196699 
z
" style="fill: #ffffff; opacity: 0.85; stroke: #595959; stroke-width: 0.6; stroke-linejoin: miter"/>
    </g>
    <!-- L2 cache -->
    <g style="fill: #595959" transform="translate(405.59142 488.617011) scale(0.1 -0.1)">
     <use xlink:href="#DejaVuSans-Bold-4c"/>
     <use xlink:href="#DejaVuSans-Bold-32" transform="translate(63.720703 0)"/>
     <use xlink:href="#DejaVuSans-Bold-20" transform="translate(133.300781 0)"/>
     <use xlink:href="#DejaVuSans-Bold-63" transform="translate(168.115234 0)"/>
     <use xlink:href="#DejaVuSans-Bold-61" transform="translate(227.392578 0)"/>
     <use xlink:href="#DejaVuSans-Bold-63" transform="translate(294.873047 0)"/>
     <use xlink:href="#DejaVuSans-Bold-68" transform="translate(354.150391 0)"/>
     <use xlink:href="#DejaVuSans-Bold-65" transform="translate(425.341797 0)"/>
    </g>
   </g>
   <g id="text_41">
    <g id="patch_9">
     <path d="M 633.626637 493.196699 
L 682.943824 493.196699 
Q 685.443824 493.196699 685.443824 490.696699 
L 685.443824 481.018574 
Q 685.443824 478.518574 682.943824 478.518574 
L 633.626637 478.518574 
Q 631.126637 478.518574 631.126637 481.018574 
L 631.126637 490.696699 
Q 631.126637 493.196699 633.626637 493.196699 
z
" style="fill: #ffffff; opacity: 0.85; stroke: #595959; stroke-width: 0.6; stroke-linejoin: miter"/>
    </g>
    <!-- L3 cache -->
    <g style="fill: #595959" transform="translate(633.626637 488.617011) scale(0.1 -0.1)">
     <use xlink:href="#DejaVuSans-Bold-4c"/>
     <use xlink:href="#DejaVuSans-Bold-33" transform="translate(63.720703 0)"/>
     <use xlink:href="#DejaVuSans-Bold-20" transform="translate(133.300781 0)"/>
     <use xlink:href="#DejaVuSans-Bold-63" transform="translate(168.115234 0)"/>
     <use xlink:href="#DejaVuSans-Bold-61" transform="translate(227.392578 0)"/>
     <use xlink:href="#DejaVuSans-Bold-63" transform="translate(294.873047 0)"/>
     <use xlink:href="#DejaVuSans-Bold-68" transform="translate(354.150391 0)"/>
     <use xlink:href="#DejaVuSans-Bold-65" transform="translate(425.341797 0)"/>
    </g>
   </g>
  </g>
 </g>
 <defs>
  <clipPath id="p1e1f6baf6a">
   <rect x="36.15" y="33.077969" width="669.52" height="355.67675"/>
  </clipPath>
  <clipPath id="p41bf84b0bd">
   <rect x="36.15" y="459.677969" width="669.52" height="355.67675"/>
  </clipPath>
 </defs>
</svg>
